<svg width="24" height="24" viewBox="0 0 24 24" fill="none" xmlns="http://www.w3.org/2000/svg">
<circle cx="12" cy="12" r="10.4" stroke="#FF4545" stroke-width="1.2"/>
<path d="M11.9972 5C12.4097 5 12.7426 5.33713 12.7375 5.74958L12.6294 14.3798C12.6251 14.7236 12.3452 15 12.0014 15C11.6578 15 11.378 14.724 11.3734 14.3804L11.257 5.75029C11.2514 5.33756 11.5844 5 11.9972 5Z" fill="#FF4545"/>
<path d="M12.7827 17.75C12.7827 18.1642 12.4309 18.5 11.9968 18.5C11.5628 18.5 11.2109 18.1642 11.2109 17.75C11.2109 17.3358 11.5628 17 11.9968 17C12.4309 17 12.7827 17.3358 12.7827 17.75Z" fill="#FF4545"/>
</svg>
