<svg width="35" height="34" viewBox="0 0 35 34" fill="none" xmlns="http://www.w3.org/2000/svg">
<path d="M14.6052 32.5807H20.0719C20.1271 32.5807 20.1719 32.536 20.1719 32.4807V26.9141H22.5861C25.2202 26.9141 27.8478 26.6539 30.4307 26.1373L32.6299 25.6974C33.0375 25.6159 33.1735 25.1016 32.8593 24.8293L23.1594 16.4227C23.0966 16.3682 23.1237 16.2654 23.2053 16.2491L29.2014 15.0498C29.5871 14.9727 29.7368 14.5011 29.4664 14.2157L17.7015 1.7972C17.5043 1.58903 17.1728 1.58903 16.9756 1.7972L5.21072 14.2157C4.94026 14.5011 5.09002 14.9727 5.47564 15.0498L11.4718 16.2491C11.5533 16.2654 11.5805 16.3682 11.5177 16.4227L1.79743 24.8469C1.48702 25.1159 1.61545 25.6237 2.01643 25.7129L3.13554 25.9615C5.98454 26.5947 8.89427 26.9141 11.8128 26.9141H14.5052V32.4807C14.5052 32.536 14.55 32.5807 14.6052 32.5807Z" stroke="#39B598" stroke-width="2"/>
</svg>
