<svg width="35" height="34" viewBox="0 0 35 34" fill="none" xmlns="http://www.w3.org/2000/svg">
<path d="M20.8828 31.5859C20.8828 32.1382 20.4351 32.5859 19.8828 32.5859H14.7995C14.2472 32.5859 13.7995 32.1382 13.7995 31.5859V27.6276H20.8828V31.5859Z" stroke="#EF5C7F" stroke-width="2"/>
<path d="M27.2552 10.24C27.2552 16.108 21.5885 22.3828 17.3385 22.3828C13.0885 22.3828 7.42188 16.108 7.42188 10.24C7.42188 4.37193 11.8617 1.13281 17.3385 1.13281C22.8154 1.13281 27.2552 4.37193 27.2552 10.24Z" stroke="#EF5C7F" stroke-width="2"/>
<path d="M21.5859 9.63281C21.5859 15.1096 19.6831 22.3828 17.3359 22.3828C14.9887 22.3828 13.0859 15.1096 13.0859 9.63281C13.0859 4.15599 14.9887 1.13281 17.3359 1.13281C19.6831 1.13281 21.5859 4.15599 21.5859 9.63281Z" stroke="#EF5C7F" stroke-width="2"/>
<path d="M9.54688 17L13.7969 27.625H20.8802L25.1302 17" stroke="#EF5C7F" stroke-width="2" stroke-linecap="round"/>
</svg>
