<svg width="1354" height="1030" viewBox="0 0 1354 1030" fill="none" xmlns="http://www.w3.org/2000/svg">
<path d="M1354 88.6689C1348.77 89.8389 1343.54 91.0767 1338.3 92.3539C1280.4 106.426 1245.51 107.111 1192.46 78.8501C1170.98 64.9762 1154.59 48.658 1137.18 30.0727C1121.78 13.9154 1109.07 5.2512 1092.18 0H1033.01C994.198 10.861 959.815 35.914 926.845 59.9377C920.703 64.4132 914.61 68.853 908.546 73.1587C900.521 78.792 891.475 85.9114 881.922 93.4292L881.919 93.4318L881.916 93.4345C840.087 126.355 788.557 166.91 770.56 123.781C768.93 119.875 767.998 115.768 766.714 111.75C752.274 67.3833 739.115 30.7627 716.917 0H0V41.8288C33.8191 42.9155 86.5855 63.4374 125.823 78.6976L125.826 78.6988C142.558 85.2064 156.83 90.7569 166.123 93.4351C181.185 97.7762 194.594 102.195 206.987 106.28C257.392 122.891 291.001 133.968 350.759 111.75C366.624 105.852 369.593 98.241 373.12 89.1989C379.342 73.2491 387.3 52.8455 470.843 29.5287C492.57 19.628 515.63 27.9742 538.521 36.2593C563.157 45.1758 587.597 54.0214 609.97 39.9755C632.014 26.1356 652.783 36.281 675.809 50.3147C687.7 61.973 671.804 73.5616 654.857 85.9169C637.959 98.2363 620.015 111.318 627.528 125.991C664.115 194.084 795.792 252.885 871.856 279.825C910.301 289.951 947.063 292.185 986.617 293.061C1087.72 295.544 1180.33 319.327 1261.52 360.03C1287.88 373.245 1321.63 379.734 1354 381.508V341.417C1337.28 342.658 1319.48 340.757 1301.2 333.731C1300.64 333.515 1300.09 333.305 1299.55 333.097C1291.12 329.881 1284.8 327.472 1280.26 319.327C1274.94 309.801 1272.35 298.907 1280.26 291.392C1283.51 288.3 1287.27 287.855 1291.07 287.404C1292.99 287.176 1294.92 286.947 1296.81 286.374C1315.88 280.583 1334.94 274.773 1354 268.957V88.6689Z" fill="#228AA8"/>
<path d="M1354 401.553C1315.26 403.694 1278.91 404.653 1239.63 386.736C1173.82 362.764 1124.58 357.755 1065.08 351.704C1043.35 349.493 1020.25 347.144 994.474 343.68C963.754 339.552 937.086 340.419 911.758 341.242C870.302 342.59 832.429 343.821 786.235 322.845C751.516 307.079 731.113 288.202 708.283 267.078L708.282 267.078C696.63 256.297 684.346 244.931 669.203 233.095C655.16 222.118 638.129 200.585 619.236 176.698C576.744 122.973 524.838 57.3456 476.347 73.1587C476.347 73.1587 450.638 50.2133 440.664 83.6997C440.152 85.4161 439.96 87.2823 440.014 89.0724C444.148 224.849 539.44 262.132 627.052 296.41C633.623 298.981 639.908 301.382 645.948 303.689L645.949 303.689L645.953 303.691C692.658 321.531 724.734 333.783 761.552 376.014C791.286 410.12 829.632 408.822 873.816 407.326C883.174 407.009 892.795 406.684 902.651 406.684C924.171 406.684 943.378 406.16 961.554 405.664C1009.74 404.351 1050.67 403.235 1108.24 412.596C1110.6 412.98 1112.9 413.353 1115.15 413.716C1149.66 419.301 1171.3 422.805 1205.98 435.034C1222.53 440.871 1234.11 449.234 1245.36 457.351C1260.71 468.435 1275.42 479.059 1301.28 482.163C1319.71 480.379 1336.62 477.315 1354 473.421V401.553Z" fill="#228AA8"/>
<path d="M1354 549.46C1317.68 556.376 1279.89 551.782 1252.45 534.401C1184.38 491.275 1138.34 477.004 1065.08 499.081C1046.47 504.244 1012.28 518.265 995.079 525.592L995.077 525.592C978.968 532.455 969.985 512.537 960.037 490.483C948.917 465.827 936.591 438.5 911.757 442.93C802.336 462.449 748.452 457.471 693.241 406.684C662.418 378.33 621.4 382.774 579.648 387.297C558.235 389.617 536.629 391.958 516.107 389.906C482.353 386.449 447.922 371.987 414.968 358.146C382.715 344.599 351.878 331.646 324.477 330.188L305.087 330.298L284.154 330.367L262.13 330.544L240.025 330.639C234.138 330.666 181.557 330.697 123.205 330.73L122.946 330.73C79.504 330.755 32.8986 330.782 0 330.811V437.226C33.2025 440.165 74.6548 445.489 84.459 451.061C160.036 494.015 253.652 484.006 346.565 474.072C436.518 464.455 525.811 454.908 597.436 493.56C598.483 494.125 601.511 496.118 606.014 499.081C635.656 518.589 729.23 580.17 742.543 553.537C745.261 548.1 748.089 541.763 750.979 535.286C758.197 519.108 765.805 502.057 773.066 495.982C783.233 487.473 792.24 486.395 798.084 490.977C801.933 493.994 813.478 523.163 818.603 536.469C819.931 539.916 824.015 541.359 827.317 539.705C848.494 529.101 862.857 529.339 871.607 529.484C872.542 529.5 873.414 529.514 874.223 529.514C901.401 521.736 921.56 542.054 942.358 563.016C960.989 581.794 980.133 601.089 1005.29 601.166L1027.44 600.825C1101.64 600.779 1168.06 618.845 1236.58 646.124C1274.31 660.887 1307.93 673.471 1348.62 675.396L1354 675.665V549.46Z" fill="#228AA8"/>
<path d="M1354 744.78C1303.8 730.518 1260.24 720.651 1260.24 720.651C1260.24 720.651 1241.9 687.774 1136.5 669.947C1121.55 667.491 1095.5 662 1049.7 669.947C999.644 678.633 1005.29 701.5 924.404 634.938C913.885 624.359 902.107 612.513 874.223 611.842C842.055 611.067 817.243 617.694 794.034 623.892C793.335 624.079 792.638 624.265 791.943 624.451V611.4H814.096L794.701 577.505H806.566L791.614 549.893H799.847L785.954 516.001L770.003 549.893H778.879L762.863 577.505H775.792L755.052 611.4H778.307V627.981C750.697 634.762 723.511 638.286 686.502 624.606C637.631 606.542 606.62 577.763 576.637 549.938L576.635 549.936C566.169 540.224 555.829 530.627 544.897 521.643C508.908 503.001 467.659 514.272 429.905 525.298C422.77 527.469 416.097 530.12 409.45 532.763C394.792 538.59 380.246 544.372 361.018 544.851C309.327 546.135 229.694 533.063 181.208 521.643C141.502 512.291 58.6637 490.628 0 474.78V557.362C93.6316 587.239 231.244 607.982 305.087 611.842C307.246 611.955 310.957 612.421 315.851 613.036C343.483 616.51 408.848 624.726 445.834 600.825C495.503 568.728 512.902 580.908 544.897 615.445C558.394 630.013 568.801 642.447 577.685 653.06C605.212 685.946 618.115 701.361 662.984 708.688C704.348 715.443 730.361 702.349 764.824 685.001C791.644 671.501 823.582 655.424 871.856 644.122C896.448 638.365 933.192 675.506 960.037 708.688C995.077 752 1044.13 717.193 1049.7 720.651C1148.5 769.5 986.265 771.137 969.199 777.433C952.065 783.754 933.263 790.69 942.083 802.632C949.719 812.951 959.582 814.45 970.711 816.142L970.712 816.142C976.27 816.986 1261.52 856.832 1309.96 911.885C1309.96 936.745 1180.14 930.738 1062.22 925.282C964.1 920.742 864.851 854.431 827.317 879.5C731.402 943.562 708.282 1007.5 770.003 1030H1354V744.78Z" fill="#228AA8"/>
<path d="M585.928 1030C585.928 1030 577.685 944.417 754.552 845.321C768.681 839.152 780.198 822.083 791.565 805.238C813.211 773.157 842.359 800.797 871.856 788.265C888.279 781.288 903.724 781.934 911.757 766C915.61 758.358 913.356 743.908 911.757 735.5C908.989 720.946 886.5 720.651 886.5 720.651C886.5 720.651 829.022 706.555 803.303 726.058C755.983 761.941 697.75 806.099 621.954 788.265C597.153 782.43 544.897 791.291 476.347 845.321C450.984 865.31 418.303 842.774 390.334 823.488L390.333 823.487C386.65 820.947 383.05 818.464 379.558 816.142C364.011 805.802 392.593 794.679 429.854 780.179C484.185 759.036 556.967 730.713 538.287 687.167C536.735 683.549 535.341 680.093 534.012 676.796C524.132 652.289 517.804 636.592 476.347 628.959C435.338 621.409 414.636 637.926 392.435 655.638C362.39 679.609 329.601 705.769 240.025 677.436C216.511 668.815 166.641 658.361 112.788 647.072L112.787 647.072C74.5272 639.052 34.2573 630.611 0 622.106V1030H585.928Z" fill="#228AA8"/>
<path d="M0 229.876C31.4606 234.078 75.9218 239.05 122.002 244.204L122.003 244.204C211.177 254.178 306.414 264.829 325.228 271.886L339.939 277.409C349.793 281.102 359.65 284.785 369.511 288.458C395.049 297.986 420.493 307.696 445.834 317.738L461.178 323.732C470.824 327.506 480.448 331.339 490.044 335.241C513.715 344.427 531.036 350.149 554.112 340.279C584.951 327.088 542.346 306.165 502.523 286.607C485.527 278.26 469.037 270.162 458.98 263.02C450.58 256.967 441.21 252.009 431.911 247.088C414.973 238.125 396.816 203.714 385.813 174.409C380.691 160.766 362.876 153.786 349.079 158.472C256.999 189.743 71.0819 147.539 0 129.29V229.876Z" fill="#228AA8"/>
</svg>
