<svg width="22" height="22" viewBox="0 0 22 22" fill="none" xmlns="http://www.w3.org/2000/svg">
<path d="M19.6601 1H2.33989C1.59989 1 1 1.59989 1 2.33989C1 2.64919 1.10701 2.94897 1.30287 3.18836L8.95578 12.5419C9.10195 12.7206 9.18182 12.9443 9.18182 13.1751V20.8C9.18182 20.8824 9.27589 20.9294 9.34182 20.88L12.4182 18.5727C12.67 18.3839 12.8182 18.0875 12.8182 17.7727V13.1751C12.8182 12.9443 12.898 12.7206 13.0442 12.5419L20.6971 3.18836C20.893 2.94897 21 2.64919 21 2.33989C21 1.59989 20.4001 1 19.6601 1Z" fill="#0A7D9E" stroke="#0A7D9E" stroke-width="2" stroke-linecap="round"/>
</svg>
