<svg width="280" height="128" viewBox="0 0 280 128" fill="none" xmlns="http://www.w3.org/2000/svg">
<path d="M91.0466 115.353C90.8599 115.353 90.7085 115.504 90.7085 115.691V117.72C90.7085 117.906 90.8599 118.058 91.0466 118.058H94.7656V127.186C94.7656 127.373 94.917 127.524 95.1037 127.524H97.1322C97.319 127.524 97.4703 127.373 97.4703 127.186V118.058H101.189C101.376 118.058 101.527 117.906 101.527 117.72V115.691C101.527 115.504 101.376 115.353 101.189 115.353H91.0466Z" fill="white"/>
<path d="M177.241 115.691C177.241 115.504 177.089 115.353 176.903 115.353H174.874C174.687 115.353 174.536 115.504 174.536 115.691V127.186C174.536 127.373 174.687 127.524 174.874 127.524H183.045C183.232 127.524 183.383 127.373 183.383 127.186V125.158C183.383 124.971 183.232 124.82 183.045 124.82H177.241V115.691Z" fill="white"/>
<path d="M156.973 127.186C156.973 127.373 157.124 127.524 157.311 127.524H167.454C167.64 127.524 167.792 127.373 167.792 127.186V125.158C167.792 124.971 167.64 124.82 167.454 124.82H159.678V122.791H164.749C164.936 122.791 165.087 122.64 165.087 122.453V120.424C165.087 120.238 164.936 120.086 164.749 120.086H159.678V118.058H167.454C167.64 118.058 167.792 117.906 167.792 117.72V115.691C167.792 115.504 167.64 115.353 167.454 115.353H157.311C157.124 115.353 156.973 115.504 156.973 115.691V127.186Z" fill="white"/>
<path fill-rule="evenodd" clip-rule="evenodd" d="M108.61 115.353C108.424 115.353 108.272 115.504 108.272 115.691V127.186C108.272 127.373 108.424 127.524 108.61 127.524H110.976V123.805H113.424L115.851 127.524H119.081L116.48 123.54C118.006 122.957 119.091 121.479 119.091 119.748V119.41C119.091 117.169 117.275 115.353 115.033 115.353H108.61ZM114.864 121.101H110.976V118.058H114.864C115.704 118.058 116.386 118.739 116.386 119.579C116.386 120.419 115.704 121.101 114.864 121.101Z" fill="white"/>
<path d="M139.401 115.353L144.159 126.905C144.313 127.28 144.678 127.524 145.083 127.524H146.486C146.892 127.524 147.257 127.28 147.411 126.905L152.168 115.353H149.243L145.784 123.75L142.327 115.353H139.401Z" fill="white"/>
<path fill-rule="evenodd" clip-rule="evenodd" d="M128.767 115.562L123.841 127.524H126.766L127.601 125.496H132.846L133.682 127.524H136.608L131.682 115.562C131.63 115.436 131.506 115.353 131.369 115.353H129.08C128.942 115.353 128.818 115.436 128.767 115.562ZM131.733 122.791L130.223 119.127L128.715 122.791H131.733Z" fill="white"/>
<path d="M76.6793 83.0809C73.2727 88.6609 69.6311 95.2393 68.3977 100.29C76.973 98.5284 90.1885 89.4832 90.1885 83.5509C90.1885 82.1412 87.6041 80.5554 83.5514 80.5554C82.4354 80.5554 81.1432 80.7903 79.851 81.1427C78.7351 81.8475 77.6778 82.4936 76.6793 83.0809Z" fill="white"/>
<path fill-rule="evenodd" clip-rule="evenodd" d="M161.627 0.0729475L157.707 0.0918753V0.58412L157.536 0.62486C156.431 0.889971 155.326 1.15538 154.232 1.46634C152.132 2.0778 150.069 2.62719 147.902 2.95305C146.455 3.14984 145.197 3.44734 143.85 4.02984L143.849 4.03307L143.848 4.03431L143.847 4.03681C143.724 4.28219 143.663 4.40445 143.628 4.53338C143.595 4.65864 143.589 4.7905 143.575 5.04854L143.575 5.05242L143.579 5.70078L143.582 6.40261L143.588 7.13713L143.599 9.22401L143.603 9.69065C142.1 9.88324 140.664 10.2178 139.201 10.5982C138.704 10.729 138.209 10.8591 137.711 10.9852C136.099 11.3933 134.538 11.81 133.049 12.5624C132.308 12.9706 131.611 13.2779 130.798 13.5209C130.106 13.7114 129.658 13.9327 129.049 14.3324L129.044 14.3358C128.66 14.6032 128.466 14.7385 128.261 14.8592C128.054 14.9824 127.837 15.0904 127.4 15.3082C125.827 16.0942 124.402 16.8817 123.05 18.0127C122.389 18.5986 121.831 19.0417 121.043 19.4481C120.104 19.8953 119.562 20.4199 119.029 21.3046L118.611 21.9968L118.533 22.0837C117.532 23.1868 116.76 24.0386 116.678 25.5963C116.74 26.5678 116.901 27.0768 117.575 27.7807C118.084 28.4499 118.341 28.7878 118.519 29.1629C118.699 29.5435 118.797 29.9624 118.993 30.8041L118.996 30.8178L119.106 31.3494C119.977 31.1504 120.68 30.8264 121.467 30.423C121.788 29.8473 122.334 29.6146 122.933 29.3589C123.072 29.2996 123.214 29.2391 123.357 29.1728C124.178 28.8382 124.998 28.5819 125.858 28.3642C126.445 28.1768 126.97 27.9571 127.53 27.7018C128.918 27.0768 130.346 26.592 131.788 26.104L132.64 25.8118L134.161 25.2968C134.987 25.0201 135.814 24.7482 136.644 24.484C138.951 23.7467 141.101 22.9611 143.227 21.7968C143.227 21.7968 150.238 17.6518 154.232 14.3324C160.704 8.95229 169.084 7.13713 169.084 7.13713C168.742 7.42564 167.924 7.82924 166.671 8.44714C164.318 9.60831 160.429 11.5263 155.282 14.8592C154.859 15.0313 151.974 17.0996 149.168 19.1113L149.166 19.1124C146.531 21.0011 143.967 22.8396 143.575 23.012C141.766 23.7941 132.153 27.5276 130.272 28.1191C127.837 28.8975 125.514 29.7487 123.272 30.9812C122.746 31.257 122.318 31.4417 121.768 31.559C121.475 31.7362 121.186 31.9221 120.899 32.1189C119.928 32.7206 119.442 33.0219 118.941 33.2946C118.437 33.5679 117.918 33.8128 116.88 34.3024L116.879 34.3029L116.632 33.5645C115.429 33.4195 114.628 33.8982 113.662 34.549C112.854 35.2186 112.065 35.746 111.141 36.2411L110.886 36.3771C109.349 37.197 107.842 38.0012 106.471 39.0869C106.293 39.3183 106.172 39.4748 106.088 39.6488C105.912 40.0121 105.894 40.4517 105.837 41.8095C105.826 42.8337 105.812 43.512 105.371 44.443C104.883 45.3546 104.883 45.3546 105.002 47.1013C105.079 47.178 105.134 47.2326 105.198 47.2732C105.356 47.374 105.571 47.3887 106.316 47.4397C106.903 47.4628 106.903 47.4628 107.476 47.5935C108.064 48.0887 108.379 48.3193 109.153 48.4305L109.935 48.4405L110.791 48.4602L112.574 48.4833L113.43 48.5021L113.482 48.5027C114.217 48.5112 114.763 48.5175 115.443 48.8192L115.458 48.8277C115.637 48.9282 115.743 48.9874 115.854 49.0332C116.011 49.0976 116.18 49.1356 116.576 49.2249L116.581 49.226L117.312 49.3471L118.05 49.4721L118.611 49.5625V52.0237L115.469 52.0992L114.188 52.1314L112.297 52.1765L111.7 52.192C111.032 52.2063 110.37 52.2313 109.703 52.2699L109.7 52.2715C109.458 52.4021 109.336 52.4675 109.209 52.5159C109.082 52.5641 108.947 52.5955 108.681 52.658L108.679 52.6583C107.642 52.93 106.837 53.184 105.945 53.7927C104.228 55.124 102.081 56.2895 99.9754 56.8693C99.3742 57.0204 98.8291 57.186 98.2655 57.4449C97.3889 57.8988 96.5102 58.3439 95.6161 58.7612L94.8719 59.1007L93.3717 59.792L93.2143 59.8629C93.1634 59.8165 93.113 59.7713 93.0632 59.7271C91.2314 58.1033 88.1994 56.1972 84.844 56.1972C79.368 56.1972 70.4797 61.7997 70.4797 61.7997C70.4797 61.7997 62.7334 65.9346 57.7371 68.5211C55.4563 69.7019 53.7018 70.8049 52.0508 71.8428C48.8167 73.8759 45.98 75.6591 40.3642 77.2874C39.7575 77.4443 39.3457 77.5509 38.9436 77.686C38.0942 77.9714 37.2882 78.3844 34.7799 79.6694C34.3773 79.8761 33.9752 80.0887 33.5721 80.3019L33.5711 80.3024L33.5686 80.3037L33.5652 80.3055L33.564 80.3061C32.0002 81.1329 30.4213 81.9677 28.743 82.5045L27.7986 82.7891C26.9816 83.2398 26.396 83.5183 25.4609 83.6221L24.5345 83.6274C24.0067 83.6359 22.3274 83.6428 21.2567 83.6472L21.252 83.6472C20.9239 83.6485 20.6533 83.6496 20.4912 83.6505C19.9667 83.6532 19.4424 83.6571 18.9179 83.6655L18.4179 83.6736L18.4083 83.6736C17.439 83.6791 16.8405 83.6826 15.9829 84.1438C15.7159 84.3528 15.5841 84.4559 15.4345 84.5117C15.2888 84.5662 15.1261 84.5757 14.8049 84.5946C14.0935 84.605 13.4164 84.6549 12.7122 84.758C11.2708 85.2731 9.91045 85.9709 9.00053 87.2193C8.98435 87.5411 8.97458 87.7354 9.01438 87.919C9.07495 88.1985 9.25032 88.4533 9.69254 89.0958C10.0807 89.3821 10.3174 89.5568 10.5819 89.6629C10.995 89.8288 11.476 89.8276 12.7083 89.8247L13.5473 89.8035C13.7219 89.8039 13.897 89.8059 14.0714 89.8079C15.287 89.8217 16.4929 89.8354 17.6177 89.3142C18 89.1094 18.1956 89.0047 18.404 88.9419C18.6223 88.8762 18.8546 88.8565 19.3304 88.8162L20.2438 88.7729C20.5433 88.7571 21.4466 88.7418 22.2856 88.7277L22.2906 88.7276L22.2926 88.7276C22.967 88.7163 23.5985 88.7056 23.8395 88.696L21.6202 89.4344L21.1253 89.6805C20.2983 90.4835 19.8029 91.0171 19.7334 92.1879C19.8213 92.7209 19.8592 92.9511 19.9749 93.1323C20.0628 93.2701 20.1956 93.3796 20.4294 93.5723L21.1253 93.8646C21.7092 94.2514 23.6882 94.5195 24.6786 94.6537C24.8048 94.6708 24.9151 94.6858 25.0043 94.6985L26.5058 94.7039L27.3192 94.6952L28.1355 94.7039L28.9656 94.7008C29.7422 94.6983 30.1417 94.6969 30.7888 94.2339C31.0215 94.022 31.1317 93.9217 31.2612 93.8652C31.3776 93.8144 31.5097 93.7991 31.7604 93.7699L32.2816 93.7646L32.8606 93.7482C33.0066 93.7466 33.1508 93.7459 33.2933 93.7452C34.425 93.7398 35.4551 93.7348 36.5278 93.2579C36.8697 93.0467 37.029 92.9483 37.2006 92.8804C37.3504 92.8211 37.5096 92.785 37.8075 92.7176L37.8598 92.7083C38.3877 92.6139 38.9084 92.5209 39.4285 92.3878C40.2198 91.8631 40.7649 91.7944 41.6951 91.7014C42.5944 91.6207 43.4832 91.5314 44.3774 91.4033C44.7587 91.1066 44.9252 90.9771 45.1141 90.9126C45.2604 90.8627 45.4202 90.8519 45.7037 90.8326L46.3831 90.8092L47.1201 90.7803L47.888 90.7573C48.7798 90.7241 49.6715 90.692 50.5635 90.665C50.5819 90.9429 50.5916 91.0893 50.5925 91.2352C50.5935 91.3961 50.5838 91.5571 50.5635 91.8956C49.8881 92.948 49.2048 93.4769 48.12 94.0953C46.6012 94.9544 45.358 95.9507 44.6248 97.5564C45.0364 97.5706 45.448 97.5839 45.8597 97.5925L46.3725 97.6026C46.8639 97.6155 47.1096 97.622 47.355 97.6162C47.6006 97.6105 47.8459 97.5925 48.3365 97.5564C49.5341 96.9957 50.4092 96.7329 51.7359 96.7158L52.3507 96.718C53.2448 96.7069 54.1388 96.6986 55.033 96.695C55.5318 96.693 56.0305 96.6904 56.5292 96.6858C56.0455 98.144 56.2072 99.4218 56.2969 99.9656C56.5454 101.472 57.2312 102.812 57.7371 103.67C58.5659 105.075 59.9583 106.919 61.7836 108.309C62.4616 109.221 63.2961 110.104 64.26 110.771C64.6446 111.037 65.2059 111.378 65.9167 111.64C66.5708 111.88 67.8158 112.225 69.3395 111.932C70.9026 111.631 72.2526 110.75 73.1585 109.507C77.775 108.295 82.7034 105.856 86.7949 102.862L86.8727 102.805C87.2021 103.35 87.5469 103.837 87.8758 104.253C88.5969 105.165 89.5381 106.121 90.6997 106.891C91.8318 107.642 93.5161 108.438 95.5926 108.438C97.2566 108.438 98.4727 107.761 98.8444 107.549C99.383 107.243 99.8262 106.902 100.132 106.65C100.758 106.135 101.376 105.517 101.921 104.939L101.996 104.859C102.466 105.361 102.966 105.79 103.465 106.142C104.383 106.788 105.94 107.628 107.887 107.652C108.784 107.663 110.211 107.493 111.586 106.566C112.296 106.99 113.142 107.38 114.084 107.598C114.735 107.749 116.465 108.069 118.352 107.194C119.427 106.695 120.435 105.852 121.121 104.656C121.487 104.016 121.703 103.379 121.821 102.793C122.564 100.773 123.371 98.9263 124.209 97.2465C124.388 97.3753 124.566 97.494 124.74 97.6025C124.971 97.7462 125.21 97.8825 125.456 98.0095C125.919 99.8994 126.851 101.528 127.832 102.738C128.562 103.639 129.478 104.51 130.566 105.196C131.604 105.85 133.159 106.559 135.063 106.559C137.339 106.559 138.935 105.356 139.403 104.998C140.102 104.463 140.708 103.844 141.165 103.346C141.264 103.238 141.364 103.126 141.466 103.011C142.101 103.723 142.786 104.307 143.444 104.757C144.471 105.459 146.046 106.264 147.923 106.356C148.86 106.402 150.569 106.296 152.191 105.103C152.639 104.774 153.02 104.407 153.341 104.015C155.353 106.054 158.301 107.675 162.081 107.675C166.881 107.675 171.213 105.268 174.567 102.492C174.595 102.528 174.622 102.564 174.65 102.599C174.687 102.646 174.724 102.693 174.761 102.738C175.491 103.639 176.408 104.51 177.495 105.196C178.533 105.85 180.089 106.559 181.992 106.559C184.269 106.559 185.865 105.356 186.332 104.998C187.032 104.463 187.638 103.844 188.094 103.346C188.193 103.238 188.294 103.126 188.395 103.011C189.031 103.723 189.715 104.307 190.373 104.757C190.809 105.054 191.343 105.37 191.956 105.643C191.942 105.657 191.928 105.672 191.914 105.686C191.202 106.424 190.83 107.18 190.648 107.605C190.273 108.486 190.147 109.311 190.096 109.846C189.989 110.994 190.099 112.299 190.497 113.583C190.901 114.888 191.706 116.487 193.239 117.784C194.859 119.152 196.882 119.833 199.025 119.833C209.442 119.833 216.277 111.856 220.087 105.108C222.099 101.543 223.584 97.8013 224.573 94.5051C225.53 91.3148 226.144 88.133 226.144 85.7243C226.144 84.1462 225.766 82.7616 225.194 81.5796C240.011 81.4618 254.86 82.712 269.198 85.7675C276.936 83.2955 279.202 81.9836 279.945 74.5439C279.945 74.3802 279.959 74.2429 279.972 74.1064C280 73.8329 280.028 73.5595 279.945 73.0672C279.945 69.149 268.815 63.1267 266.057 62.8993C265.655 62.8871 265.252 62.8722 264.85 62.8529C264.082 62.2229 263.694 61.9042 263.384 61.5221C263.066 61.1311 262.831 60.6736 262.354 59.7482L262.264 59.5677C261.659 58.3636 261.08 57.2117 260.149 56.2078C259.855 56.1477 259.704 56.117 259.553 56.1156C259.395 56.1141 259.236 56.1449 258.912 56.2078C258.184 56.7001 257.736 56.9391 256.85 57.0417C248.307 57.0649 240.107 56.0459 231.783 54.1236L231.26 54.1312C229.941 54.145 228.796 54.2005 227.656 54.908L227.239 55.2233C226.628 55.6826 226.025 56.1365 225.507 56.7001V57.1923H225.012C223.928 58.084 223.024 59.1127 222.259 60.2842C220.774 62.6258 218.838 63.7532 216.801 64.9396C215.531 65.679 214.222 66.4416 212.958 67.5352C210.95 69.2719 204.577 68.619 207.902 65.7239C208.245 65.4248 208.588 65.1245 208.928 64.8221C209.331 64.4029 209.741 63.9898 210.165 63.5915L210.223 63.5646C210.937 63.2336 211.551 62.9488 212.124 62.3965L212.219 62.2952L212.34 62.1673C213.008 61.4554 213.607 60.8179 214.558 60.4534C215.003 60.2831 215.201 60.2071 215.374 60.0923C215.513 59.9997 215.636 59.8818 215.857 59.6689C216.085 59.4133 216.209 59.2746 216.353 59.1601C216.524 59.0241 216.722 58.9224 217.156 58.6998C217.654 58.4311 218.11 58.1576 218.566 57.8211C219.408 57.1662 220.217 56.5902 221.177 56.1155L222.043 55.7156L222.043 55.2232C222.445 55.0899 222.629 55.0288 222.804 54.9474C222.952 54.8787 223.093 54.7954 223.352 54.6417C223.823 54.3589 224.304 54.0942 224.793 53.8437L225.584 53.4543L226.386 53.0592L226.992 52.7621V52.0237C226.067 50.6448 224.423 49.8975 222.862 49.3933C222.505 49.2918 222.149 49.1833 221.795 49.0703C220.556 48.4587 219.612 48.2348 218.227 48.2166L217.542 48.2242C215.277 48.2418 213.155 48.5032 210.95 49.0107C210.309 49.1642 209.668 49.3169 209.024 49.4604C205.587 50.2174 202.193 51.1274 198.801 52.0618L198.102 52.2545C195.409 52.9922 192.739 53.7647 190.092 54.6561C188.566 55.171 187.049 55.6664 185.482 56.0459C185.029 56.1507 184.576 56.2578 184.124 56.3664L183.352 56.552C182.324 56.7969 181.298 57.0477 180.273 57.3061C174.556 58.7508 168.881 60.0929 163.032 60.9072C162.253 61.0143 161.475 61.1221 160.697 61.236C159.762 61.3756 158.897 61.476 158.006 61.5795C156.924 61.705 155.805 61.8349 154.48 62.0442C150.004 62.7507 146.756 63.7135 143.349 64.7237C140.73 65.5002 138.016 66.3047 134.577 67.0422C127.044 68.6635 107.97 70.9859 97.6056 70.9859C98.0127 68.5211 98.2211 66.8401 97.1127 64.5775C96.5897 63.51 96.0482 62.9158 95.3527 62.1525C95.2003 61.9853 95.0405 61.8099 94.8719 61.6197L105.79 63.1442L106.313 63.145C107.195 63.1448 108.076 63.1456 108.959 63.1499C108.681 63.1487 113.482 62.6056 113.482 62.6056L136.644 51.0219L142.632 46.106C143.259 45.5915 143.937 45.1427 144.656 44.7669L160.697 36.3771L146.864 46.8532C146.233 47.331 145.556 47.7443 144.843 48.0869L136.644 52.0237L122.746 61.1268L120.282 62.898C120.881 62.737 121.799 62.7002 122.621 62.6674C123.033 62.6509 123.421 62.6354 123.732 62.6056C125.289 62.5184 126.142 62.3875 127.676 62.1127C128.091 62.0365 128.757 61.9283 129.388 61.8258L129.389 61.8256L129.391 61.8254L129.394 61.8249C129.868 61.7479 130.322 61.6741 130.634 61.6197L133.099 61.1268C136.605 60.5162 139.676 59.8934 142.649 59.2903C147.412 58.3243 151.925 57.4089 157.579 56.676C160.644 56.2794 163.705 55.8656 166.765 55.4378L180.008 53.5774C182.706 53.2001 185.402 52.8128 188.092 52.3787L188.883 52.2497C190.682 51.9606 192.38 51.616 194.104 51.0219L196.061 50.3009V49.5625C194.912 49.0693 193.853 48.7608 192.613 48.578C191.515 48.4268 190.427 48.2581 189.339 48.0597C188.354 47.8798 187.371 47.7157 186.385 47.5717C185.741 47.4778 185.095 47.3924 184.447 47.3166C184.313 47.3017 184.181 47.2889 184.052 47.2762C183.404 47.2133 182.808 47.1553 182.204 46.8552C182.171 46.3146 182.156 46.0893 182.203 45.8771C182.235 45.7257 182.299 45.581 182.408 45.3332L182.408 45.3322L182.694 44.7458L183.009 44.0839C183.951 42.1291 184.827 40.1865 185.483 38.1178C186.002 36.4797 186.603 34.9164 187.303 33.3463C187.561 32.7731 187.814 32.1989 188.063 31.6215L188.391 30.8572L190.214 30.7817C191.052 30.7454 191.178 30.6701 191.568 30.4375C191.726 30.3433 191.927 30.2233 192.236 30.0697V29.5775C192.023 29.3029 191.831 29.1144 191.607 28.9601C191.244 28.708 191.142 28.5752 191.072 28.4848C190.977 28.3602 190.942 28.3157 190.37 28.1498L190.281 28.1309L190.257 28.1257C189.568 27.9775 188.881 27.8297 188.198 27.6518C187.561 27.3735 187.399 27.1907 187.122 26.5654L186.906 25.6886C186.813 25.3631 186.725 25.0358 186.658 24.7041L186.662 24.7015C187.044 24.4195 187.212 24.2957 187.398 24.2128C187.544 24.148 187.7 24.108 187.98 24.0369L188.116 24.0024C188.995 23.7801 189.723 23.5954 190.447 23.012L190.865 22.489L191.503 21.9968C192.244 21.0834 192.244 20.5775 192.236 19.4365L192.21 18.7664L192.21 18.6849L192.209 18.4682L192.209 18.4464C192.207 17.7401 192.205 17.0363 192.102 16.336L191.607 15.5976L191.55 15.4719C191.261 14.8378 190.995 14.2527 190.496 13.7459C189.543 12.8162 189.278 12.1844 189.179 10.8444L189.174 10.5216C189.167 9.9567 189.16 9.4992 188.885 8.95229C188.327 8.36156 187.921 7.98973 187.089 7.92273L186.488 7.93895L185.882 7.95157L185.421 7.9678C185.402 7.42159 185.381 6.87557 185.357 6.32954L185.328 5.6604L185.305 4.99702L185.276 4.36249C185.264 4.0439 185.258 3.89854 185.242 3.75421C185.231 3.64637 185.214 3.53911 185.185 3.36059L185.185 3.3595L185.185 3.35848L185.184 3.35742L185.174 3.29147L184.679 2.79922L184.561 2.5257C184.265 1.83336 184.074 1.3854 183.302 1.03022L182.699 0.830243C182.445 0.450964 182.321 0.266493 182.202 0.164462C182.088 0.0680284 181.976 0.0451396 181.761 0.00108996L181.215 0.00306451L180.588 0L179.899 0.00805186C179.138 0.00769133 178.377 0.00847248 177.615 0.0138204L175.98 0.0218121C174.553 0.023735 173.127 0.0281815 171.701 0.0361733C170.222 0.0445256 168.743 0.0497533 167.264 0.053599C165.385 0.0583459 163.506 0.0648956 161.627 0.0729475ZM190.839 111.533C190.834 111.514 190.833 111.511 190.838 111.532L190.839 111.533ZM83.9626 78.1472C88.9551 78.852 92.1855 81.6125 92.1855 84.5493C92.1855 94.6517 76.5618 103.932 67.9864 104.402C68.0535 104.872 68.1974 105.111 68.3083 105.296C68.3916 105.435 68.4563 105.543 68.4563 105.694C68.4563 106.751 67.0466 105.753 66.0482 104.049C63.5813 102.699 61.1144 98.2934 62.524 98.2934C63.2293 98.2934 63.3458 98.7068 63.4809 99.1865C63.6384 99.7455 63.8213 100.394 64.9909 100.584C64.9909 96.59 67.3403 90.4229 70.1009 84.6081C69.6898 83.9032 69.3374 83.0222 69.6311 82.7285C69.7094 82.6502 70.0486 82.4676 70.6139 82.1631C70.8968 82.0108 71.2363 81.828 71.6281 81.6125C75.1522 74.7992 78.97 69.0432 79.9098 69.0432C82.4354 69.0432 83.9038 71.275 83.9038 71.9212C83.9038 72.0029 83.3642 72.7947 82.5021 74.0595C82.1245 74.6135 81.6851 75.2583 81.202 75.9739C85.3722 73.1547 89.0138 69.748 89.0138 66.635C89.0138 65.3428 88.4266 64.7554 87.3693 64.7554C78.9701 64.7554 70.4535 74.2706 70.4535 74.858C70.4535 74.9549 70.4713 74.9985 70.4873 75.0377C70.5004 75.0697 70.5122 75.0988 70.5122 75.1516C70.5122 75.739 68.339 74.3294 68.339 72.3911C68.339 70.629 77.7954 62.1124 84.8436 62.1124C87.3692 62.1124 91.5394 65.4603 91.5394 68.397C91.5394 71.3338 88.0741 74.9754 83.9626 78.1472ZM111.04 81.965C112.919 81.965 114.622 84.4319 114.622 85.1954C114.622 85.3675 114.241 85.9598 113.664 86.8551C111.878 89.6268 108.22 95.3027 108.22 100.408C108.22 100.711 108.297 100.86 108.363 100.987C108.412 101.081 108.455 101.164 108.455 101.289C108.455 102.523 105.283 101.113 105.283 98.2348C105.283 95.533 106.869 90.8929 108.396 87.2513C104.52 92.5374 96.9431 102.522 95.5921 102.522C93.419 102.522 91.0695 99.1158 91.0695 97.2363C91.0695 90.3055 99.7036 77.3837 100.291 77.3837C101.524 77.3837 103.991 78.9695 103.991 80.2617C103.991 80.6846 103.016 82.3652 101.705 84.6266C99.008 89.2761 94.8873 96.3805 94.8873 100.055C94.8873 100.349 94.946 100.525 95.0635 100.525C95.9891 100.525 99.6619 95.7292 103.273 91.013C106.766 86.4516 110.202 81.965 111.04 81.965ZM132.243 75.6216C133.007 75.6216 134.945 77.0312 134.945 78.4409C134.945 78.5182 134.668 78.977 134.235 79.6933C132.697 82.2426 129.189 88.0539 129.189 91.5387C129.189 92.2131 129.344 92.3648 129.476 92.4939C129.573 92.5897 129.659 92.6731 129.659 92.9483C129.659 93.5357 126.076 92.5372 126.076 89.4829C126.076 87.3685 127.309 83.9031 128.66 80.9663C125.43 84.0793 119.85 90.6577 116.032 101.406V101.524C116.032 102.757 112.097 100.467 112.097 97.6472C112.097 97.2242 112.839 95.2233 113.761 92.7383C115.272 88.6671 117.265 83.2964 117.265 81.4363C117.265 80.5865 117.126 80.2945 117.023 80.0779C116.962 79.9501 116.913 79.8485 116.913 79.6742C116.913 78.8519 121.377 80.3791 121.377 84.0206C121.377 85.1366 120.613 87.6623 119.674 90.4816C122.434 85.5478 126.663 79.2631 132.008 75.6216V75.6803C132.067 75.6216 132.184 75.6216 132.243 75.6216ZM151.279 88.505C149.817 90.7282 147.632 94.0514 147.632 97.7648C147.632 99.2083 148.276 99.5471 148.633 99.7348C148.77 99.8068 148.865 99.8566 148.865 99.938C148.865 101.407 144.695 99.5857 144.695 96.0616C144.695 93.2422 145.928 89.7768 146.633 88.0735C143.93 90.4532 141.448 93.597 139.436 96.1451C137.425 98.6914 135.884 100.643 135.062 100.643C133.359 100.643 131.068 97.9999 131.068 95.533C131.068 91.1865 139.467 77.325 143.755 77.325C146.809 77.325 148.748 80.0269 149.746 81.7302C150.04 82.1413 149.511 82.8461 149.041 82.3175L148.979 82.2467C148.129 81.2831 147.488 80.5554 146.398 80.5554C144.107 80.5554 135.708 93.1248 135.708 97.1188C135.708 97.295 135.767 97.5299 136.002 97.5299C136.299 97.5299 137.825 95.7116 139.777 93.3865C143.238 89.2649 148.035 83.5509 149.687 83.5509C150.51 83.5509 152.565 84.6082 152.565 86.0765C152.565 86.548 152.013 87.3876 151.279 88.505ZM158.087 93.8295C158.087 93.8295 166.486 79.9092 174.826 79.9092C176.882 79.9092 178.996 83.8446 178.996 85.5478C178.996 89.953 170.127 101.759 162.081 101.759C157.675 101.759 155.561 97.6474 155.561 95.5329C155.561 95.1805 156.559 94.9455 156.559 95.5329C156.559 96.4726 157.323 97.1187 159.614 97.1187C167.073 97.1187 174.65 86.194 174.65 82.1412C174.65 81.965 174.532 81.8475 174.239 81.8475C170.115 81.8475 163.525 90.5379 160.669 94.3046C160.026 95.1518 159.573 95.7499 159.379 95.944C158.321 97.0011 154.621 94.0645 154.621 90.7165C154.621 82.7285 165.487 66.8699 166.133 66.8699C168.306 66.8699 170.656 69.513 170.01 70.1591C168.306 71.8625 158.087 86.6051 158.087 93.8295ZM198.208 88.505C196.746 90.7282 194.561 94.0514 194.561 97.7648C194.561 99.2083 195.206 99.5471 195.563 99.7348C195.7 99.8068 195.795 99.8566 195.795 99.938C195.795 101.407 191.624 99.5857 191.624 96.0616C191.624 93.2422 192.858 89.7768 193.563 88.0735C190.86 90.4532 188.378 93.5969 186.365 96.1451C184.355 98.6914 182.814 100.643 181.992 100.643C180.289 100.643 177.998 97.9999 177.998 95.533C177.998 91.1865 186.397 77.325 190.685 77.325C193.739 77.325 195.677 80.0269 196.676 81.7302C196.969 82.1413 196.441 82.8461 195.971 82.3175L195.908 82.2466C195.059 81.2831 194.417 80.5554 193.328 80.5554C191.037 80.5554 182.638 93.1248 182.638 97.1188C182.638 97.295 182.697 97.5299 182.932 97.5299C183.228 97.5299 184.755 95.7116 186.707 93.3865C190.167 89.2649 194.965 83.5509 196.617 83.5509C197.439 83.5509 199.495 84.6082 199.495 86.0765C199.495 86.548 198.943 87.3876 198.208 88.505ZM216.293 82.7873C216.352 82.5523 216.352 82.3174 216.352 82.0825C216.352 80.849 220.229 82.7285 220.229 85.724C220.229 92.0675 213.18 113.917 199.025 113.917C195.56 113.917 195.736 109.747 196.264 109.747C196.484 109.747 196.515 109.862 196.553 110.006C196.618 110.247 196.703 110.569 197.733 110.569C201.668 110.569 205.838 107.162 209.186 102.405C204.311 104.461 200.024 107.339 198.026 108.807C197.263 109.277 197.322 108.807 197.615 108.455C198.085 107.867 198.79 107.162 199.436 106.693C203.489 103.403 208.188 100.76 210.772 99.9968C213.357 95.7091 215.295 90.6579 216 85.959C213.063 90.1293 204.84 99.7032 203.195 99.7032C201.316 99.7032 198.438 96.7077 198.438 95.7091C198.438 95.4386 198.994 94.413 199.806 92.9178C201.988 88.8959 206.015 81.4755 206.015 76.209C206.015 75.7647 205.838 75.362 205.699 75.0443C205.507 74.6059 205.386 74.3295 205.897 74.3295C207.601 74.3295 209.95 76.4439 209.95 78.9695C209.95 85.078 202.079 98.3522 202.079 98.3522C204.135 98.3522 213.885 85.959 216.293 82.7873Z" fill="white"/>
<path d="M11.4753 93.3723C10.5188 92.6291 9.98573 92.548 8.78332 92.5359C8.37411 92.6124 8.11702 92.7985 7.85673 92.987C7.56996 93.1947 7.27932 93.4052 6.77706 93.4748L5.88261 93.4896C5.39106 93.5013 4.89949 93.5129 4.40785 93.5197C3.89736 93.5262 3.38698 93.5352 2.87655 93.5454L1.90803 93.5665C1.3852 93.5742 0.862253 93.5884 0.340237 93.6184C0.241564 93.7166 0.182239 93.7756 0.140687 93.8452C0.0780366 93.9502 0.0557896 94.0793 0 94.403C0.106878 95.2003 0.412243 95.5961 0.93855 96.196L1.33002 96.5719C2.21109 97.4461 2.83949 97.6695 4.08427 97.6865L4.66472 97.6804C5.28701 97.6877 5.90909 97.6944 6.53143 97.6953C7.17543 97.6948 7.81939 97.6957 8.46338 97.6982L9.69094 97.7112C9.82231 97.7102 9.95234 97.7066 10.0809 97.7031C10.8415 97.6824 11.5507 97.663 12.1803 98.1736L12.465 98.5409C12.8055 98.5732 12.9678 98.5885 13.1295 98.5869C13.2762 98.5855 13.4228 98.5701 13.7022 98.5409C13.9495 98.2949 13.9497 98.2947 13.9817 97.8641L13.9835 96.7104L13.9806 96.0797L13.9835 95.449L13.9826 94.8491C13.9821 94.5207 13.974 94.192 13.9497 93.8646C13.7023 93.6184 13.7023 93.6184 13.2257 93.5665C12.6342 93.5261 12.0594 93.4745 11.4753 93.3723Z" fill="white"/>
<path d="M38.9648 94.5876L39.7864 94.5943L40.4186 94.603C40.4186 95.665 40.2648 95.9697 39.7226 96.8488L39.3312 97.4968C38.9339 98.0487 38.9339 98.0487 38.1916 98.5409C37.4735 98.5833 36.7798 98.598 36.0622 98.589L35.4329 98.5869C34.7698 98.5841 34.1068 98.5779 33.4437 98.5717C32.9941 98.5692 32.5445 98.567 32.0948 98.565C30.9928 98.5595 29.8907 98.551 28.7887 98.5409L29.0361 97.8026L29.0374 97.8021C29.2688 97.7218 29.3979 97.6771 29.5291 97.6399C29.694 97.5931 29.8624 97.5582 30.2418 97.4796C31.5778 97.1547 32.6233 96.6202 33.8071 95.9384C34.6654 95.4907 35.5264 95.228 36.4604 94.9827C37.3834 94.733 37.9691 94.577 38.9648 94.5876Z" fill="white"/>
</svg>
