<svg width="73" height="73" viewBox="0 0 73 73" fill="none" xmlns="http://www.w3.org/2000/svg">
<path d="M52.1217 5.21032C54.0537 4.14448 56.4694 5.2172 56.9742 7.36515L59.511 18.158C59.7865 19.33 60.6729 20.2622 61.8295 20.5964L72.4808 23.6739C74.6006 24.2863 75.5502 26.753 74.3884 28.6288L68.5505 38.0543C67.9165 39.0778 67.8841 40.3637 68.4657 41.4179L73.8212 51.1256C74.887 53.0576 73.8143 55.4733 71.6663 55.9782L60.8735 58.515C59.7015 58.7905 58.7693 59.6768 58.4351 60.8334L55.3577 71.4847C54.7452 73.6045 52.2785 74.5541 50.4027 73.3923L40.9772 67.5544C39.9537 66.9205 38.6678 66.8881 37.6136 67.4696L27.9059 72.8251C25.9739 73.891 23.5582 72.8182 23.0533 70.6703L20.5165 59.8774C20.241 58.7054 19.3547 57.7732 18.1981 57.4391L7.54676 54.3616C5.42698 53.7491 4.47736 51.2824 5.63919 49.4066L11.4771 39.9811C12.111 38.9576 12.1434 37.6717 11.5619 36.6175L6.20638 26.9098C5.14054 24.9778 6.21326 22.5621 8.36122 22.0573L19.1541 19.5205C20.3261 19.245 21.2583 18.3586 21.5924 17.202L24.6699 6.5507C25.2824 4.43092 27.7491 3.48129 29.6249 4.64313L39.0504 10.481C40.0739 11.115 41.3598 11.1474 42.414 10.5658L52.1217 5.21032Z" stroke="white" stroke-width="3.99794"/>
<path d="M27.8379 33.6025L32.2401 48.316L58.452 34.4384" stroke="white" stroke-width="3.99794" stroke-linecap="round" stroke-linejoin="round"/>
</svg>
