<svg width="18" height="16" viewBox="0 0 18 16" fill="none" xmlns="http://www.w3.org/2000/svg">
<path fill-rule="evenodd" clip-rule="evenodd" d="M3.71549 3.58741C3.71527 3.58756 3.71571 3.58727 3.71549 3.58741L1.28516 1.53906L0 3.07896L2.14844 4.88974C1.3125 5.74066 0.578125 6.77708 0 7.99948C2.5 13.2787 7.83594 15.0919 12.2852 13.4382L15.3203 15.9993L16.6055 14.4594L14.2266 12.4518C14.2265 12.4519 14.2267 12.4518 14.2266 12.4518L12.618 11.095C12.6178 11.0953 12.6175 11.0956 12.6172 11.096L11.1602 9.86767C11.1605 9.86725 11.1609 9.86683 11.1612 9.86642L6.79399 6.18352C6.79365 6.18394 6.79331 6.18435 6.79297 6.18477L5.33984 4.95746C5.33981 4.95751 5.33988 4.95742 5.33984 4.95746L3.71549 3.58741ZM4.25 7.99997C4.25 7.58285 4.30078 7.178 4.40234 6.79229L6.16016 8.27527C6.29688 9.72782 7.51953 10.8643 9 10.8643C9.07422 10.8643 9.14844 10.8619 9.22266 10.856L10.9844 12.3409C10.3828 12.6197 9.70703 12.7752 9 12.7752C6.375 12.7752 4.25 10.6371 4.25 7.99997Z" fill="#999999"/>
<path d="M8.68243 5.15215L11.8461 7.82005C11.7539 6.32109 10.5143 5.13462 9 5.13462C8.89262 5.13462 8.78666 5.14056 8.68243 5.15215Z" fill="#999999"/>
<path d="M13.5776 9.28025C13.69 8.8728 13.75 8.44344 13.75 7.99997C13.75 5.3628 11.625 3.22471 9 3.22471C8.26597 3.22471 7.57076 3.39222 6.95017 3.69133L5.64291 2.58892C10.1042 0.887869 15.4856 2.69155 18 7.99997C17.4099 9.24617 16.6625 10.2992 15.8056 11.1591L13.5776 9.28025Z" fill="#999999"/>
</svg>
