<svg width="24" height="24" viewBox="0 0 24 24" fill="none" xmlns="http://www.w3.org/2000/svg">
<path fill-rule="evenodd" clip-rule="evenodd" d="M2.43995 2.43995C1.85335 3.02655 1.85335 3.97762 2.43995 4.56422L9.87766 12.0019L2.44363 19.4359C1.85703 20.0225 1.85703 20.9736 2.44363 21.5602C3.03023 22.1468 3.9813 22.1468 4.5679 21.5602L12.0019 14.1262L19.4341 21.5583C20.0207 22.1449 20.9717 22.1449 21.5583 21.5583C22.1449 20.9717 22.1449 20.0207 21.5583 19.4341L14.1262 12.0019L21.562 4.56608C22.1486 3.97948 22.1486 3.02842 21.562 2.44182C20.9754 1.85522 20.0244 1.85522 19.4378 2.44182L12.0019 9.87766L4.56422 2.43995C3.97762 1.85335 3.02655 1.85335 2.43995 2.43995Z" fill="#0A7D9E"/>
</svg>
