<svg width="122" height="107" viewBox="0 0 122 107" fill="none" xmlns="http://www.w3.org/2000/svg">
<path d="M62.1838 28C63.8544 28 65.2032 29.3647 65.1836 31.0352L64.7197 70.5938C64.7004 72.2368 63.363 73.5586 61.7199 73.5586H60.7843C59.1422 73.5586 57.8052 72.2384 57.7845 70.5965L57.2849 31.0379C57.2638 29.3663 58.613 28 60.2847 28H62.1838ZM57 87.4223C57 86.1144 57.3699 85.01 58.1096 84.109C58.8767 83.208 60 82.7575 61.4795 82.7575C62.9315 82.7575 64.0411 83.208 64.8082 84.109C65.6027 85.01 66 86.1144 66 87.4223C66 88.6721 65.6027 89.7475 64.8082 90.6485C64.0411 91.5495 62.9315 92 61.4795 92C60 92 58.8767 91.5495 58.1096 90.6485C57.3699 89.7475 57 88.6721 57 87.4223Z" fill="#FF4545"/>
<path d="M54.2999 6.24619C57.1721 1.25127 64.3436 1.25127 67.2157 6.24619L117.241 93.2462C120.125 98.2614 116.51 104.5 110.784 104.5H10.7321C5.00542 104.5 1.39044 98.2614 4.27424 93.2462L54.2999 6.24619Z" stroke="#FF4545" stroke-width="5"/>
</svg>
