<svg width="24" height="25" viewBox="0 0 24 25" fill="none" xmlns="http://www.w3.org/2000/svg">
<g clip-path="url(#clip0_1916_13678)">
<path d="M11.0007 4.03125H4.00016C3.46969 4.03125 2.96094 4.24196 2.58583 4.61704C2.21073 4.99212 2 5.50083 2 6.03126V20.0314C2 20.5618 2.21073 21.0705 2.58583 21.4456C2.96094 21.8207 3.46969 22.0314 4.00016 22.0314H18.0013C18.5318 22.0314 19.0405 21.8207 19.4156 21.4456C19.7907 21.0705 20.0015 20.5618 20.0015 20.0314V13.0313" stroke="#0A7D9E" stroke-width="2" stroke-linecap="round" stroke-linejoin="round"/>
<path d="M18.5009 2.52757C18.8987 2.12975 19.4383 1.90625 20.001 1.90625C20.5636 1.90625 21.1033 2.12975 21.5011 2.52757C21.899 2.9254 22.1225 3.46497 22.1225 4.02758C22.1225 4.5902 21.899 5.12977 21.5011 5.52759L12.0003 15.0277L8 16.0277L9.00008 12.0276L18.5009 2.52757Z" stroke="#0A7D9E" stroke-width="2" stroke-linecap="round" stroke-linejoin="round"/>
</g>
<defs>
<clipPath id="clip0_1916_13678">
<rect width="24.002" height="24.0002" fill="white" transform="translate(0 0.03125)"/>
</clipPath>
</defs>
</svg>
