<svg width="27" height="31" viewBox="0 0 27 31" fill="none" xmlns="http://www.w3.org/2000/svg">
<path d="M1.64648 15.7626C4.79615 13.6627 4.76228 12.444 8.14902 8.78633C11.5358 5.12863 16.1756 6.68648 17.4626 7.49921" stroke="white" stroke-width="1.5" stroke-linecap="round"/>
<path d="M10.2148 4.54996C17.7673 1.57211 24.1682 8.48087 25.0488 13.0196C25.9293 17.5583 22.9828 19.5898 25.3197 21.5176" stroke="white" stroke-width="1.5" stroke-linecap="round"/>
<path d="M3.7124 5.5341C7.48297 1.62806 17.09 -3.4814 25.3537 7.32907" stroke="white" stroke-width="1.5" stroke-linecap="round"/>
<path d="M2.08667 11.4261C2.46784 10.7689 3.74617 9.96983 4.45739 8.7506C5.1686 7.53138 6.68885 6.37099 8.01346 5.5332" stroke="white" stroke-width="1.5" stroke-linecap="round"/>
<path d="M19.6299 8.98828C25.9631 15.5247 18.4107 18.8437 23.7956 24.1947" stroke="white" stroke-width="1.5" stroke-linecap="round"/>
<path d="M22.2039 26.5995C21.6056 25.8996 20.3615 24.3033 20.1719 23.5176" stroke="white" stroke-width="1.5" stroke-linecap="round"/>
<path d="M1.68042 19.352C9.67312 14.2722 8.21682 9.39499 13.3647 9.36151C18.5125 9.32802 20.5784 14.0348 18.4109 18.8779C16.2434 23.7209 19.9349 28.6656 19.9349 28.6656" stroke="white" stroke-width="1.5" stroke-linecap="round"/>
<path d="M2.96729 22.8749C3.74623 22.4459 5.64281 21.0596 6.72656 19.8945" stroke="white" stroke-width="1.5" stroke-linecap="round"/>
<path d="M8.45386 18.2349C11.2649 15.153 10.96 10.8857 14.8209 12.613C18.6818 14.3402 15.1596 19.0478 15.1596 19.0478" stroke="white" stroke-width="1.5" stroke-linecap="round"/>
<path d="M4.25439 25.7872C6.4332 24.6245 11.3598 20.9239 13.6357 15.4238" stroke="white" stroke-width="1.5" stroke-linecap="round"/>
<path d="M6.69263 28.2264C10.7567 25.6856 14.3718 18.3768 15.4304 22.4343C15.8368 23.992 13.3306 25.9911 13.3306 25.9911" stroke="white" stroke-width="1.5" stroke-linecap="round"/>
<path d="M9.57153 29.4115C10.1021 29.0163 11.2107 28.1313 11.4004 27.752" stroke="white" stroke-width="1.5" stroke-linecap="round"/>
<path d="M12.6873 30.1562C15.3966 28.158 16.0063 26.7696 16.0063 27.2437C16.0063 27.7177 16.8394 29.6144 17.4626 30.1562" stroke="white" stroke-width="1.5" stroke-linecap="round"/>
</svg>
