<svg width="24" height="24" viewBox="0 0 24 24" fill="none" xmlns="http://www.w3.org/2000/svg">
<path d="M23.7622 12.2749C23.7622 11.4239 23.6858 10.6058 23.544 9.82031H12.2422V14.4676H18.7004C18.4167 15.9621 17.5658 17.2276 16.2895 18.0785V21.1003H20.184C22.4531 19.0058 23.7622 15.9294 23.7622 12.2749Z" fill="#4285F4"/>
<path d="M12.244 23.9982C15.484 23.9982 18.2003 22.9291 20.1858 21.0963L16.2913 18.0745C15.2222 18.7945 13.8585 19.2309 12.244 19.2309C9.12398 19.2309 6.47307 17.1254 5.52398 14.2891H1.53125V17.3872C3.5058 21.3036 7.55307 23.9982 12.244 23.9982Z" fill="#34A853"/>
<path d="M5.52219 14.2832C5.28219 13.5632 5.14037 12.7995 5.14037 12.0032C5.14037 11.2068 5.28219 10.4432 5.52219 9.72318V6.625H1.52946C0.711278 8.23955 0.242188 10.0614 0.242188 12.0032C0.242188 13.945 0.711278 15.7668 1.52946 17.3814L4.63855 14.9595L5.52219 14.2832Z" fill="#FBBC05"/>
<path d="M12.244 4.77818C14.0113 4.77818 15.5822 5.38909 16.8367 6.56727L20.2731 3.13091C18.1894 1.18909 15.484 0 12.244 0C7.55307 0 3.5058 2.69455 1.53125 6.62182L5.52398 9.72C6.47307 6.88364 9.12398 4.77818 12.244 4.77818Z" fill="#EA4335"/>
</svg>
