<svg width="24" height="24" viewBox="0 0 24 24" fill="none" xmlns="http://www.w3.org/2000/svg">
<path d="M13.0996 7C13.0996 7.60742 12.6074 8.09961 12 8.09961C11.3926 8.09961 10.9004 7.60742 10.9004 7C10.9004 6.39258 11.3926 5.90039 12 5.90039C12.6074 5.90039 13.0996 6.39258 13.0996 7Z" fill="white"/>
<path d="M10.5 9.30078C10.2246 9.30078 10 9.52539 10 9.80078C10 10.0762 10.2246 10.3008 10.5 10.3008H11.3008V17H9.5C9.22461 17 9 17.2246 9 17.5C9 17.7754 9.22461 18 9.5 18H14.5C14.7754 18 15 17.7754 15 17.5C15 17.2246 14.7754 17 14.5 17H12.7012V10C12.7012 9.61328 12.3867 9.30078 12 9.30078H10.5Z" fill="white"/>
<path fill-rule="evenodd" clip-rule="evenodd" d="M23 12C23 18.0742 18.0742 23 12 23C5.92578 23 1 18.0742 1 12C1 5.92578 5.92578 1 12 1C18.0742 1 23 5.92578 23 12ZM21.8008 12C21.8008 17.4121 17.4121 21.8008 12 21.8008C6.58789 21.8008 2.19922 17.4121 2.19922 12C2.19922 6.58789 6.58789 2.19922 12 2.19922C17.4121 2.19922 21.8008 6.58789 21.8008 12Z" fill="white"/>
</svg>
