<svg width="162" height="162" viewBox="0 0 162 162" fill="none" xmlns="http://www.w3.org/2000/svg">
<path fill-rule="evenodd" clip-rule="evenodd" d="M81 162C125.735 162 162 125.735 162 81C162 36.2649 125.735 0 81 0C36.2649 0 0 36.2649 0 81C0 125.735 36.2649 162 81 162ZM80.9981 30.375C77.772 30.375 75.1567 32.9903 75.1567 36.2163V94.6298C75.1567 97.8559 77.772 100.471 80.9981 100.471C84.2242 100.471 86.8394 97.8559 86.8394 94.6298V36.2163C86.8394 32.9903 84.2242 30.375 80.9981 30.375ZM80.9981 116.048C76.1589 116.048 72.236 119.971 72.236 124.81C72.236 129.649 76.1589 133.572 80.9981 133.572C85.8372 133.572 89.7601 129.649 89.7601 124.81C89.7601 119.971 85.8372 116.048 80.9981 116.048Z" fill="url(#paint0_linear_2832_26918)"/>
<defs>
<linearGradient id="paint0_linear_2832_26918" x1="35.9749" y1="-120.6" x2="211.221" y2="-90.2036" gradientUnits="userSpaceOnUse">
<stop stop-color="#2A9DBE"/>
<stop offset="1" stop-color="#035F7C"/>
</linearGradient>
</defs>
</svg>
