<svg width="18" height="12" viewBox="0 0 18 12" fill="none" xmlns="http://www.w3.org/2000/svg">
<path fill-rule="evenodd" clip-rule="evenodd" d="M0 5.99989C3.80845 -2.00011 14.1916 -1.99957 18 6.00043C14.1916 14.0004 3.80845 13.9999 0 5.99989ZM9 10.7512C11.6234 10.7512 13.75 8.62399 13.75 5.99989C13.75 3.3758 11.6234 1.24855 9 1.24855C6.37665 1.24855 4.25 3.3758 4.25 5.99989C4.25 8.62399 6.37665 10.7512 9 10.7512Z" fill="#999999"/>
<path d="M11.85 5.99943C11.85 7.57389 10.574 8.85024 9 8.85024C7.42599 8.85024 6.15 7.57389 6.15 5.99943C6.15 4.42497 7.42599 3.14862 9 3.14862C10.574 3.14862 11.85 4.42497 11.85 5.99943Z" fill="#999999"/>
</svg>
