<svg width="44" height="44" viewBox="0 0 44 44" fill="none" xmlns="http://www.w3.org/2000/svg">
<rect x="0.5" y="0.5" width="43" height="43" rx="7.5" stroke="#FF891C"/>
<path d="M32.4994 27.4201V30.4201C32.5006 30.6986 32.4435 30.9743 32.332 31.2294C32.2204 31.4846 32.0567 31.7137 31.8515 31.902C31.6463 32.0902 31.404 32.2336 31.1402 32.3228C30.8764 32.412 30.5968 32.4452 30.3194 32.4201C27.2423 32.0857 24.2864 31.0342 21.6894 29.3501C19.2733 27.8148 17.2248 25.7663 15.6894 23.3501C13.9994 20.7413 12.9477 17.7711 12.6194 14.6801C12.5945 14.4036 12.6273 14.1249 12.7159 13.8617C12.8046 13.5986 12.947 13.3568 13.1342 13.1517C13.3214 12.9466 13.5492 12.7828 13.8032 12.6706C14.0572 12.5584 14.3318 12.5004 14.6094 12.5001H17.6094C18.0948 12.4953 18.5652 12.6672 18.9332 12.9836C19.3012 13.3001 19.5415 13.7395 19.6094 14.2201C19.7361 15.1802 19.9709 16.1228 20.3094 17.0301C20.444 17.388 20.4731 17.777 20.3934 18.151C20.3136 18.5249 20.1283 18.8682 19.8594 19.1401L18.5894 20.4101C20.013 22.9136 22.0859 24.9865 24.5894 26.4101L25.8594 25.1401C26.1313 24.8712 26.4746 24.6859 26.8486 24.6062C27.2225 24.5264 27.6115 24.5556 27.9694 24.6901C28.8767 25.0286 29.8194 25.2635 30.7794 25.3901C31.2652 25.4586 31.7088 25.7033 32.026 26.0776C32.3431 26.4519 32.5116 26.9297 32.4994 27.4201Z" stroke="#FF891C" stroke-width="2" stroke-linecap="round" stroke-linejoin="round"/>
</svg>
