<svg width="24" height="25" viewBox="0 0 24 25" fill="none" xmlns="http://www.w3.org/2000/svg">
<g clip-path="url(#clip0_1964_7040)">
<path d="M12 15.1289C13.6569 15.1289 15 13.7858 15 12.1289C15 10.4721 13.6569 9.12891 12 9.12891C10.3431 9.12891 9 10.4721 9 12.1289C9 13.7858 10.3431 15.1289 12 15.1289Z" stroke="black" stroke-width="2" stroke-linecap="round" stroke-linejoin="round"/>
<path d="M19.4 15.1289C19.2669 15.4305 19.2272 15.7651 19.286 16.0895C19.3448 16.4139 19.4995 16.7132 19.73 16.9489L19.79 17.0089C19.976 17.1947 20.1235 17.4152 20.2241 17.658C20.3248 17.9008 20.3766 18.1611 20.3766 18.4239C20.3766 18.6867 20.3248 18.947 20.2241 19.1898C20.1235 19.4326 19.976 19.6532 19.79 19.8389C19.6043 20.0249 19.3837 20.1724 19.1409 20.273C18.8981 20.3737 18.6378 20.4255 18.375 20.4255C18.1122 20.4255 17.8519 20.3737 17.6091 20.273C17.3663 20.1724 17.1457 20.0249 16.96 19.8389L16.9 19.7789C16.6643 19.5484 16.365 19.3937 16.0406 19.3349C15.7162 19.2761 15.3816 19.3158 15.08 19.4489C14.7842 19.5757 14.532 19.7862 14.3543 20.0544C14.1766 20.3227 14.0813 20.6371 14.08 20.9589V21.1289C14.08 21.6593 13.8693 22.168 13.4942 22.5431C13.1191 22.9182 12.6104 23.1289 12.08 23.1289C11.5496 23.1289 11.0409 22.9182 10.6658 22.5431C10.2907 22.168 10.08 21.6593 10.08 21.1289V21.0389C10.0723 20.7079 9.96512 20.3869 9.77251 20.1176C9.5799 19.8483 9.31074 19.6432 9 19.5289C8.69838 19.3958 8.36381 19.3561 8.03941 19.4149C7.71502 19.4737 7.41568 19.6284 7.18 19.8589L7.12 19.9189C6.93425 20.1049 6.71368 20.2524 6.47088 20.353C6.22808 20.4537 5.96783 20.5055 5.705 20.5055C5.44217 20.5055 5.18192 20.4537 4.93912 20.353C4.69632 20.2524 4.47575 20.1049 4.29 19.9189C4.10405 19.7332 3.95653 19.5126 3.85588 19.2698C3.75523 19.027 3.70343 18.7667 3.70343 18.5039C3.70343 18.2411 3.75523 17.9808 3.85588 17.738C3.95653 17.4952 4.10405 17.2747 4.29 17.0889L4.35 17.0289C4.58054 16.7932 4.73519 16.4939 4.794 16.1695C4.85282 15.8451 4.81312 15.5105 4.68 15.2089C4.55324 14.9131 4.34276 14.6609 4.07447 14.4832C3.80618 14.3055 3.49179 14.2102 3.17 14.2089H3C2.46957 14.2089 1.96086 13.9982 1.58579 13.6231C1.21071 13.248 1 12.7393 1 12.2089C1 11.6785 1.21071 11.1698 1.58579 10.7947C1.96086 10.4196 2.46957 10.2089 3 10.2089H3.09C3.42099 10.2012 3.742 10.094 4.0113 9.90142C4.28059 9.70881 4.48572 9.43964 4.6 9.12891C4.73312 8.82729 4.77282 8.49271 4.714 8.16832C4.65519 7.84392 4.50054 7.54459 4.27 7.30891L4.21 7.24891C4.02405 7.06316 3.87653 6.84258 3.77588 6.59979C3.67523 6.35699 3.62343 6.09674 3.62343 5.83391C3.62343 5.57108 3.67523 5.31082 3.77588 5.06803C3.87653 4.82523 4.02405 4.60465 4.21 4.41891C4.39575 4.23295 4.61632 4.08544 4.85912 3.98479C5.10192 3.88414 5.36217 3.83233 5.625 3.83233C5.88783 3.83233 6.14808 3.88414 6.39088 3.98479C6.63368 4.08544 6.85425 4.23295 7.04 4.41891L7.1 4.47891C7.33568 4.70944 7.63502 4.86409 7.95941 4.92291C8.28381 4.98173 8.61838 4.94202 8.92 4.80891H9C9.29577 4.68214 9.54802 4.47166 9.72569 4.20337C9.90337 3.93508 9.99872 3.62069 10 3.29891V3.12891C10 2.59847 10.2107 2.08977 10.5858 1.71469C10.9609 1.33962 11.4696 1.12891 12 1.12891C12.5304 1.12891 13.0391 1.33962 13.4142 1.71469C13.7893 2.08977 14 2.59847 14 3.12891V3.21891C14.0013 3.54069 14.0966 3.85508 14.2743 4.12337C14.452 4.39166 14.7042 4.60214 15 4.72891C15.3016 4.86202 15.6362 4.90173 15.9606 4.84291C16.285 4.78409 16.5843 4.62944 16.82 4.39891L16.88 4.33891C17.0657 4.15295 17.2863 4.00544 17.5291 3.90479C17.7719 3.80414 18.0322 3.75233 18.295 3.75233C18.5578 3.75233 18.8181 3.80414 19.0609 3.90479C19.3037 4.00544 19.5243 4.15295 19.71 4.33891C19.896 4.52465 20.0435 4.74523 20.1441 4.98803C20.2448 5.23082 20.2966 5.49108 20.2966 5.75391C20.2966 6.01674 20.2448 6.27699 20.1441 6.51979C20.0435 6.76258 19.896 6.98316 19.71 7.16891L19.65 7.22891C19.4195 7.46459 19.2648 7.76392 19.206 8.08832C19.1472 8.41271 19.1869 8.74729 19.32 9.04891V9.12891C19.4468 9.42468 19.6572 9.67692 19.9255 9.8546C20.1938 10.0323 20.5082 10.1276 20.83 10.1289H21C21.5304 10.1289 22.0391 10.3396 22.4142 10.7147C22.7893 11.0898 23 11.5985 23 12.1289C23 12.6593 22.7893 13.168 22.4142 13.5431C22.0391 13.9182 21.5304 14.1289 21 14.1289H20.91C20.5882 14.1302 20.2738 14.2255 20.0055 14.4032C19.7372 14.5809 19.5268 14.8331 19.4 15.1289Z" stroke="black" stroke-width="2" stroke-linecap="round" stroke-linejoin="round"/>
</g>
<defs>
<clipPath id="clip0_1964_7040">
<rect width="24" height="24" fill="white" transform="translate(0 0.128906)"/>
</clipPath>
</defs>
</svg>
