<svg width="25" height="24" viewBox="0 0 25 24" fill="none" xmlns="http://www.w3.org/2000/svg">
  <path
    d="M4.08579 17.9047C3.71072 17.4879 3.50001 16.9227 3.50001 16.3333V5.22222C3.50001 4.63285 3.71072 4.06762 4.08579 3.65087C4.46087 3.23413 4.96957 3 5.50001 3H19.5C20.0304 3 20.5391 3.23413 20.9142 3.65087C21.2893 4.06762 21.5 4.63285 21.5 5.22222V16.3333C21.5 16.9227 21.2893 17.4879 20.9142 17.9047C20.5391 18.3214 20.0304 18.5556 19.5 18.5556L19.5 21.972L15.5044 18.5556H5.50001C4.96957 18.5556 4.46087 18.3214 4.08579 17.9047Z"
    stroke="#FF891C" stroke-width="2" stroke-linecap="round" stroke-linejoin="round" />
  <path d="M13 7V12" stroke="#FF891C" stroke-width="2" stroke-linecap="round" />
  <path d="M13.0001 14.7057V14.7438" stroke="#FF891C" stroke-width="2" stroke-linecap="round" />
</svg>