<svg width="22" height="22" viewBox="0 0 22 22" fill="none" xmlns="http://www.w3.org/2000/svg">
<path fill-rule="evenodd" clip-rule="evenodd" d="M18.7782 18.7782C14.4824 23.0739 7.51759 23.0739 3.22183 18.7782C-1.07394 14.4824 -1.07394 7.51759 3.22183 3.22183C7.51759 -1.07394 14.4824 -1.07394 18.7782 3.22183C23.0739 7.51759 23.0739 14.4824 18.7782 18.7782ZM15.9354 19.4693C12.9008 21.2404 9.11836 21.2436 6.08108 19.4789L8.12447 16.2678C9.91658 17.2471 12.1026 17.244 13.8923 16.2586L15.9354 19.4693ZM7.13409 15.589L5.08238 18.8131C4.73013 18.5456 4.39185 18.2511 4.07035 17.9296C3.75823 17.6175 3.47156 17.2896 3.21035 16.9484L6.43622 14.8956C6.53787 15.0144 6.64492 15.1302 6.75736 15.2426C6.87914 15.3644 7.00486 15.4799 7.13409 15.589ZM2.53071 6.06459C0.753151 9.11028 0.756436 12.9094 2.54057 15.9523L5.7508 13.9094C4.75289 12.111 4.74974 9.90865 5.74135 8.10772L2.53071 6.06459ZM16.9328 18.8015C17.2796 18.5371 17.6128 18.2465 17.9296 17.9296C18.2464 17.6129 18.5369 17.2798 18.8013 16.9332L15.5763 14.8809C15.4709 15.0049 15.3597 15.1256 15.2426 15.2426C15.1255 15.3598 15.0047 15.4711 14.8806 15.5766L16.9328 18.8015ZM16.2584 13.8927L19.4691 15.9358C21.2404 12.9011 21.2436 9.11848 19.4789 6.08108L16.2678 8.12447C17.2472 9.91671 17.244 12.103 16.2584 13.8927ZM15.589 7.13409L18.8131 5.08238C18.5456 4.73013 18.2511 4.39185 17.9296 4.07035C17.6175 3.75823 17.2896 3.47156 16.9484 3.21035L14.8956 6.43622C15.0144 6.53787 15.1302 6.64492 15.2426 6.75736C15.3644 6.87914 15.4799 7.00486 15.589 7.13409ZM13.9094 5.7508L15.9523 2.54057C12.9092 0.756363 9.10996 0.753151 6.06421 2.53093L8.10734 5.74156C9.90833 4.74974 12.1109 4.75282 13.9094 5.7508ZM6.42344 7.11941L3.19846 5.06715C3.46286 4.72038 3.75349 4.38722 4.07035 4.07035C4.38711 3.7536 4.72016 3.46305 5.0668 3.19873L7.11907 6.42373C6.99511 6.52909 6.87442 6.6403 6.75736 6.75736C6.64019 6.87452 6.52889 6.99533 6.42344 7.11941ZM14.3941 7.60589C16.2686 9.4804 16.2686 12.5196 14.3941 14.3941C12.5196 16.2686 9.4804 16.2686 7.60589 14.3941C5.73137 12.5196 5.73137 9.4804 7.60589 7.60589C9.4804 5.73137 12.5196 5.73137 14.3941 7.60589Z" fill="#0A7D9E"/>
</svg>
