<svg width="24" height="25" viewBox="0 0 24 25" fill="none" xmlns="http://www.w3.org/2000/svg">
<path d="M12.1174 7.07815C13.222 7.07815 14.1175 6.18271 14.1175 5.07814C14.1175 3.97356 13.222 3.07812 12.1174 3.07812C11.0127 3.07812 10.1172 3.97356 10.1172 5.07814C10.1172 6.18271 11.0127 7.07815 12.1174 7.07815Z" fill="#0A7D9E"/>
<path d="M12.1174 14.0782C13.222 14.0782 14.1175 13.1828 14.1175 12.0782C14.1175 10.9736 13.222 10.0782 12.1174 10.0782C11.0127 10.0782 10.1172 10.9736 10.1172 12.0782C10.1172 13.1828 11.0127 14.0782 12.1174 14.0782Z" fill="#0A7D9E"/>
<path d="M12.1174 21.0782C13.222 21.0782 14.1175 20.1828 14.1175 19.0782C14.1175 17.9737 13.222 17.0782 12.1174 17.0782C11.0127 17.0782 10.1172 17.9737 10.1172 19.0782C10.1172 20.1828 11.0127 21.0782 12.1174 21.0782Z" fill="#0A7D9E"/>
</svg>
