<svg width="73" height="69" viewBox="0 0 73 69" fill="none" xmlns="http://www.w3.org/2000/svg">
<path d="M52.5419 1.00722C54.2825 0.0491636 56.4568 1.01723 56.9095 2.95182L59.5797 14.3619C59.8267 15.4175 60.6241 16.2576 61.6653 16.5596L72.9199 19.8232C74.8282 20.3766 75.6811 22.5986 74.6333 24.2867L68.4533 34.2429C67.8815 35.164 67.8512 36.3219 68.3739 37.2716L74.0244 47.5376C74.9825 49.2783 74.0144 51.4526 72.0798 51.9053L60.6698 54.5755C59.6142 54.8225 58.774 55.6198 58.4721 56.661L55.2084 67.9157C54.655 69.8239 52.4331 70.6769 50.745 69.629L40.7887 63.449C39.8677 62.8773 38.7098 62.8469 37.76 63.3697L27.494 69.0202C25.7534 69.9782 23.5791 69.0102 23.1264 67.0756L20.4562 55.6655C20.2092 54.6099 19.4119 53.7698 18.3706 53.4678L7.11598 50.2042C5.20773 49.6508 4.35479 47.4288 5.40262 45.7407L11.5826 35.7845C12.1544 34.8634 12.1847 33.7055 11.662 32.7558L6.01147 22.4898C5.05342 20.7491 6.02148 18.5748 7.95608 18.1221L19.3661 15.4519C20.4217 15.2049 21.2619 14.4076 21.5638 13.3664L24.8275 2.11172C25.3809 0.203471 27.6028 -0.649467 29.2909 0.39837L39.2472 6.5784C40.1682 7.15013 41.3261 7.18045 42.2759 6.65771L52.5419 1.00722Z" stroke="white" stroke-width="3.99794"/>
<path d="M33.2507 51.7541C42.235 55.7541 52.7608 51.7137 56.7609 42.7294C60.7609 33.7452 56.7204 23.2193 47.7362 19.2193C38.7519 15.2192 28.2261 19.2597 24.226 28.244C20.226 37.2282 24.2665 47.7541 33.2507 51.7541Z" stroke="white" stroke-width="4" stroke-linecap="round" stroke-linejoin="round"/>
<path d="M44.8438 25.7266L40.4981 35.487L45.5565 41.6376" stroke="white" stroke-width="4" stroke-linecap="round" stroke-linejoin="round"/>
</svg>
