<svg width="24" height="24" viewBox="0 0 24 24" fill="none" xmlns="http://www.w3.org/2000/svg">
    <g clip-path="url(#clip0_1857_2478)">
        <path
            d="M12.0031 0H11.9969C5.38041 0 0 5.38188 0 12C0 14.625 0.845872 17.0582 2.28439 19.0336L0.789092 23.4912L5.40173 22.0169C7.29902 23.274 9.56249 24 12.0031 24C18.6196 24 24 18.6164 24 12C24 5.38348 18.6195 0 12.0031 0Z"
            fill="#5ACF5F" />
        <path
            d="M18.9857 16.9453C18.6961 17.763 17.5471 18.4408 16.6308 18.6391C16.0035 18.7724 15.1847 18.8791 12.4279 17.736C8.90116 16.2751 6.63019 12.6915 6.45341 12.459C6.28367 12.2264 5.02832 10.5617 5.02832 8.83943C5.02832 7.11749 5.90271 6.27882 6.25536 5.91914C6.54459 5.62337 7.02318 5.48865 7.4822 5.48865C7.63076 5.48865 7.76414 5.49597 7.88439 5.50204C8.23684 5.51719 8.41367 5.538 8.64637 6.09454C8.93586 6.79217 9.64066 8.51406 9.7249 8.69121C9.81045 8.86827 9.89569 9.10807 9.77579 9.34049C9.66314 9.58064 9.56431 9.68708 9.38728 9.89096C9.2102 10.0953 9.04203 10.2512 8.8652 10.47C8.7033 10.6605 8.52024 10.8646 8.72433 11.2171C8.92826 11.5621 9.63311 12.7124 10.671 13.6364C12.0109 14.8289 13.0966 15.2099 13.4852 15.3721C13.7747 15.4922 14.1197 15.4634 14.3309 15.2385C14.5995 14.9489 14.9313 14.469 15.2687 13.9967C15.5086 13.6576 15.8116 13.6155 16.1296 13.7354C16.4536 13.848 18.168 14.6956 18.5206 14.871C18.8729 15.048 19.1057 15.132 19.1912 15.2806C19.2752 15.4288 19.2752 16.1265 18.9857 16.9453Z"
            fill="#FCFCFC" />
    </g>
    <defs>
        <clipPath id="clip0_1857_2478">
            <rect width="24" height="24" fill="white" />
        </clipPath>
    </defs>
</svg>