<svg width="23" height="34" viewBox="0 0 23 34" fill="none" xmlns="http://www.w3.org/2000/svg">
<path d="M14.8828 31.5859C14.8828 32.1382 14.4351 32.5859 13.8828 32.5859H8.79948C8.24719 32.5859 7.79948 32.1382 7.79948 31.5859V27.6276H14.8828V31.5859Z" stroke="#EF5C7F" stroke-width="2"/>
<path d="M21.2552 10.24C21.2552 16.108 15.5885 22.3828 11.3385 22.3828C7.08854 22.3828 1.42188 16.108 1.42188 10.24C1.42188 4.37193 5.86172 1.13281 11.3385 1.13281C16.8154 1.13281 21.2552 4.37193 21.2552 10.24Z" stroke="#EF5C7F" stroke-width="2"/>
<path d="M15.5859 9.63281C15.5859 15.1096 13.6831 22.3828 11.3359 22.3828C8.98873 22.3828 7.08594 15.1096 7.08594 9.63281C7.08594 4.15599 8.98873 1.13281 11.3359 1.13281C13.6831 1.13281 15.5859 4.15599 15.5859 9.63281Z" stroke="#EF5C7F" stroke-width="2"/>
<path d="M3.54688 17L7.79687 27.625H14.8802L19.1302 17" stroke="#EF5C7F" stroke-width="2" stroke-linecap="round"/>
</svg>
