<svg width="24" height="24" viewBox="0 0 24 24" fill="none" xmlns="http://www.w3.org/2000/svg">
<path d="M20.6601 2H3.33989C2.59989 2 2 2.59989 2 3.33989C2 3.64919 2.10701 3.94897 2.30287 4.18836L9.95578 13.5419C10.102 13.7206 10.1818 13.9443 10.1818 14.1751V21.8C10.1818 21.8824 10.2759 21.9294 10.3418 21.88L13.4182 19.5727C13.67 19.3839 13.8182 19.0875 13.8182 18.7727V14.1751C13.8182 13.9443 13.898 13.7206 14.0442 13.5419L21.6971 4.18836C21.893 3.94897 22 3.64919 22 3.33989C22 2.59989 21.4001 2 20.6601 2Z" fill="#0A7D9E" stroke="#0A7D9E" stroke-width="2" stroke-linecap="round"/>
</svg>
