<svg width="34" height="35" viewBox="0 0 34 35" fill="none" xmlns="http://www.w3.org/2000/svg">
<path d="M10.5387 10.9952L16.8332 1.94695C16.9128 1.83256 17.082 1.83257 17.1616 1.94695L23.456 10.9952C26.3743 15.1903 26.3157 20.7732 23.31 24.9061L22.6641 25.7943L17.1591 33.3635C17.0793 33.4734 16.9155 33.4734 16.8356 33.3635L11.3307 25.7943L10.6848 24.9061C7.67908 20.7732 7.62047 15.1903 10.5387 10.9952Z" stroke="#DC53AD" stroke-width="2" stroke-linecap="round"/>
<path d="M17 33.5833L21.577 31.9475C28.3411 29.5301 32.8559 23.1222 32.8559 15.9392V11.1743C32.8559 10.9675 32.6414 10.8303 32.4536 10.9171L24.7917 14.4583" stroke="#DC53AD" stroke-width="2" stroke-linecap="round"/>
<path d="M17.0043 33.5833L12.4273 31.9475C5.66316 29.5301 1.14844 23.1222 1.14844 15.9392L1.14844 11.1743C1.14844 10.9675 1.36288 10.8303 1.55064 10.9171L9.21262 14.4583" stroke="#DC53AD" stroke-width="2" stroke-linecap="round"/>
<path d="M11.3364 8.78998L7.28967 5.41763C7.1877 5.33266 7.03277 5.36876 6.97886 5.49005L4.25303 11.6233" stroke="#DC53AD" stroke-width="2" stroke-linecap="round"/>
<path d="M22.6641 8.78932L26.626 5.48763C26.7705 5.36725 26.99 5.41839 27.0663 5.59021L29.7474 11.6226" stroke="#DC53AD" stroke-width="2" stroke-linecap="round"/>
</svg>
