<svg width="24" height="24" viewBox="0 0 24 24" fill="none" xmlns="http://www.w3.org/2000/svg">
<path d="M11.2032 1.05088C11.6033 0.523148 12.3967 0.523148 12.7968 1.05088L14.8611 3.77324C15.0794 4.06119 15.4361 4.20895 15.7941 4.15972L19.1787 3.69436C19.8349 3.60415 20.3959 4.16513 20.3056 4.82125L19.8403 8.20589C19.7911 8.56389 19.9388 8.92059 20.2268 9.13893L22.9491 11.2032C23.4769 11.6033 23.4769 12.3967 22.9491 12.7968L20.2268 14.8611C19.9388 15.0794 19.7911 15.4361 19.8403 15.7941L20.3056 19.1787C20.3959 19.8349 19.8349 20.3959 19.1787 20.3056L15.7941 19.8403C15.4361 19.7911 15.0794 19.9388 14.8611 20.2268L12.7968 22.9491C12.3967 23.4769 11.6033 23.4769 11.2032 22.9491L9.13893 20.2268C8.92059 19.9388 8.56389 19.7911 8.20589 19.8403L4.82125 20.3056C4.16513 20.3959 3.60415 19.8349 3.69436 19.1787L4.15972 15.7941C4.20895 15.4361 4.06119 15.0794 3.77324 14.8611L1.05088 12.7968C0.523148 12.3967 0.523148 11.6033 1.05088 11.2032L3.77324 9.13893C4.06119 8.92059 4.20895 8.56389 4.15972 8.20589L3.69436 4.82125C3.60415 4.16513 4.16513 3.60415 4.82125 3.69436L8.20589 4.15972C8.56389 4.20895 8.92059 4.06119 9.13893 3.77324L11.2032 1.05088Z" fill="#0A7D9E"/>
<path d="M7.5 11.9968L10.5508 15.5561L16.5 9" stroke="white" stroke-width="1.5" stroke-linecap="round" stroke-linejoin="round"/>
</svg>
