<svg width="24" height="24" viewBox="0 0 24 24" fill="none" xmlns="http://www.w3.org/2000/svg">
<g clip-path="url(#clip0_4306_2255)">
<path d="M12 10.8182V19M12 10.8182H17M12 10.8182H7M7 7H17" stroke="#FF891C" stroke-width="2" stroke-linecap="round" stroke-linejoin="round"/>
<path d="M22.0291 7.48154C22.6225 8.79859 22.9507 10.2196 22.9949 11.6635C23.039 13.1073 22.7984 14.5458 22.2867 15.8966C21.775 17.2475 21.0022 18.4844 20.0125 19.5366C19.0228 20.5888 17.8355 21.4358 16.5185 22.0291C15.2014 22.6225 13.7804 22.9507 12.3365 22.9949C10.8927 23.039 9.45423 22.7984 8.10336 22.2867C6.75249 21.775 5.51564 21.0022 4.46342 20.0125C3.41121 19.0228 2.56424 17.8355 1.97086 16.5185C1.37749 15.2014 1.04934 13.7804 1.00515 12.3365C0.960956 10.8927 1.20159 9.45423 1.7133 8.10336C2.22501 6.75249 2.99779 5.51564 3.98751 4.46342C4.97723 3.41121 6.1645 2.56424 7.48155 1.97086C8.79859 1.37749 10.2196 1.04934 11.6635 1.00515C13.1073 0.960956 14.5458 1.20159 15.8966 1.7133C17.2475 2.22502 18.4844 2.99779 19.5366 3.98751C20.5888 4.97723 21.4358 6.1645 22.0291 7.48155L22.0291 7.48154Z" stroke="#FF891C" stroke-width="2" stroke-linecap="round"/>
</g>
<defs>
<clipPath id="clip0_4306_2255">
<rect width="24" height="24" fill="white"/>
</clipPath>
</defs>
</svg>
