<svg width="28" height="28" viewBox="0 0 28 28" fill="none" xmlns="http://www.w3.org/2000/svg">
<path d="M28 14C28 21.732 21.732 28 14 28C6.26801 28 0 21.732 0 14C0 6.26801 6.26801 0 14 0C21.732 0 28 6.26801 28 14Z" fill="#0A7D9E"/>
<path d="M20 22L14 17.5556L8 22V7.77778C8 7.30628 8.18061 6.8541 8.5021 6.5207C8.82359 6.1873 9.25963 6 9.71429 6H18.2857C18.7404 6 19.1764 6.1873 19.4979 6.5207C19.8194 6.8541 20 7.30628 20 7.77778V22Z" stroke="white" stroke-width="1.2" stroke-linecap="round" stroke-linejoin="round"/>
</svg>
