<svg width="24" height="24" viewBox="0 0 24 24" fill="none" xmlns="http://www.w3.org/2000/svg">
<path d="M20.4142 17.9047C20.7893 17.4879 21 16.9227 21 16.3333V5.22222C21 4.63285 20.7893 4.06762 20.4142 3.65087C20.0391 3.23413 19.5304 3 19 3H5C4.46957 3 3.96086 3.23413 3.58579 3.65087C3.21071 4.06762 3 4.63285 3 5.22222V16.3333C3 16.9227 3.21071 17.4879 3.58579 17.9047C3.96086 18.3214 4.46957 18.5556 5 18.5556L5 21.972L8.99559 18.5556H19C19.5304 18.5556 20.0391 18.3214 20.4142 17.9047Z" stroke="#FF891C" stroke-width="2" stroke-linecap="round" stroke-linejoin="round"/>
<path d="M11.5 7V12" stroke="#FF891C" stroke-width="2" stroke-linecap="round"/>
<path d="M11.5 14.7057V14.7438" stroke="#FF891C" stroke-width="2" stroke-linecap="round"/>
</svg>
