<svg width="24" height="24" viewBox="0 0 24 24" fill="none" xmlns="http://www.w3.org/2000/svg">
<path fill-rule="evenodd" clip-rule="evenodd" d="M19.7782 19.7782C15.4824 24.0739 8.51759 24.0739 4.22183 19.7782C-0.0739419 15.4824 -0.0739419 8.51759 4.22183 4.22183C8.51759 -0.0739419 15.4824 -0.0739419 19.7782 4.22183C24.0739 8.51759 24.0739 15.4824 19.7782 19.7782ZM16.9354 20.4693C13.9008 22.2404 10.1184 22.2436 7.08108 20.4789L9.12447 17.2678C10.9166 18.2471 13.1026 18.244 14.8923 17.2586L16.9354 20.4693ZM8.13409 16.589L6.08238 19.8131C5.73013 19.5456 5.39185 19.2511 5.07035 18.9296C4.75823 18.6175 4.47156 18.2896 4.21035 17.9484L7.43622 15.8956C7.53787 16.0144 7.64492 16.1302 7.75736 16.2426C7.87914 16.3644 8.00486 16.4799 8.13409 16.589ZM3.53071 7.06459C1.75315 10.1103 1.75644 13.9094 3.54057 16.9523L6.7508 14.9094C5.75289 13.111 5.74974 10.9086 6.74135 9.10772L3.53071 7.06459ZM17.9328 19.8015C18.2796 19.5371 18.6128 19.2465 18.9296 18.9296C19.2464 18.6129 19.5369 18.2798 19.8013 17.9332L16.5763 15.8809C16.4709 16.0049 16.3597 16.1256 16.2426 16.2426C16.1255 16.3598 16.0047 16.4711 15.8806 16.5766L17.9328 19.8015ZM17.2584 14.8927L20.4691 16.9358C22.2404 13.9011 22.2436 10.1185 20.4789 7.08108L17.2678 9.12447C18.2472 10.9167 18.244 13.103 17.2584 14.8927ZM16.589 8.13409L19.8131 6.08238C19.5456 5.73013 19.2511 5.39185 18.9296 5.07035C18.6175 4.75823 18.2896 4.47156 17.9484 4.21035L15.8956 7.43622C16.0144 7.53787 16.1302 7.64492 16.2426 7.75736C16.3644 7.87914 16.4799 8.00486 16.589 8.13409ZM14.9094 6.7508L16.9523 3.54057C13.9092 1.75636 10.11 1.75315 7.06421 3.53093L9.10734 6.74156C10.9083 5.74974 13.1109 5.75282 14.9094 6.7508ZM7.42344 8.11941L4.19846 6.06715C4.46286 5.72038 4.75349 5.38722 5.07035 5.07035C5.38711 4.7536 5.72016 4.46305 6.0668 4.19873L8.11907 7.42373C7.99511 7.52909 7.87442 7.6403 7.75736 7.75736C7.64019 7.87452 7.52889 7.99533 7.42344 8.11941ZM15.3941 8.60589C17.2686 10.4804 17.2686 13.5196 15.3941 15.3941C13.5196 17.2686 10.4804 17.2686 8.60589 15.3941C6.73137 13.5196 6.73137 10.4804 8.60589 8.60589C10.4804 6.73137 13.5196 6.73137 15.3941 8.60589Z" fill="#0A7D9E"/>
</svg>
