<svg width="66" height="66" viewBox="0 0 66 66" fill="none" xmlns="http://www.w3.org/2000/svg">
<path d="M52.5938 56.7188V51.9062C52.5938 49.3535 51.5616 46.9054 49.7243 45.1003C47.887 43.2953 45.3952 42.2813 42.7969 42.2812H23.2031C20.6048 42.2813 18.113 43.2953 16.2757 45.1003C14.4384 46.9054 13.4063 49.3535 13.4062 51.9062V56.7188" stroke="white" stroke-width="4" stroke-linecap="round" stroke-linejoin="round"/>
<path d="M33.5156 33C38.9263 33 43.3125 28.6138 43.3125 23.2031C43.3125 17.7925 38.9263 13.4062 33.5156 13.4062C28.105 13.4062 23.7188 17.7925 23.7188 23.2031C23.7188 28.6138 28.105 33 33.5156 33Z" stroke="white" stroke-width="4" stroke-linecap="round" stroke-linejoin="round"/>
<circle cx="33" cy="33" r="31" stroke="white" stroke-width="4"/>
</svg>
