<svg width="26" height="26" viewBox="0 0 26 26" fill="none" xmlns="http://www.w3.org/2000/svg">
<path fill-rule="evenodd" clip-rule="evenodd" d="M0.1875 13C0.1875 5.92385 5.92385 0.1875 13 0.1875C20.0761 0.1875 25.8125 5.92385 25.8125 13C25.8125 20.0761 20.0761 25.8125 13 25.8125C5.92385 25.8125 0.1875 20.0761 0.1875 13ZM13 2.0625C6.95939 2.0625 2.0625 6.95939 2.0625 13C2.0625 19.0406 6.95939 23.9375 13 23.9375C19.0406 23.9375 23.9375 19.0406 23.9375 13C23.9375 6.95939 19.0406 2.0625 13 2.0625Z" fill="white"/>
<path d="M12.0625 5.8125C12.0625 5.29473 12.4822 4.875 13 4.875C13.5178 4.875 13.9375 5.29473 13.9375 5.8125V15.1875C13.9375 15.7053 13.5178 16.125 13 16.125C12.4822 16.125 12.0625 15.7053 12.0625 15.1875V5.8125Z" fill="white"/>
<path d="M11.5938 20.0312C11.5938 19.2546 12.2233 18.625 13 18.625C13.7767 18.625 14.4062 19.2546 14.4062 20.0312C14.4062 20.8079 13.7767 21.4375 13 21.4375C12.2233 21.4375 11.5938 20.8079 11.5938 20.0312Z" fill="white"/>
</svg>
