<svg width="35" height="34" viewBox="0 0 35 34" fill="none" xmlns="http://www.w3.org/2000/svg">
<path d="M11.2995 15.1111L12.4427 26.6954C12.6182 28.4743 12.1022 30.2525 11.0017 31.6611C10.0734 32.8494 8.2756 32.8494 7.34723 31.6611C6.24674 30.2525 5.73075 28.4743 5.9063 26.6954L7.04948 15.1111L6.81915 14.9146C4.74318 13.1431 3.6594 10.472 3.91413 7.75481C4.10849 5.68168 5.06737 3.75507 6.60411 2.35005L6.76205 2.20565C8.12792 0.956855 10.221 0.956853 11.5869 2.20565L11.7448 2.35005C13.2816 3.75507 14.2405 5.68168 14.4348 7.75481C14.6896 10.472 13.6058 13.1431 11.5298 14.9146L11.2995 15.1111Z" stroke="#F4A261" stroke-width="2"/>
<path d="M33.2552 2.83594V7.48768C33.2552 10.4089 31.9754 13.1836 29.7532 15.0798V15.0798C29.7284 15.101 29.7155 15.133 29.7187 15.1655L30.8567 26.6979C31.0323 28.4768 30.5163 30.255 29.4158 31.6637V31.6637C28.4874 32.852 26.6897 32.852 25.7613 31.6637V31.6637C24.6608 30.255 24.1448 28.4768 24.3204 26.6979L25.4584 15.1655C25.4616 15.133 25.4487 15.101 25.4239 15.0798V15.0798C23.2017 13.1836 21.9219 10.4089 21.9219 7.48768V2.83594" stroke="#F4A261" stroke-width="2" stroke-linecap="round"/>
<path d="M27.5859 1.41406V10.6224" stroke="#F4A261" stroke-width="2" stroke-linecap="round"/>
</svg>
