<svg width="35" height="34" viewBox="0 0 35 34" fill="none" xmlns="http://www.w3.org/2000/svg">
<path d="M2.08594 29.3359C2.08594 28.7837 2.53365 28.3359 3.08594 28.3359H32.2526C32.8049 28.3359 33.2526 28.7837 33.2526 29.3359V31.5859C33.2526 32.1382 32.8049 32.5859 32.2526 32.5859H3.08594C2.53365 32.5859 2.08594 32.1382 2.08594 31.5859V29.3359Z" stroke="#E5C82F" stroke-width="2"/>
<path d="M14.8359 12.0391H20.5026V28.3307H14.8359V12.0391Z" stroke="#E5C82F" stroke-width="2"/>
<path d="M2.08594 6.65839C2.08594 6.589 2.15489 6.5407 2.22011 6.56442L8.51063 8.85188C9.39366 9.17298 10.3615 9.17298 11.2446 8.85188L16.3023 7.01271C17.1853 6.6916 18.1532 6.6916 19.0362 7.01271L24.094 8.85188C24.977 9.17298 25.9449 9.17298 26.8279 8.85188L33.1184 6.56442C33.1836 6.5407 33.2526 6.589 33.2526 6.6584V11.1823C33.2526 11.7346 32.8049 12.1823 32.2526 12.1823H3.08594C2.53365 12.1823 2.08594 11.7346 2.08594 11.1823V6.65839Z" stroke="#E5C82F" stroke-width="2"/>
<path d="M2.48132 6.46175C2.3783 6.47646 2.36349 6.61916 2.46129 6.65472L5.98177 7.9349L8.51063 8.85448C9.39366 9.17558 10.3615 9.17558 11.2446 8.85448L16.3023 7.01531C17.1853 6.69421 18.1532 6.69421 19.0362 7.01531L24.094 8.85448C24.977 9.17558 25.9449 9.17558 26.8279 8.85448L32.8856 6.65167C32.9829 6.6163 32.969 6.47459 32.8667 6.45885L26.2304 5.43788C24.7904 5.21635 23.4162 4.68283 22.2039 3.87467L18.258 1.24402C17.9052 1.00884 17.4424 1.02168 17.1033 1.27607L14.0522 3.56438C12.7075 4.57288 11.1303 5.22617 9.46639 5.46388L2.48132 6.46175Z" stroke="#E5C82F" stroke-width="2"/>
<path d="M7.75781 12.75V18.4167" stroke="#E5C82F" stroke-width="2" stroke-linecap="round"/>
<path d="M27.5859 12.75V18.4167" stroke="#E5C82F" stroke-width="2" stroke-linecap="round"/>
<path d="M30.4219 24.0859H24.7552V20.4193C24.7552 19.3147 25.6506 18.4193 26.7552 18.4193H28.4219C29.5264 18.4193 30.4219 19.3147 30.4219 20.4193V24.0859Z" stroke="#E5C82F" stroke-width="2"/>
<path d="M10.5859 24.0859H4.91927V20.4193C4.91927 19.3147 5.8147 18.4193 6.91927 18.4193H8.58594C9.69051 18.4193 10.5859 19.3147 10.5859 20.4193V24.0859Z" stroke="#E5C82F" stroke-width="2"/>
</svg>
