<svg width="34" height="34" viewBox="0 0 34 34" fill="none" xmlns="http://www.w3.org/2000/svg">
<path d="M32.5807 32.4807V16.1641C32.5807 15.0595 31.6853 14.1641 30.5807 14.1641H3.41406C2.30949 14.1641 1.41406 15.0595 1.41406 16.1641V32.4807C1.41406 32.536 1.45883 32.5807 1.51406 32.5807H6.98073C7.03596 32.5807 7.08073 32.536 7.08073 32.4807V26.9141H26.9141V32.4807C26.9141 32.536 26.9588 32.5807 27.0141 32.5807H32.4807C32.536 32.5807 32.5807 32.536 32.5807 32.4807Z" stroke="#5EBAE1" stroke-width="2"/>
<path d="M4.25 2.41406V14.1641H29.75V2.41406C29.75 1.86178 29.3023 1.41406 28.75 1.41406H5.25C4.69772 1.41406 4.25 1.86178 4.25 2.41406Z" stroke="#5EBAE1" stroke-width="2"/>
<path d="M8.5 9.5V14.1667H25.5V9.5C25.5 8.94772 25.0523 8.5 24.5 8.5H9.5C8.94772 8.5 8.5 8.94771 8.5 9.5Z" stroke="#5EBAE1" stroke-width="2"/>
</svg>
