<svg width="34" height="34" viewBox="0 0 34 34" fill="none" xmlns="http://www.w3.org/2000/svg">
<path d="M24.3256 16.3548L24.4657 16.4051L24.4593 16.2563C24.4221 15.3999 24.2497 14.5497 23.9435 13.7413C23.3045 12.055 22.1235 10.6586 20.6076 9.79288C19.0919 8.92732 17.3361 8.64625 15.6445 8.99744L13.7958 9.38122L12.3857 1.90823L14.2278 1.5258C17.5924 0.827301 21.0836 1.38692 24.0947 3.10648C27.1056 4.8259 29.4455 7.59581 30.7101 10.9336C31.6705 13.4682 31.9651 16.2096 31.5859 18.8769L31.5744 18.9576L31.6511 18.9851L32.4955 19.2884C33.931 19.8038 34.271 21.7504 33.1216 22.767L23.7885 31.022L20.5209 14.9886L24.3256 16.3548ZM26.2293 19.096L26.1806 19.2931L23.4652 18.3181L23.2979 18.2581L23.3334 18.4322L25.0554 26.8817L25.09 27.0513L25.2197 26.9366L31.5171 21.3667L31.6436 21.2547L31.4846 21.1977L29.1641 20.3644L29.2079 20.2014C29.9587 17.408 29.8144 14.4274 28.7892 11.7214C27.7002 8.84733 25.6869 6.46607 23.1009 4.98928C21.0089 3.7946 18.6484 3.25247 16.2946 3.40625C15.8316 3.4365 15.3689 3.49367 14.9085 3.5781L14.8097 3.59623L14.8283 3.69497L15.4051 6.75749L15.4234 6.8545L15.5206 6.83748C17.6026 6.47317 19.7439 6.84929 21.6014 7.91008C23.5422 9.0184 25.0498 10.8034 25.8644 12.9536C26.3886 14.3369 26.6048 15.8158 26.5101 17.2801C26.4706 17.8905 26.3771 18.4984 26.2293 19.096ZM18.5104 24.2224L20.359 23.8386L21.7691 31.3116L19.927 31.694C16.5625 32.3925 13.0713 31.8329 10.0601 30.1133C7.04924 28.3939 4.70938 25.624 3.44474 22.2862C2.48637 19.7567 2.191 17.0214 2.5667 14.3593L2.57808 14.2787L2.50148 14.2512L1.61104 13.9314C0.175616 13.416 -0.164421 11.4694 0.985036 10.4528L10.3181 2.19783L13.5857 18.2312L9.8301 16.8827L9.6896 16.8322L9.69641 16.9813C9.73521 17.8317 9.90727 18.6757 10.2114 19.4785C10.8504 21.1648 12.0313 22.5612 13.5473 23.4269C15.063 24.2925 16.8188 24.5735 18.5104 24.2224ZM7.97008 13.9425L10.6414 14.9017L10.8087 14.9617L10.7732 14.7876L9.05117 6.33809L9.0166 6.16847L8.88694 6.28316L2.5895 11.8531L2.46295 11.965L2.62195 12.0221L4.98634 12.8711L4.94276 13.0341C4.19672 15.8229 4.34236 18.7975 5.36572 21.4984C6.45465 24.3725 8.46793 26.7537 11.054 28.2305C13.146 29.4252 15.5065 29.9673 17.8603 29.8135C18.3236 29.7833 18.7867 29.726 19.2475 29.6415L19.3463 29.6233L19.3277 29.5246L18.7499 26.4623L18.7316 26.3653L18.6344 26.3823C16.5523 26.7466 14.411 26.3705 12.5534 25.3097C10.6126 24.2014 9.10508 22.4164 8.29044 20.2662C7.76835 18.8883 7.55175 17.4156 7.64365 15.9569C7.68213 15.3463 7.77468 14.738 7.92155 14.1401L7.97008 13.9425Z" fill="#A16ACD" stroke="white" stroke-width="0.2"/>
</svg>
