<svg width="35" height="34" viewBox="0 0 35 34" fill="none" xmlns="http://www.w3.org/2000/svg">
<path d="M4.92188 7.7306C4.92188 7.33541 5.15461 6.97729 5.51574 6.81679L16.8596 1.77507C17.3767 1.54524 17.967 1.54524 18.4842 1.77507L29.828 6.81679C30.1891 6.97729 30.4219 7.33541 30.4219 7.7306V18.7291C30.4219 22.0726 28.7509 25.1949 25.9689 27.0496L17.7273 32.5439C17.6938 32.5663 17.65 32.5663 17.6164 32.5439L9.37488 27.0496C6.59289 25.1949 4.92188 22.0726 4.92188 18.7291V7.7306Z" stroke="#777CEF" stroke-width="2"/>
<path d="M10.5859 10.4986C10.5859 10.4568 10.6119 10.4195 10.651 10.4049L17.32 7.91923C17.5453 7.83527 17.7933 7.83527 18.0185 7.91923L24.6875 10.4049C24.7267 10.4195 24.7526 10.4568 24.7526 10.4986V18.6441C24.7526 20.2757 23.9565 21.8046 22.6199 22.7403L17.7266 26.1656C17.6922 26.1897 17.6464 26.1897 17.6119 26.1656L12.7186 22.7403C11.382 21.8046 10.5859 20.2757 10.5859 18.6441V10.4986Z" stroke="#777CEF" stroke-width="2"/>
</svg>
