<svg width="35" height="34" viewBox="0 0 35 34" fill="none" xmlns="http://www.w3.org/2000/svg">
<path d="M30.0859 14.1641C30.0859 23.2084 19.4804 31.4278 17.6146 32.8039C17.4454 32.9287 17.2264 32.9287 17.0573 32.8039C15.1914 31.4278 4.58594 23.2084 4.58594 14.1641C4.58594 7.12243 10.2943 1.41406 17.3359 1.41406C24.3776 1.41406 30.0859 7.12243 30.0859 14.1641Z" stroke="#B49081" stroke-width="2"/>
<path d="M17.2436 5.88606C17.2778 5.80393 17.3941 5.80393 17.4283 5.88606L19.5608 11.0132C19.5752 11.0478 19.6077 11.0715 19.6451 11.0745L25.1803 11.5182C25.2689 11.5253 25.3049 11.636 25.2373 11.6938L21.0201 15.3063C20.9916 15.3307 20.9792 15.369 20.9879 15.4055L22.2763 20.8068C22.297 20.8934 22.2028 20.9617 22.1269 20.9154L17.3881 18.0209C17.3561 18.0014 17.3158 18.0014 17.2838 18.0209L12.5449 20.9154C12.469 20.9617 12.3749 20.8934 12.3955 20.8068L13.684 15.4055C13.6927 15.369 13.6802 15.3307 13.6518 15.3063L9.43455 11.6938C9.367 11.636 9.40295 11.5253 9.49162 11.5182L15.0268 11.0745C15.0642 11.0715 15.0967 11.0478 15.1111 11.0132L17.2436 5.88606Z" stroke="#B49081" stroke-width="2"/>
</svg>
