<svg width="162" height="162" viewBox="0 0 162 162" fill="none" xmlns="http://www.w3.org/2000/svg">
<path d="M74.6805 4.80722C76.6696 -1.6024 85.3304 -1.60241 87.3195 4.80721L101.886 51.7445C102.775 54.611 105.327 56.5517 108.205 56.5517H155.342C161.779 56.5517 164.456 65.1758 159.248 69.1372L121.113 98.146C118.784 99.9176 117.81 103.058 118.7 105.924L133.266 152.862C135.255 159.271 128.248 164.601 123.041 160.64L84.9057 131.631C82.5768 129.859 79.4232 129.859 77.0943 131.631L38.9595 160.64C33.7519 164.601 26.7451 159.271 28.7343 152.862L43.3005 105.924C44.19 103.058 43.2155 99.9176 40.8866 98.146L2.7518 69.1372C-2.45578 65.1758 0.220558 56.5517 6.65748 56.5517H53.7947C56.6734 56.5517 59.2247 54.611 60.1143 51.7445L74.6805 4.80722Z" fill="url(#paint0_linear_2281_24984)"/>
<defs>
<linearGradient id="paint0_linear_2281_24984" x1="35.9749" y1="-120.6" x2="211.221" y2="-90.2036" gradientUnits="userSpaceOnUse">
<stop stop-color="#2A9DBE"/>
<stop offset="1" stop-color="#035F7C"/>
</linearGradient>
</defs>
</svg>
