<svg width="20" height="20" viewBox="0 0 20 20" fill="none" xmlns="http://www.w3.org/2000/svg">
<path fill-rule="evenodd" clip-rule="evenodd" d="M10.0061 20C10.6197 20 11.1172 19.5025 11.1172 18.8889V11.1094H18.8889C19.5025 11.1094 20 10.6119 20 9.99826C20 9.38461 19.5025 8.88715 18.8889 8.88715H11.1172V1.11111C11.1172 0.497461 10.6197 0 10.0061 0C9.39243 0 8.89497 0.49746 8.89497 1.11111V8.88715H1.11111C0.497461 8.88715 0 9.38461 0 9.99826C0 10.6119 0.497461 11.1094 1.11111 11.1094H8.89497V18.8889C8.89497 19.5025 9.39243 20 10.0061 20Z" fill="#0A7D9E"/>
</svg>
