<svg width="18" height="13" viewBox="0 0 18 13" fill="none" xmlns="http://www.w3.org/2000/svg">
<path fill-rule="evenodd" clip-rule="evenodd" d="M0 6.03114C3.80845 -1.96886 14.1916 -1.96832 18 6.03168C14.1916 14.0317 3.80845 14.0311 0 6.03114ZM9 10.7825C11.6234 10.7825 13.75 8.65524 13.75 6.03114C13.75 3.40705 11.6234 1.2798 9 1.2798C6.37665 1.2798 4.25 3.40705 4.25 6.03114C4.25 8.65524 6.37665 10.7825 9 10.7825Z" fill="#999999"/>
<path d="M11.85 6.03068C11.85 7.60514 10.574 8.88149 9 8.88149C7.42599 8.88149 6.15 7.60514 6.15 6.03068C6.15 4.45622 7.42599 3.17987 9 3.17987C10.574 3.17987 11.85 4.45622 11.85 6.03068Z" fill="#999999"/>
</svg>
