<svg width="40" height="40" viewBox="0 0 40 40" fill="none" xmlns="http://www.w3.org/2000/svg">
<path d="M40 20C40 31.0457 31.0457 40 20 40C8.95431 40 0 31.0457 0 20C0 8.95431 8.95431 0 20 0C31.0457 0 40 8.95431 40 20Z" fill="#0A7D9E"/>
<path d="M27 30L20 24.4444L13 30V12.2222C13 11.6329 13.2107 11.0676 13.5858 10.6509C13.9609 10.2341 14.4696 10 15 10H25C25.5304 10 26.0391 10.2341 26.4142 10.6509C26.7893 11.0676 27 11.6329 27 12.2222V30Z" stroke="white" fill="#fff" stroke-width="2" stroke-linecap="round" stroke-linejoin="round"/>
</svg>
