<svg width="59" height="68" viewBox="0 0 59 68" fill="none" xmlns="http://www.w3.org/2000/svg">
<path d="M42.844 23.184V7.62069C42.844 5.98347 41.5168 4.65625 39.8796 4.65625H19.1285C17.4913 4.65625 16.1641 5.98347 16.1641 7.62069V28.3718C16.1641 30.009 17.4913 31.3362 19.1285 31.3362H34.6918M42.844 26.8895V31.3362M42.844 35.7829V31.3362M42.844 31.3362H38.3974M42.844 31.3362H47.2907" stroke="#0A7D9E" stroke-linecap="round" stroke-linejoin="round"/>
<path d="M24.3171 15.0326C25.545 15.0326 26.5404 14.0372 26.5404 12.8093C26.5404 11.5814 25.545 10.5859 24.3171 10.5859C23.0892 10.5859 22.0938 11.5814 22.0938 12.8093C22.0938 14.0372 23.0892 15.0326 24.3171 15.0326Z" stroke="#0A7D9E" stroke-linecap="round" stroke-linejoin="round"/>
<path d="M42.8405 22.4423L35.4294 15.0312L19.125 31.3357" stroke="#0A7D9E" stroke-linecap="round" stroke-linejoin="round"/>
<path d="M8.23672 49.8613V50.7812H1.77969V49.8613H8.23672ZM1.96133 49.8613V52.8789H0.842188L0.836329 49.8613H1.96133ZM9.22109 49.8613L9.20938 52.873H8.09023V49.8613H9.22109ZM7.1293 42.25V43.1758H3.39102V42.25H7.1293ZM8.10195 42.25V50.7812H6.97695V42.25H8.10195ZM3.0043 42.25H4.13516L3.95938 45.6836C3.93594 46.1992 3.88711 46.6758 3.81289 47.1133C3.73867 47.5469 3.64688 47.9434 3.5375 48.3027C3.42813 48.6621 3.30313 48.9844 3.1625 49.2695C3.02188 49.5508 2.87148 49.7949 2.71133 50.002C2.55117 50.2051 2.3832 50.373 2.20742 50.5059C2.03555 50.6348 1.86172 50.7266 1.68594 50.7812H1.17031V49.8613H1.53359C1.63516 49.752 1.75039 49.5938 1.8793 49.3867C2.01211 49.1797 2.14297 48.9121 2.27188 48.584C2.40469 48.252 2.51992 47.8477 2.61758 47.3711C2.71914 46.8945 2.7875 46.332 2.82266 45.6836L3.0043 42.25ZM10.5 47.6816V47.5469C10.5 47.0898 10.5664 46.666 10.6992 46.2754C10.832 45.8809 11.0234 45.5391 11.2734 45.25C11.5234 44.957 11.8262 44.7305 12.1816 44.5703C12.5371 44.4062 12.9355 44.3242 13.377 44.3242C13.8223 44.3242 14.2227 44.4062 14.5781 44.5703C14.9375 44.7305 15.2422 44.957 15.4922 45.25C15.7461 45.5391 15.9395 45.8809 16.0723 46.2754C16.2051 46.666 16.2715 47.0898 16.2715 47.5469V47.6816C16.2715 48.1387 16.2051 48.5625 16.0723 48.9531C15.9395 49.3438 15.7461 49.6855 15.4922 49.9785C15.2422 50.2676 14.9395 50.4941 14.584 50.6582C14.2324 50.8184 13.834 50.8984 13.3887 50.8984C12.9434 50.8984 12.543 50.8184 12.1875 50.6582C11.832 50.4941 11.5273 50.2676 11.2734 49.9785C11.0234 49.6855 10.832 49.3438 10.6992 48.9531C10.5664 48.5625 10.5 48.1387 10.5 47.6816ZM11.584 47.5469V47.6816C11.584 47.998 11.6211 48.2969 11.6953 48.5781C11.7695 48.8555 11.8809 49.1016 12.0293 49.3164C12.1816 49.5312 12.3711 49.7012 12.5977 49.8262C12.8242 49.9473 13.0879 50.0078 13.3887 50.0078C13.6855 50.0078 13.9453 49.9473 14.168 49.8262C14.3945 49.7012 14.582 49.5312 14.7305 49.3164C14.8789 49.1016 14.9902 48.8555 15.0645 48.5781C15.1426 48.2969 15.1816 47.998 15.1816 47.6816V47.5469C15.1816 47.2344 15.1426 46.9395 15.0645 46.6621C14.9902 46.3809 14.877 46.1328 14.7246 45.918C14.5762 45.6992 14.3887 45.5273 14.1621 45.4023C13.9395 45.2773 13.6777 45.2148 13.377 45.2148C13.0801 45.2148 12.8184 45.2773 12.5918 45.4023C12.3691 45.5273 12.1816 45.6992 12.0293 45.918C11.8809 46.1328 11.7695 46.3809 11.6953 46.6621C11.6211 46.9395 11.584 47.2344 11.584 47.5469ZM22.0973 41.6816H22.9879C22.9879 42.0645 22.9293 42.3691 22.8121 42.5957C22.6949 42.8184 22.5348 42.9902 22.3316 43.1113C22.1324 43.2324 21.9059 43.3242 21.652 43.3867C21.402 43.4492 21.1422 43.5098 20.8727 43.5684C20.5367 43.6387 20.2242 43.75 19.9352 43.9023C19.65 44.0508 19.4039 44.2617 19.1969 44.5352C18.9937 44.8086 18.8434 45.1641 18.7457 45.6016C18.652 46.0391 18.6266 46.5801 18.6695 47.2246V47.7637H17.7789V47.2246C17.7789 46.502 17.8473 45.8711 17.984 45.332C18.1246 44.793 18.3219 44.3379 18.5758 43.9668C18.8297 43.5957 19.1305 43.3008 19.4781 43.082C19.8297 42.8633 20.2164 42.7129 20.6383 42.6309C20.943 42.5723 21.2047 42.5098 21.4234 42.4434C21.6422 42.373 21.8082 42.2793 21.9215 42.1621C22.0387 42.0449 22.0973 41.8848 22.0973 41.6816ZM20.8141 44.8047C21.2281 44.8047 21.5973 44.877 21.9215 45.0215C22.2457 45.166 22.5211 45.3672 22.7477 45.625C22.9742 45.8828 23.1461 46.1875 23.2633 46.5391C23.3844 46.8867 23.4449 47.2656 23.4449 47.6758V47.8047C23.4449 48.2461 23.3805 48.6562 23.2516 49.0352C23.1266 49.4102 22.941 49.7383 22.6949 50.0195C22.4527 50.2969 22.1559 50.5137 21.8043 50.6699C21.4566 50.8262 21.0602 50.9043 20.6148 50.9043C20.1695 50.9043 19.7711 50.8262 19.4195 50.6699C19.0719 50.5137 18.775 50.2969 18.5289 50.0195C18.2828 49.7383 18.0953 49.4102 17.9664 49.0352C17.8414 48.6562 17.7789 48.2461 17.7789 47.8047V47.6758C17.7789 47.5781 17.7965 47.4824 17.8316 47.3887C17.8668 47.2949 17.9098 47.1992 17.9605 47.1016C18.0152 47.0039 18.0641 46.9004 18.107 46.791C18.2516 46.4395 18.4488 46.1133 18.6988 45.8125C18.9527 45.5117 19.2555 45.2695 19.607 45.0859C19.9625 44.8984 20.3648 44.8047 20.8141 44.8047ZM20.6031 45.6895C20.2047 45.6895 19.8766 45.7812 19.6187 45.9648C19.3648 46.1484 19.1754 46.3926 19.0504 46.6973C18.9254 46.998 18.8629 47.3242 18.8629 47.6758V47.8047C18.8629 48.1016 18.898 48.3828 18.9684 48.6484C19.0387 48.9141 19.1441 49.1504 19.2848 49.3574C19.4293 49.5605 19.6109 49.7207 19.8297 49.8379C20.0523 49.9551 20.3141 50.0137 20.6148 50.0137C20.9156 50.0137 21.1754 49.9551 21.3941 49.8379C21.6129 49.7207 21.7926 49.5605 21.9332 49.3574C22.0738 49.1504 22.1793 48.9141 22.2496 48.6484C22.3199 48.3828 22.3551 48.1016 22.3551 47.8047V47.6758C22.3551 47.4102 22.3199 47.1582 22.2496 46.9199C22.1793 46.6816 22.0719 46.4707 21.9273 46.2871C21.7867 46.1035 21.6051 45.959 21.3824 45.8535C21.1637 45.7441 20.9039 45.6895 20.6031 45.6895ZM28.8137 49.6973V46.4336C28.8137 46.1836 28.7629 45.9668 28.6613 45.7832C28.5637 45.5957 28.4152 45.4512 28.216 45.3496C28.0168 45.248 27.7707 45.1973 27.4777 45.1973C27.2043 45.1973 26.9641 45.2441 26.757 45.3379C26.5539 45.4316 26.3938 45.5547 26.2766 45.707C26.1633 45.8594 26.1066 46.0234 26.1066 46.1992H25.0227C25.0227 45.9727 25.0813 45.748 25.1984 45.5254C25.3156 45.3027 25.4836 45.1016 25.7023 44.9219C25.925 44.7383 26.1906 44.5938 26.4992 44.4883C26.8117 44.3789 27.1594 44.3242 27.5422 44.3242C28.0031 44.3242 28.4094 44.4023 28.7609 44.5586C29.1164 44.7148 29.3938 44.9512 29.593 45.2676C29.7961 45.5801 29.8977 45.9727 29.8977 46.4453V49.3984C29.8977 49.6094 29.9152 49.834 29.9504 50.0723C29.9895 50.3105 30.0461 50.5156 30.1203 50.6875V50.7812H28.9895C28.9348 50.6562 28.8918 50.4902 28.8605 50.2832C28.8293 50.0723 28.8137 49.877 28.8137 49.6973ZM29.0012 46.9375L29.0129 47.6992H27.9172C27.6086 47.6992 27.3332 47.7246 27.091 47.7754C26.8488 47.8223 26.6457 47.8945 26.4816 47.9922C26.3176 48.0898 26.1926 48.2129 26.1066 48.3613C26.0207 48.5059 25.9777 48.6758 25.9777 48.8711C25.9777 49.0703 26.0227 49.252 26.1125 49.416C26.2023 49.5801 26.3371 49.7109 26.5168 49.8086C26.7004 49.9023 26.925 49.9492 27.1906 49.9492C27.5227 49.9492 27.8156 49.8789 28.0695 49.7383C28.3234 49.5977 28.5246 49.4258 28.673 49.2227C28.8254 49.0195 28.9074 48.8223 28.9191 48.6309L29.382 49.1523C29.3547 49.3164 29.2805 49.498 29.1594 49.6973C29.0383 49.8965 28.8762 50.0879 28.673 50.2715C28.4738 50.4512 28.2355 50.6016 27.9582 50.7227C27.6848 50.8398 27.3762 50.8984 27.0324 50.8984C26.6027 50.8984 26.2258 50.8145 25.9016 50.6465C25.5813 50.4785 25.3313 50.2539 25.1516 49.9727C24.9758 49.6875 24.8879 49.3691 24.8879 49.0176C24.8879 48.6777 24.9543 48.3789 25.0871 48.1211C25.2199 47.8594 25.4113 47.6426 25.6613 47.4707C25.9113 47.2949 26.2121 47.1621 26.5637 47.0723C26.9152 46.9824 27.3078 46.9375 27.7414 46.9375H29.0012ZM34.9793 47.9922H32.8992L32.8875 47.125H34.5867C34.9227 47.125 35.202 47.0918 35.4246 47.0254C35.6512 46.959 35.8211 46.8594 35.9344 46.7266C36.0477 46.5938 36.1043 46.4297 36.1043 46.2344C36.1043 46.082 36.0711 45.9492 36.0047 45.8359C35.9422 45.7188 35.8465 45.623 35.7176 45.5488C35.5887 45.4707 35.4285 45.4141 35.2371 45.3789C35.0496 45.3398 34.8289 45.3203 34.575 45.3203H33.1863V50.7812H32.1023V44.4414H34.575C34.9773 44.4414 35.3387 44.4766 35.659 44.5469C35.9832 44.6172 36.2586 44.7246 36.4852 44.8691C36.7156 45.0098 36.8914 45.1895 37.0125 45.4082C37.1336 45.627 37.1941 45.8848 37.1941 46.1816C37.1941 46.373 37.1551 46.5547 37.077 46.7266C36.9988 46.8984 36.8836 47.0508 36.7313 47.1836C36.5789 47.3164 36.3914 47.4258 36.1688 47.5117C35.9461 47.5938 35.6902 47.6465 35.4012 47.6699L34.9793 47.9922ZM34.9793 50.7812H32.5066L33.0457 49.9023H34.9793C35.2801 49.9023 35.5301 49.8652 35.7293 49.791C35.9285 49.7129 36.077 49.6035 36.1746 49.4629C36.2762 49.3184 36.327 49.1465 36.327 48.9473C36.327 48.748 36.2762 48.5781 36.1746 48.4375C36.077 48.293 35.9285 48.1836 35.7293 48.1094C35.5301 48.0312 35.2801 47.9922 34.9793 47.9922H33.3328L33.3445 47.125H35.4012L35.7938 47.4531C36.1414 47.4805 36.4363 47.5664 36.6785 47.7109C36.9207 47.8555 37.1043 48.0391 37.2293 48.2617C37.3543 48.4805 37.4168 48.7188 37.4168 48.9766C37.4168 49.2734 37.3602 49.5352 37.2469 49.7617C37.1375 49.9883 36.9773 50.1777 36.7664 50.3301C36.5555 50.4785 36.2996 50.5918 35.9988 50.6699C35.698 50.7441 35.3582 50.7812 34.9793 50.7812ZM40.4418 49.0645L43.3656 44.4414H44.4555V50.7812H43.3656V46.1582L40.4418 50.7812H39.3637V44.4414H40.4418V49.0645ZM49.1797 44.4414V50.7812H48.0898V44.4414H49.1797ZM51.3066 44.4414V45.3203H46.0039V44.4414H51.3066ZM53.6637 46.6211H55.568C56.0797 46.6211 56.5113 46.7109 56.8629 46.8906C57.2145 47.0664 57.4801 47.3105 57.6598 47.623C57.8434 47.9316 57.9352 48.2832 57.9352 48.6777C57.9352 48.9707 57.8844 49.2461 57.7828 49.5039C57.6813 49.7578 57.5289 49.9805 57.3258 50.1719C57.1266 50.3633 56.8785 50.5137 56.5816 50.623C56.2887 50.7285 55.9508 50.7812 55.568 50.7812H52.8727V44.4414H53.9566V49.8906H55.568C55.8805 49.8906 56.1305 49.834 56.318 49.7207C56.5055 49.6074 56.6402 49.4609 56.7223 49.2812C56.8043 49.1016 56.8453 48.9141 56.8453 48.7188C56.8453 48.5273 56.8043 48.3398 56.7223 48.1562C56.6402 47.9727 56.5055 47.8203 56.318 47.6992C56.1305 47.5742 55.8805 47.5117 55.568 47.5117H53.6637V46.6211ZM23.1168 61.7227V61.8457C23.1168 62.291 23.068 62.7012 22.9703 63.0762C22.8727 63.4473 22.7262 63.7695 22.5309 64.043C22.3395 64.3164 22.1012 64.5293 21.816 64.6816C21.5309 64.8301 21.2008 64.9043 20.8258 64.9043C20.5172 64.9043 20.2457 64.8633 20.0113 64.7812C19.777 64.6953 19.5777 64.5723 19.4137 64.4121C19.2535 64.252 19.1246 64.0605 19.027 63.8379C18.9332 63.6113 18.8687 63.3574 18.8336 63.0762V60.2637C18.8687 59.9629 18.9332 59.6934 19.027 59.4551C19.1246 59.2168 19.2535 59.0137 19.4137 58.8457C19.5777 58.6777 19.775 58.5488 20.0055 58.459C20.2359 58.3691 20.5055 58.3242 20.8141 58.3242C21.1187 58.3242 21.3922 58.3789 21.6344 58.4883C21.8805 58.5938 22.0953 58.7461 22.2789 58.9453C22.4664 59.1445 22.6207 59.3848 22.7418 59.666C22.8668 59.9434 22.9605 60.2559 23.023 60.6035C23.0855 60.9512 23.1168 61.3242 23.1168 61.7227ZM22.0328 61.8457V61.7227C22.0328 61.4492 22.0133 61.1895 21.9742 60.9434C21.9391 60.6934 21.8824 60.4648 21.8043 60.2578C21.7301 60.0469 21.6324 59.8633 21.5113 59.707C21.3902 59.5508 21.2437 59.4297 21.0719 59.3438C20.9039 59.2578 20.7105 59.2148 20.4918 59.2148C20.2574 59.2148 20.0621 59.2441 19.9059 59.3027C19.7535 59.3613 19.6344 59.4395 19.5484 59.5371C19.4625 59.6309 19.4 59.7305 19.3609 59.8359V63.5098C19.4078 63.5957 19.4762 63.6777 19.566 63.7559C19.6559 63.8301 19.777 63.8926 19.9293 63.9434C20.0816 63.9902 20.273 64.0137 20.5035 64.0137C20.777 64.0137 21.0094 63.959 21.2008 63.8496C21.3961 63.7363 21.5543 63.5801 21.6754 63.3809C21.8004 63.1816 21.8902 62.9512 21.9449 62.6895C22.0035 62.4277 22.0328 62.1465 22.0328 61.8457ZM15.5875 61.8457V61.7227C15.5875 61.3242 15.6187 60.9512 15.6812 60.6035C15.7437 60.2559 15.8375 59.9434 15.9625 59.666C16.0875 59.3848 16.2418 59.1445 16.4254 58.9453C16.6129 58.7461 16.8277 58.5938 17.0699 58.4883C17.316 58.3789 17.5914 58.3242 17.8961 58.3242C18.1969 58.3242 18.4586 58.3691 18.6812 58.459C18.9078 58.5488 19.0992 58.6777 19.2555 58.8457C19.4117 59.0137 19.5367 59.2168 19.6305 59.4551C19.7242 59.6934 19.7906 59.9629 19.8297 60.2637V62.9648C19.7945 63.2617 19.7301 63.5293 19.6363 63.7676C19.5426 64.0059 19.4176 64.2109 19.2613 64.3828C19.1051 64.5508 18.9117 64.6797 18.6812 64.7695C18.4547 64.8594 18.1891 64.9043 17.8844 64.9043C17.5094 64.9043 17.1793 64.8301 16.8941 64.6816C16.609 64.5293 16.3687 64.3164 16.1734 64.043C15.982 63.7695 15.8355 63.4473 15.734 63.0762C15.6363 62.7012 15.5875 62.291 15.5875 61.8457ZM16.6773 61.7227V61.8457C16.6773 62.1465 16.7027 62.4277 16.7535 62.6895C16.8082 62.9512 16.8922 63.1816 17.0055 63.3809C17.1227 63.5801 17.275 63.7363 17.4625 63.8496C17.65 63.959 17.8805 64.0137 18.1539 64.0137C18.3883 64.0137 18.5816 63.9844 18.734 63.9258C18.8863 63.8672 19.0074 63.791 19.0973 63.6973C19.1871 63.6035 19.2555 63.5059 19.3023 63.4043V59.8359C19.2633 59.7305 19.1988 59.6309 19.109 59.5371C19.023 59.4395 18.9039 59.3613 18.7516 59.3027C18.5992 59.2441 18.4039 59.2148 18.1656 59.2148C17.8922 59.2148 17.6598 59.2812 17.4684 59.4141C17.277 59.5469 17.1227 59.7285 17.0055 59.959C16.8922 60.1895 16.8082 60.457 16.7535 60.7617C16.7027 61.0625 16.6773 61.3828 16.6773 61.7227ZM18.7633 67.2188V55.7812H19.8531V67.2188H18.7633ZM24.6477 61.6816V61.5469C24.6477 61.0898 24.7141 60.666 24.8469 60.2754C24.9797 59.8809 25.1711 59.5391 25.4211 59.25C25.6711 58.957 25.9738 58.7305 26.3293 58.5703C26.6848 58.4062 27.0832 58.3242 27.5246 58.3242C27.9699 58.3242 28.3703 58.4062 28.7258 58.5703C29.0852 58.7305 29.3898 58.957 29.6398 59.25C29.8937 59.5391 30.0871 59.8809 30.2199 60.2754C30.3527 60.666 30.4191 61.0898 30.4191 61.5469V61.6816C30.4191 62.1387 30.3527 62.5625 30.2199 62.9531C30.0871 63.3438 29.8937 63.6855 29.6398 63.9785C29.3898 64.2676 29.0871 64.4941 28.7316 64.6582C28.3801 64.8184 27.9816 64.8984 27.5363 64.8984C27.091 64.8984 26.6906 64.8184 26.3352 64.6582C25.9797 64.4941 25.675 64.2676 25.4211 63.9785C25.1711 63.6855 24.9797 63.3438 24.8469 62.9531C24.7141 62.5625 24.6477 62.1387 24.6477 61.6816ZM25.7316 61.5469V61.6816C25.7316 61.998 25.7687 62.2969 25.843 62.5781C25.9172 62.8555 26.0285 63.1016 26.177 63.3164C26.3293 63.5312 26.5187 63.7012 26.7453 63.8262C26.9719 63.9473 27.2355 64.0078 27.5363 64.0078C27.8332 64.0078 28.093 63.9473 28.3156 63.8262C28.5422 63.7012 28.7297 63.5312 28.8781 63.3164C29.0266 63.1016 29.1379 62.8555 29.2121 62.5781C29.2902 62.2969 29.3293 61.998 29.3293 61.6816V61.5469C29.3293 61.2344 29.2902 60.9395 29.2121 60.6621C29.1379 60.3809 29.0246 60.1328 28.8723 59.918C28.7238 59.6992 28.5363 59.5273 28.3098 59.4023C28.0871 59.2773 27.8254 59.2148 27.5246 59.2148C27.2277 59.2148 26.966 59.2773 26.7395 59.4023C26.5168 59.5273 26.3293 59.6992 26.177 59.918C26.0285 60.1328 25.9172 60.3809 25.843 60.6621C25.7687 60.9395 25.7316 61.2344 25.7316 61.5469ZM34.6336 58.4414V64.7812H33.5437V58.4414H34.6336ZM36.7605 58.4414V59.3203H31.4578V58.4414H36.7605ZM37.6937 61.6816V61.5469C37.6937 61.0898 37.7602 60.666 37.893 60.2754C38.0258 59.8809 38.2172 59.5391 38.4672 59.25C38.7172 58.957 39.0199 58.7305 39.3754 58.5703C39.7309 58.4062 40.1293 58.3242 40.5707 58.3242C41.016 58.3242 41.4164 58.4062 41.7719 58.5703C42.1312 58.7305 42.4359 58.957 42.6859 59.25C42.9398 59.5391 43.1332 59.8809 43.266 60.2754C43.3988 60.666 43.4652 61.0898 43.4652 61.5469V61.6816C43.4652 62.1387 43.3988 62.5625 43.266 62.9531C43.1332 63.3438 42.9398 63.6855 42.6859 63.9785C42.4359 64.2676 42.1332 64.4941 41.7777 64.6582C41.4262 64.8184 41.0277 64.8984 40.5824 64.8984C40.1371 64.8984 39.7367 64.8184 39.3812 64.6582C39.0258 64.4941 38.7211 64.2676 38.4672 63.9785C38.2172 63.6855 38.0258 63.3438 37.893 62.9531C37.7602 62.5625 37.6937 62.1387 37.6937 61.6816ZM38.7777 61.5469V61.6816C38.7777 61.998 38.8148 62.2969 38.8891 62.5781C38.9633 62.8555 39.0746 63.1016 39.223 63.3164C39.3754 63.5312 39.5648 63.7012 39.7914 63.8262C40.018 63.9473 40.2816 64.0078 40.5824 64.0078C40.8793 64.0078 41.1391 63.9473 41.3617 63.8262C41.5883 63.7012 41.7758 63.5312 41.9242 63.3164C42.0727 63.1016 42.184 62.8555 42.2582 62.5781C42.3363 62.2969 42.3754 61.998 42.3754 61.6816V61.5469C42.3754 61.2344 42.3363 60.9395 42.2582 60.6621C42.184 60.3809 42.0707 60.1328 41.9184 59.918C41.7699 59.6992 41.5824 59.5273 41.3559 59.4023C41.1332 59.2773 40.8715 59.2148 40.5707 59.2148C40.2738 59.2148 40.0121 59.2773 39.7855 59.4023C39.5629 59.5273 39.3754 59.6992 39.223 59.918C39.0746 60.1328 38.9633 60.3809 38.8891 60.6621C38.8148 60.9395 38.7777 61.2344 38.7777 61.5469Z" fill="#0A7D9E"/>
</svg>
