<svg width="37" height="37" viewBox="0 0 37 37" fill="none" xmlns="http://www.w3.org/2000/svg">
<path d="M31.844 23.184V7.62069C31.844 5.98347 30.5168 4.65625 28.8796 4.65625H8.1285C6.49129 4.65625 5.16406 5.98347 5.16406 7.62069V28.3718C5.16406 30.009 6.49129 31.3362 8.1285 31.3362H23.6918M31.844 26.8895V31.3362M31.844 35.7829V31.3362M31.844 31.3362H27.3974M31.844 31.3362H36.2907" stroke="#0A7D9E" stroke-linecap="round" stroke-linejoin="round"/>
<path d="M13.3171 15.0326C14.545 15.0326 15.5404 14.0372 15.5404 12.8093C15.5404 11.5814 14.545 10.5859 13.3171 10.5859C12.0892 10.5859 11.0938 11.5814 11.0938 12.8093C11.0938 14.0372 12.0892 15.0326 13.3171 15.0326Z" stroke="#0A7D9E" stroke-linecap="round" stroke-linejoin="round"/>
<path d="M31.8405 22.4423L24.4294 15.0312L8.125 31.3357" stroke="#0A7D9E" stroke-linecap="round" stroke-linejoin="round"/>
</svg>
