<svg width="40" height="40" viewBox="0 0 40 40" fill="none" xmlns="http://www.w3.org/2000/svg">
<path d="M40 20C40 31.0457 31.0457 40 20 40C8.95431 40 0 31.0457 0 20C0 8.95431 8.95431 0 20 0C31.0457 0 40 8.95431 40 20Z" fill="#0A7D9E"/>
<path d="M10.0006 24.9738V27.9846C9.99948 28.2642 10.0568 28.5408 10.169 28.7969C10.2812 29.053 10.4458 29.2829 10.6522 29.4719C10.8585 29.6608 11.1022 29.8047 11.3675 29.8942C11.6328 29.9838 11.9139 30.017 12.1928 29.9919C15.2872 29.6563 18.2596 28.601 20.8711 26.9108C23.3008 25.3699 25.3607 23.3141 26.9047 20.8892C28.6041 18.271 29.6618 15.2901 29.9918 12.1879C30.017 11.9104 29.9839 11.6307 29.8948 11.3666C29.8057 11.1025 29.6624 10.8599 29.4742 10.6541C29.2859 10.4483 29.0568 10.2838 28.8014 10.1712C28.546 10.0586 28.2699 10.0004 27.9907 10.0001H24.9739C24.4859 9.9953 24.0128 10.1678 23.6428 10.4854C23.2727 10.803 23.031 11.244 22.9627 11.7263C22.8354 12.6898 22.5993 13.6359 22.2588 14.5464C22.1235 14.9056 22.0942 15.296 22.1744 15.6713C22.2546 16.0466 22.441 16.3911 22.7113 16.664L23.9884 17.9386C22.5569 20.4512 20.4724 22.5315 17.9549 23.9602L16.6778 22.6856C16.4044 22.4158 16.0592 22.2298 15.6831 22.1498C15.3071 22.0698 14.9159 22.099 14.556 22.234C13.6436 22.5738 12.6957 22.8095 11.7302 22.9365C11.2418 23.0053 10.7956 23.2509 10.4767 23.6265C10.1578 24.0021 9.98838 24.4817 10.0006 24.9738Z" stroke="white" stroke-width="2" stroke-linecap="round" stroke-linejoin="round"/>
</svg>
