<svg width="170" height="174" viewBox="0 0 170 174" fill="none" xmlns="http://www.w3.org/2000/svg">
<path fill-rule="evenodd" clip-rule="evenodd" d="M120.126 136.944H155.187C161.159 136.944 166 132.103 166 126.131C166 121.318 163.862 116.753 160.164 113.672L149.208 104.542C145.85 101.744 143.909 97.5986 143.909 93.2278V63.3075C143.909 30.7729 117.535 4.39844 85 4.39844C52.4654 4.39844 26.0909 30.7729 26.0909 63.3075V93.2278C26.0909 97.5986 24.1495 101.744 20.7918 104.542L9.8358 113.672C6.13801 116.753 4 121.318 4 126.131C4 132.103 8.84096 136.944 14.8126 136.944H50.2803C51.4854 155.182 66.6603 169.602 85.2031 169.602C103.746 169.602 118.921 155.182 120.126 136.944ZM85.2031 163.602C70.1998 163.602 57.8576 152.208 56.3564 137.602H114.05C112.549 152.208 100.206 163.602 85.2031 163.602Z" fill="url(#paint0_linear_2281_25216)"/>
<path d="M120.126 136.944V133.262H116.679L116.452 136.701L120.126 136.944ZM160.164 113.672L157.807 116.5L160.164 113.672ZM149.208 104.542L151.565 101.713L149.208 104.542ZM20.7918 104.542L18.4348 101.713H18.4348L20.7918 104.542ZM9.8358 113.672L12.1928 116.5H12.1928L9.8358 113.672ZM50.2803 136.944L53.9541 136.701L53.7268 133.262H50.2803V136.944ZM56.3564 137.602V133.92H52.2768L52.6939 137.978L56.3564 137.602ZM114.05 137.602L117.712 137.978L118.129 133.92H114.05V137.602ZM155.187 133.262H120.126V140.626H155.187V133.262ZM162.318 126.131C162.318 130.07 159.126 133.262 155.187 133.262V140.626C163.192 140.626 169.682 134.136 169.682 126.131H162.318ZM157.807 116.5C160.666 118.882 162.318 122.411 162.318 126.131H169.682C169.682 120.225 167.058 114.624 162.521 110.843L157.807 116.5ZM146.851 107.37L157.807 116.5L162.521 110.843L151.565 101.713L146.851 107.37ZM140.227 93.2278C140.227 98.6913 142.654 103.872 146.851 107.37L151.565 101.713C149.047 99.6146 147.591 96.5059 147.591 93.2278H140.227ZM140.227 63.3075V93.2278H147.591V63.3075H140.227ZM85 8.08026C115.501 8.08026 140.227 32.8063 140.227 63.3075H147.591C147.591 28.7395 119.568 0.716619 85 0.716619V8.08026ZM29.7727 63.3075C29.7727 32.8063 54.4988 8.08026 85 8.08026V0.716619C50.432 0.716619 22.4091 28.7395 22.4091 63.3075H29.7727ZM29.7727 93.2278V63.3075H22.4091V93.2278H29.7727ZM23.1488 107.37C27.346 103.872 29.7727 98.6913 29.7727 93.2278H22.4091C22.4091 96.5059 20.953 99.6146 18.4348 101.713L23.1488 107.37ZM12.1928 116.5L23.1488 107.37L18.4348 101.713L7.47875 110.843L12.1928 116.5ZM7.68182 126.131C7.68182 122.411 9.33449 118.882 12.1928 116.5L7.47875 110.843C2.94154 114.624 0.318182 120.225 0.318182 126.131H7.68182ZM14.8126 133.262C10.8744 133.262 7.68182 130.07 7.68182 126.131H0.318182C0.318182 134.136 6.80755 140.626 14.8126 140.626V133.262ZM50.2803 133.262H14.8126V140.626H50.2803V133.262ZM85.2031 165.92C68.6124 165.92 55.0322 153.017 53.9541 136.701L46.6065 137.187C47.9386 157.347 64.7082 173.283 85.2031 173.283V165.92ZM116.452 136.701C115.374 153.017 101.794 165.92 85.2031 165.92V173.283C105.698 173.283 122.468 157.347 123.8 137.187L116.452 136.701ZM52.6939 137.978C54.3861 154.443 68.2927 167.283 85.2031 167.283V159.92C72.1069 159.92 61.3291 149.973 60.0189 137.225L52.6939 137.978ZM114.05 133.92H56.3564V141.283H114.05V133.92ZM85.2031 167.283C102.114 167.283 116.02 154.443 117.712 137.978L110.387 137.225C109.077 149.973 98.2993 159.92 85.2031 159.92V167.283Z" fill="url(#paint1_linear_2281_25216)"/>
<defs>
<linearGradient id="paint0_linear_2281_25216" x1="39.9749" y1="-118.586" x2="215.418" y2="-88.7456" gradientUnits="userSpaceOnUse">
<stop stop-color="#2A9DBE"/>
<stop offset="1" stop-color="#035F7C"/>
</linearGradient>
<linearGradient id="paint1_linear_2281_25216" x1="39.9749" y1="-118.586" x2="215.418" y2="-88.7456" gradientUnits="userSpaceOnUse">
<stop stop-color="#2A9DBE"/>
<stop offset="1" stop-color="#035F7C"/>
</linearGradient>
</defs>
</svg>
