<svg width="16" height="16" viewBox="0 0 16 16" fill="none" xmlns="http://www.w3.org/2000/svg">
<path d="M7.37585 0.474787C7.5723 -0.158262 8.42769 -0.158263 8.62415 0.474786L10.0628 5.11057C10.1506 5.39368 10.4026 5.58536 10.6869 5.58536H15.3425C15.9782 5.58536 16.2425 6.43712 15.7282 6.82836L11.9618 9.69343C11.7318 9.8684 11.6356 10.1785 11.7234 10.4617L13.162 15.0974C13.3585 15.7305 12.6665 16.2569 12.1522 15.8657L8.38575 13.0006C8.15573 12.8256 7.84427 12.8256 7.61425 13.0006L3.84785 15.8657C3.33352 16.2569 2.6415 15.7305 2.83795 15.0974L4.27659 10.4617C4.36445 10.1785 4.2682 9.8684 4.03819 9.69343L0.271783 6.82836C-0.242546 6.43712 0.0217835 5.58536 0.657529 5.58536H5.31306C5.59737 5.58536 5.84935 5.39368 5.93721 5.11057L7.37585 0.474787Z" fill="#FFB800"/>
</svg>
