<svg width="17" height="16" viewBox="0 0 17 16" fill="none" xmlns="http://www.w3.org/2000/svg">
<path d="M8.12585 0.474787C8.3223 -0.158262 9.17769 -0.158263 9.37415 0.474786L10.8128 5.11057C10.9006 5.39368 11.1526 5.58536 11.4369 5.58536H16.0925C16.7282 5.58536 16.9925 6.43712 16.4782 6.82836L12.7118 9.69343C12.4818 9.8684 12.3856 10.1785 12.4734 10.4617L13.912 15.0974C14.1085 15.7305 13.4165 16.2569 12.9022 15.8657L9.13575 13.0006C8.90573 12.8256 8.59427 12.8256 8.36425 13.0006L4.59785 15.8657C4.08352 16.2569 3.3915 15.7305 3.58795 15.0974L5.02659 10.4617C5.11445 10.1785 5.0182 9.8684 4.78819 9.69343L1.02178 6.82836C0.507454 6.43712 0.771784 5.58536 1.40753 5.58536H6.06306C6.34737 5.58536 6.59935 5.39368 6.68721 5.11057L8.12585 0.474787Z" fill="#FFB800"/>
</svg>
