<svg width="16" height="16" viewBox="0 0 16 16" fill="none" xmlns="http://www.w3.org/2000/svg">
<path d="M7.71597 1.13079C7.90463 0.550154 8.72608 0.550153 8.91473 1.13079L10.2963 5.38276C10.3807 5.64243 10.6226 5.81824 10.8957 5.81824H15.3665C15.977 5.81824 16.2308 6.59948 15.7369 6.95833L12.12 9.58619C11.8991 9.74668 11.8066 10.0311 11.891 10.2908L13.2726 14.5428C13.4612 15.1234 12.7967 15.6063 12.3027 15.2474L8.68579 12.6195C8.4649 12.4591 8.1658 12.4591 7.94491 12.6195L4.32797 15.2474C3.83405 15.6063 3.16949 15.1234 3.35815 14.5428L4.7397 10.2908C4.82407 10.0311 4.73164 9.74668 4.51075 9.58619L0.89381 6.95833C0.399891 6.59948 0.653732 5.81824 1.26425 5.81824H5.73504C6.00807 5.81824 6.25005 5.64243 6.33442 5.38276L7.71597 1.13079Z" fill="#999999"/>
</svg>
