<svg width="27" height="25" viewBox="0 0 27 25" fill="none" xmlns="http://www.w3.org/2000/svg">
<path d="M21.9424 13.0297V8.00112C21.9424 7.51615 21.7498 7.05104 21.4068 6.70812C21.0639 6.3652 20.5988 6.17254 20.1138 6.17254H16.4567L14.6281 3.42969H9.14241L7.31384 6.17254H3.6567C3.17173 6.17254 2.70662 6.3652 2.3637 6.70812C2.02078 7.05104 1.82812 7.51615 1.82812 8.00112V18.0583C1.82813 18.5432 2.02078 19.0083 2.3637 19.3513C2.70662 19.6942 3.17173 19.8868 3.6567 19.8868H15.0853M21.9424 16.2297V23.544M18.2853 19.8868H25.5996" stroke="white" stroke-width="2" stroke-linecap="round" stroke-linejoin="round"/>
<path d="M11.8915 16.2283C13.9113 16.2283 15.5487 14.591 15.5487 12.5712C15.5487 10.5514 13.9113 8.91406 11.8915 8.91406C9.87173 8.91406 8.23438 10.5514 8.23438 12.5712C8.23438 14.591 9.87173 16.2283 11.8915 16.2283Z" stroke="white" stroke-width="2" stroke-linecap="round" stroke-linejoin="round"/>
</svg>
