<svg width="26" height="26" viewBox="0 0 26 26" fill="none" xmlns="http://www.w3.org/2000/svg">
<path fill-rule="evenodd" clip-rule="evenodd" d="M16.8945 9.11375H23.4226C22.7011 5.86565 20.1426 3.30718 16.8945 2.58573V9.11375ZM15.0195 1.13114C15.0195 0.78596 15.3 0.504202 15.6446 0.524466C20.9362 0.83566 25.1726 5.07209 25.4838 10.3637C25.5041 10.7083 25.2223 10.9888 24.8771 10.9888H15.6445C15.2994 10.9888 15.0195 10.7089 15.0195 10.3638V1.13114Z" fill="#0A7D9E"/>
<path fill-rule="evenodd" clip-rule="evenodd" d="M10.6704 4.89252C5.8389 5.36319 2.0625 9.43686 2.0625 14.3922C2.0625 19.6639 6.33599 23.9374 11.6076 23.9374C16.5629 23.9374 20.6364 20.1612 21.1073 15.3299H11.9229C11.2327 15.3299 10.6731 14.7705 10.6729 14.0802L10.6704 4.89252ZM11.267 2.97712C11.9827 2.95612 12.545 3.53594 12.5452 4.22178L12.5477 13.4549H21.7777C22.4637 13.4549 23.0438 14.0173 23.0227 14.7331C22.8422 20.8829 17.8007 25.8124 11.6076 25.8124C5.30046 25.8124 0.1875 20.6994 0.1875 14.3922C0.1875 8.19904 5.1171 3.15754 11.267 2.97712Z" fill="#0A7D9E"/>
</svg>
