<svg width="24" height="24" viewBox="0 0 24 24" fill="none" xmlns="http://www.w3.org/2000/svg">
<path fill-rule="evenodd" clip-rule="evenodd" d="M4.22708 3.05833C3.5816 3.05833 3.05833 3.5816 3.05833 4.22708V17.8625C3.05833 18.508 3.5816 19.0312 4.22708 19.0312H12.9927C13.423 19.0312 13.7719 19.3801 13.7719 19.8104C13.7719 20.2407 13.423 20.5896 12.9927 20.5896H4.22708C2.72096 20.5896 1.5 19.3686 1.5 17.8625V4.22708C1.5 2.72096 2.72096 1.5 4.22708 1.5H17.8625C19.3686 1.5 20.5896 2.72096 20.5896 4.22708V12.9927C20.5896 13.423 20.2407 13.7719 19.8104 13.7719C19.3801 13.7719 19.0312 13.423 19.0312 12.9927V4.22708C19.0312 3.5816 18.508 3.05833 17.8625 3.05833H4.22708ZM19.8104 15.6224C20.2407 15.6224 20.5896 15.9712 20.5896 16.4016V19.0312H23.2193C23.6496 19.0312 23.9984 19.3801 23.9984 19.8104C23.9984 20.2407 23.6496 20.5896 23.2193 20.5896H20.5896V23.2193C20.5896 23.6496 20.2407 23.9984 19.8104 23.9984C19.3801 23.9984 19.0312 23.6496 19.0312 23.2193V20.5896H16.4016C15.9712 20.5896 15.6224 20.2407 15.6224 19.8104C15.6224 19.3801 15.9712 19.0312 16.4016 19.0312H19.0312V16.4016C19.0312 15.9712 19.3801 15.6224 19.8104 15.6224Z" fill="#0A7D9E"/>
<path fill-rule="evenodd" clip-rule="evenodd" d="M7.63464 6.96458C7.2581 6.96458 6.95286 7.26982 6.95286 7.64635C6.95286 8.02289 7.2581 8.32812 7.63464 8.32812C8.01117 8.32812 8.31641 8.02289 8.31641 7.64635C8.31641 7.26982 8.01117 6.96458 7.63464 6.96458ZM5.39453 7.64635C5.39453 6.40918 6.39746 5.40625 7.63464 5.40625C8.87181 5.40625 9.87474 6.40918 9.87474 7.64635C9.87474 8.88353 8.87181 9.88646 7.63464 9.88646C6.39746 9.88646 5.39453 8.88353 5.39453 7.64635Z" fill="#0A7D9E"/>
<path fill-rule="evenodd" clip-rule="evenodd" d="M14.3897 7.57978C14.694 7.27549 15.1873 7.27549 15.4916 7.57978L20.3614 12.4496C20.6657 12.7539 20.6657 13.2472 20.3614 13.5515C20.0571 13.8558 19.5637 13.8558 19.2595 13.5515L14.9406 9.23264L4.29106 19.8822C3.98677 20.1865 3.49343 20.1865 3.18915 19.8822C2.88487 19.5779 2.88487 19.0846 3.18915 18.7803L14.3897 7.57978Z" fill="#0A7D9E"/>
</svg>
