<svg width="30" height="31" viewBox="0 0 30 31" fill="none" xmlns="http://www.w3.org/2000/svg">
<path fill-rule="evenodd" clip-rule="evenodd" d="M2.1875 15.6953C2.1875 8.61916 7.92385 2.88281 15 2.88281C22.0761 2.88281 27.8125 8.61916 27.8125 15.6953C27.8125 22.7715 22.0761 28.5078 15 28.5078C7.92385 28.5078 2.1875 22.7715 2.1875 15.6953ZM15 4.75781C8.95939 4.75781 4.0625 9.6547 4.0625 15.6953C4.0625 21.7359 8.95939 26.6328 15 26.6328C21.0406 26.6328 25.9375 21.7359 25.9375 15.6953C25.9375 9.6547 21.0406 4.75781 15 4.75781Z" fill="#0A7D9E"/>
<path d="M14.0625 8.50781C14.0625 7.99005 14.4822 7.57031 15 7.57031C15.5178 7.57031 15.9375 7.99005 15.9375 8.50781V17.8828C15.9375 18.4006 15.5178 18.8203 15 18.8203C14.4822 18.8203 14.0625 18.4006 14.0625 17.8828V8.50781Z" fill="#0A7D9E"/>
<path d="M13.5938 22.7266C13.5938 21.9499 14.2233 21.3203 15 21.3203C15.7767 21.3203 16.4062 21.9499 16.4062 22.7266C16.4062 23.5032 15.7767 24.1328 15 24.1328C14.2233 24.1328 13.5938 23.5032 13.5938 22.7266Z" fill="#0A7D9E"/>
</svg>
