<svg width="62" height="30" viewBox="0 0 62 30" fill="none" xmlns="http://www.w3.org/2000/svg">
<path d="M20.1603 27.2087C20.119 27.2087 20.0855 27.2432 20.0855 27.2856V27.7469C20.0855 27.7894 20.119 27.8238 20.1603 27.8238H20.9838V29.8997C20.9838 29.9421 21.0173 29.9766 21.0587 29.9766H21.5079C21.5492 29.9766 21.5827 29.9421 21.5827 29.8997V27.8238H22.4062C22.4475 27.8238 22.4811 27.7894 22.4811 27.7469V27.2856C22.4811 27.2432 22.4475 27.2087 22.4062 27.2087H20.1603Z" fill="white"/>
<path d="M39.2462 27.2856C39.2462 27.2432 39.2127 27.2087 39.1713 27.2087H38.7221C38.6808 27.2087 38.6473 27.2432 38.6473 27.2856V29.8997C38.6473 29.9421 38.6808 29.9766 38.7221 29.9766H40.5314C40.5727 29.9766 40.6063 29.9421 40.6063 29.8997V29.4384C40.6063 29.3959 40.5727 29.3615 40.5314 29.3615H39.2462V27.2856Z" fill="white"/>
<path d="M34.7583 29.8997C34.7583 29.9421 34.7918 29.9766 34.8332 29.9766H37.079C37.1204 29.9766 37.1539 29.9421 37.1539 29.8997V29.4384C37.1539 29.3959 37.1204 29.3615 37.079 29.3615H35.3572V28.9002H36.4801C36.5215 28.9002 36.555 28.8658 36.555 28.8233V28.362C36.555 28.3195 36.5215 28.2851 36.4801 28.2851H35.3572V27.8238H37.079C37.1204 27.8238 37.1539 27.7894 37.1539 27.7469V27.2856C37.1539 27.2432 37.1204 27.2087 37.079 27.2087H34.8332C34.7918 27.2087 34.7583 27.2432 34.7583 27.2856V29.8997Z" fill="white"/>
<path fill-rule="evenodd" clip-rule="evenodd" d="M24.0493 27.2087C24.0081 27.2087 23.9744 27.2432 23.9744 27.2856V29.8997C23.9744 29.9421 24.0081 29.9766 24.0493 29.9766H24.5733V29.1308H25.1152L25.6527 29.9766H26.368L25.7919 29.0705C26.13 28.938 26.37 28.6019 26.37 28.2082V28.1313C26.37 27.6218 25.9679 27.2087 25.4717 27.2087H24.0493ZM25.4343 28.5158H24.5733V27.8238H25.4343C25.6202 27.8238 25.7711 27.9787 25.7711 28.1698C25.7711 28.3609 25.6202 28.5158 25.4343 28.5158Z" fill="white"/>
<path d="M30.8675 27.2087L31.9208 29.8357C31.955 29.921 32.0358 29.9766 32.1256 29.9766H32.4363C32.526 29.9766 32.6069 29.921 32.641 29.8357L33.6944 27.2087H33.0466L32.2808 29.1183L31.5152 27.2087H30.8675Z" fill="white"/>
<path fill-rule="evenodd" clip-rule="evenodd" d="M28.5126 27.2563L27.4219 29.9766H28.0696L28.2544 29.5153H29.416L29.6011 29.9766H30.2488L29.158 27.2563C29.1466 27.2275 29.1192 27.2087 29.0887 27.2087H28.582C28.5515 27.2087 28.5241 27.2275 28.5126 27.2563ZM29.1695 28.9002L28.8352 28.067L28.5012 28.9002H29.1695Z" fill="white"/>
<path d="M16.979 19.8698C16.2247 21.1387 15.4183 22.6347 15.1452 23.7834C17.044 23.3827 19.9703 21.3257 19.9703 19.9767C19.9703 19.6561 19.3981 19.2955 18.5007 19.2955C18.2535 19.2955 17.9674 19.3489 17.6813 19.429C17.4342 19.5893 17.2001 19.7362 16.979 19.8698Z" fill="white"/>
<path fill-rule="evenodd" clip-rule="evenodd" d="M35.7888 0.993151L34.9209 0.997456V1.1094L34.883 1.11866C34.6384 1.17895 34.3936 1.23931 34.1513 1.31002C33.6864 1.44907 33.2297 1.57401 32.7498 1.64811C32.4294 1.69286 32.1507 1.76051 31.8526 1.89298L31.8522 1.89371L31.8518 1.89456C31.8246 1.95037 31.811 1.97817 31.8034 2.00749C31.7961 2.03597 31.7946 2.06596 31.7916 2.12464L31.7916 2.12552L31.7925 2.27296L31.7931 2.43257L31.7944 2.5996L31.797 3.07417L31.7978 3.18029C31.465 3.22409 31.1469 3.30016 30.8231 3.38668C30.7131 3.41642 30.6033 3.446 30.4931 3.47468C30.1363 3.56748 29.7906 3.66224 29.4608 3.83335C29.2967 3.92617 29.1424 3.99607 28.9624 4.05133C28.8091 4.09465 28.71 4.14497 28.5752 4.23586L28.5741 4.23663C28.489 4.29744 28.4459 4.32821 28.4008 4.35567C28.3547 4.38368 28.3068 4.40823 28.2101 4.45777C27.8616 4.63651 27.5461 4.81559 27.2467 5.07278C27.1005 5.20603 26.9768 5.30679 26.8024 5.3992C26.5946 5.50091 26.4745 5.6202 26.3563 5.82138L26.2639 5.9788L26.2466 5.99856C26.025 6.24942 25.854 6.44312 25.8358 6.79737C25.8495 7.01828 25.8853 7.13403 26.0345 7.2941C26.1472 7.4463 26.2042 7.52313 26.2436 7.60844C26.2834 7.69497 26.305 7.79024 26.3484 7.98165L26.3491 7.98476L26.3735 8.10567C26.5663 8.06041 26.7219 7.98672 26.8963 7.89499C26.9674 7.76407 27.0881 7.71114 27.2208 7.653C27.2516 7.63953 27.2831 7.62577 27.3148 7.61068C27.4965 7.53458 27.6782 7.47632 27.8685 7.42681C27.9986 7.38418 28.1148 7.33423 28.2387 7.27617C28.5461 7.13405 28.8624 7.02379 29.1815 6.9128L29.3703 6.84637L29.7072 6.72926C29.89 6.66634 30.0732 6.6045 30.2568 6.54441C30.7677 6.37674 31.2437 6.1981 31.7146 5.93333C31.7146 5.93333 33.267 4.99071 34.1513 4.23586C35.5845 3.01238 37.4401 2.5996 37.4401 2.5996C37.3643 2.66521 37.1832 2.75699 36.9058 2.89751C36.3846 3.16157 35.5237 3.59773 34.3838 4.35567C34.2902 4.39479 33.6513 4.86514 33.03 5.32262C32.4466 5.75213 31.8783 6.17047 31.7916 6.20968C31.3909 6.38752 29.2624 7.23656 28.8459 7.37106C28.3068 7.54807 27.7925 7.74166 27.2959 8.02193C27.1795 8.08464 27.0847 8.12664 26.9629 8.15332C26.8981 8.19363 26.834 8.23589 26.7706 8.28064C26.5556 8.41749 26.4479 8.48599 26.3369 8.54802C26.2254 8.61016 26.1104 8.66586 25.8806 8.77718L25.8256 8.6094C25.5593 8.57643 25.3819 8.68528 25.1681 8.83328C24.9891 8.98554 24.8145 9.10548 24.6099 9.21808L24.5534 9.249C24.2131 9.43545 23.8794 9.61833 23.5757 9.86523C23.5363 9.91785 23.5096 9.95343 23.4909 9.993C23.452 10.0756 23.4479 10.1756 23.4353 10.4844C23.4329 10.7173 23.4297 10.8715 23.3321 11.0832C23.224 11.2905 23.224 11.2905 23.2504 11.6878C23.2675 11.7052 23.2797 11.7176 23.2938 11.7269C23.3289 11.7498 23.3765 11.7531 23.5414 11.7647C23.6714 11.77 23.6714 11.77 23.7983 11.7997C23.9284 11.9123 23.9982 11.9648 24.1696 11.99L24.3428 11.9923L24.5324 11.9968L24.9271 12.002L25.1167 12.0063L25.1283 12.0064C25.2908 12.0084 25.4117 12.0098 25.5623 12.0784L25.5657 12.0804C25.6053 12.1032 25.6287 12.1167 25.6535 12.1271C25.6882 12.1417 25.7255 12.1504 25.8134 12.1707L25.8144 12.1709L25.9762 12.1985L26.1398 12.2269L26.2639 12.2475V12.8072L25.5681 12.8243L25.2845 12.8316L24.8659 12.8419L24.7336 12.8454C24.5857 12.8487 24.4391 12.8544 24.2914 12.8631L24.2907 12.8635C24.237 12.8932 24.2102 12.9081 24.182 12.9191C24.1538 12.93 24.1241 12.9372 24.065 12.9514C23.8353 13.0132 23.6568 13.071 23.4593 13.2094C23.0791 13.5122 22.6036 13.7772 22.1374 13.9091C22.0043 13.9434 21.8836 13.9811 21.7588 14.04C21.5647 14.1432 21.3701 14.2444 21.1721 14.3393L21.0073 14.4165L20.6752 14.5737L20.6403 14.5898C20.629 14.5793 20.6179 14.569 20.6068 14.559C20.2012 14.1897 19.5299 13.7562 18.7869 13.7562C17.5744 13.7562 15.6062 15.0303 15.6062 15.0303C15.6062 15.0303 13.891 15.9706 12.7847 16.5588C12.2796 16.8273 11.8911 17.0781 11.5255 17.3142C10.8094 17.7765 10.1813 18.182 8.93779 18.5523C8.80345 18.588 8.71227 18.6122 8.62323 18.643C8.43515 18.7079 8.25667 18.8018 7.70127 19.094C7.61212 19.141 7.52308 19.1894 7.43381 19.2378L7.43305 19.2383L7.4323 19.2387C7.08603 19.4267 6.73614 19.6167 6.36451 19.7387L6.1554 19.8034C5.97449 19.9059 5.84484 19.9693 5.63776 19.9929L5.43263 19.9941C5.31578 19.996 4.94393 19.9976 4.70684 19.9986L4.70581 19.9986C4.63314 19.9989 4.57323 19.9991 4.53735 19.9993C4.4212 20 4.3051 20.0008 4.18896 20.0027L4.07826 20.0046L4.07613 20.0046C3.86149 20.0058 3.72897 20.0066 3.53906 20.1115C3.47995 20.159 3.45077 20.1825 3.41765 20.1952C3.38537 20.2076 3.34935 20.2097 3.27824 20.214C3.12071 20.2164 2.97078 20.2277 2.81484 20.2512C2.49567 20.3683 2.19446 20.527 1.99297 20.8109C1.98939 20.8841 1.98723 20.9283 1.99604 20.97C2.00945 21.0336 2.04828 21.0915 2.14621 21.2376C2.23216 21.3027 2.28458 21.3425 2.34313 21.3666C2.43462 21.4043 2.54111 21.4041 2.81399 21.4034L2.99976 21.3986C3.03843 21.3987 3.0772 21.3991 3.11582 21.3996C3.38498 21.4027 3.652 21.4058 3.90105 21.2873C3.98571 21.2407 4.02902 21.2169 4.07516 21.2027C4.12351 21.1877 4.17495 21.1832 4.2803 21.174L4.48256 21.1642C4.54886 21.1606 4.7489 21.1571 4.93466 21.1539L4.93577 21.1539C5.08511 21.1513 5.22538 21.1489 5.27874 21.1467L4.78733 21.3146L4.67775 21.3706C4.49462 21.5532 4.38494 21.6746 4.36955 21.9408C4.389 22.062 4.3974 22.1144 4.423 22.1556C4.44247 22.1869 4.47188 22.2118 4.52365 22.2556L4.67775 22.3221C4.80703 22.4101 5.24525 22.471 5.46455 22.5015C5.49249 22.5054 5.51693 22.5088 5.53666 22.5117L5.86914 22.513L6.04925 22.511L6.22999 22.513L6.41382 22.5123C6.58577 22.5117 6.67423 22.5114 6.81752 22.4061C6.86904 22.3579 6.89344 22.3351 6.92212 22.3222C6.94789 22.3107 6.97715 22.3072 7.03266 22.3006L7.14807 22.2994L7.27627 22.2956C7.3086 22.2953 7.34054 22.2951 7.37209 22.295C7.62267 22.2937 7.85076 22.2926 8.08831 22.1841C8.164 22.1361 8.19929 22.1137 8.23728 22.0983C8.27044 22.0848 8.3057 22.0766 8.37166 22.0613L8.38323 22.0591C8.50014 22.0377 8.61543 22.0165 8.7306 21.9863C8.90582 21.8669 9.02652 21.8513 9.2325 21.8302C9.43162 21.8118 9.62842 21.7915 9.82643 21.7624C9.91086 21.6949 9.94772 21.6655 9.98954 21.6508C10.0219 21.6394 10.0573 21.637 10.1201 21.6326L10.2705 21.6273L10.4337 21.6207L10.6038 21.6155C10.8012 21.6079 10.9987 21.6006 11.1962 21.5945C11.2003 21.6577 11.2024 21.691 11.2026 21.7242C11.2029 21.7608 11.2007 21.7974 11.1962 21.8743C11.0467 22.1137 10.8953 22.2339 10.6551 22.3746C10.3188 22.5699 10.0436 22.7965 9.88122 23.1616C9.97234 23.1649 10.0635 23.1679 10.1546 23.1698L10.2682 23.1721C10.377 23.1751 10.4314 23.1766 10.4858 23.1753C10.5401 23.1739 10.5944 23.1698 10.7031 23.1616C10.9683 23.0341 11.162 22.9744 11.4558 22.9705L11.5919 22.971C11.7899 22.9685 11.9879 22.9666 12.1859 22.9658C12.2963 22.9653 12.4067 22.9647 12.5172 22.9637C12.4101 23.2953 12.4459 23.5859 12.4657 23.7095C12.5208 24.0522 12.6726 24.3567 12.7847 24.5518C12.9682 24.8715 13.2765 25.2908 13.6807 25.6068C13.8308 25.8142 14.0156 26.015 14.229 26.1667C14.3142 26.2273 14.4384 26.3049 14.5959 26.3643C14.7407 26.419 15.0164 26.4974 15.3538 26.4307C15.6999 26.3622 15.9988 26.162 16.1994 25.8792C17.2216 25.6036 18.3129 25.0489 19.2189 24.3683L19.2361 24.3553C19.309 24.479 19.3854 24.5899 19.4582 24.6845C19.6179 24.8919 19.8263 25.1092 20.0835 25.2844C20.3342 25.4551 20.7071 25.6363 21.1669 25.6363C21.5354 25.6363 21.8047 25.4823 21.887 25.4341C22.0062 25.3644 22.1044 25.2868 22.1722 25.2295C22.3106 25.1124 22.4476 24.972 22.5683 24.8405L22.5849 24.8224C22.689 24.9366 22.7996 25.0341 22.9102 25.114C23.1134 25.2609 23.4581 25.452 23.8892 25.4575C24.088 25.4601 24.4039 25.4213 24.7083 25.2106C24.8655 25.3069 25.0528 25.3957 25.2615 25.4453C25.4056 25.4795 25.7886 25.5523 26.2066 25.3532C26.4445 25.2399 26.6678 25.0481 26.8196 24.7762C26.9008 24.6306 26.9484 24.4858 26.9747 24.3526C27.1391 23.8932 27.318 23.4732 27.5033 23.0912C27.543 23.1205 27.5824 23.1474 27.621 23.1721C27.6721 23.2048 27.7251 23.2358 27.7796 23.2647C27.882 23.6945 28.0884 24.0649 28.3056 24.3401C28.4673 24.5449 28.6701 24.743 28.911 24.899C29.1408 25.0477 29.4853 25.2088 29.9068 25.2088C30.4108 25.2088 30.7642 24.9352 30.8678 24.8539C31.0227 24.7323 31.1568 24.5915 31.2579 24.4783C31.2798 24.4537 31.3021 24.4283 31.3246 24.4021C31.4653 24.5641 31.6168 24.6969 31.7626 24.7991C31.99 24.9587 32.3388 25.1417 32.7544 25.1628C32.9619 25.1733 33.3404 25.1491 33.6995 24.8779C33.7987 24.8029 33.8831 24.7195 33.9541 24.6305C34.3995 25.0941 35.0524 25.4626 35.8894 25.4626C36.9522 25.4626 37.9115 24.9154 38.6541 24.2841C38.6603 24.2923 38.6664 24.3004 38.6725 24.3084C38.6807 24.3191 38.6889 24.3296 38.6971 24.3401C38.8588 24.5449 39.0617 24.743 39.3026 24.899C39.5324 25.0477 39.8769 25.2088 40.2983 25.2088C40.8024 25.2088 41.1558 24.9352 41.2593 24.8539C41.4142 24.7323 41.5483 24.5915 41.6494 24.4783C41.6714 24.4537 41.6936 24.4283 41.7161 24.4021C41.8568 24.5641 42.0084 24.6969 42.1541 24.7991C42.2505 24.8667 42.3688 24.9386 42.5046 25.0006C42.5015 25.0038 42.4984 25.0071 42.4953 25.0103C42.3376 25.1782 42.2552 25.35 42.215 25.4469C42.1318 25.6472 42.1039 25.8347 42.0928 25.9563C42.0689 26.2174 42.0934 26.5142 42.1815 26.8062C42.271 27.1029 42.4491 27.4667 42.7887 27.7615C43.1473 28.0728 43.5954 28.2275 44.0699 28.2275C46.3764 28.2275 47.8899 26.4136 48.7335 24.8789C49.1792 24.0682 49.5079 23.2173 49.7268 22.4678C49.9387 21.7422 50.0748 21.0187 50.0748 20.4709C50.0748 20.1121 49.991 19.7972 49.8644 19.5284C53.1454 19.5016 56.4333 19.7859 59.6082 20.4808C61.3216 19.9186 61.8234 19.6203 61.9878 17.9284C61.9878 17.8912 61.9908 17.86 61.9939 17.8289C62 17.7667 62.0061 17.7046 61.9878 17.5926C61.9878 16.7016 59.5233 15.3321 58.9126 15.2803C58.8236 15.2776 58.7344 15.2742 58.6454 15.2698C58.4754 15.1265 58.3894 15.0541 58.3207 14.9672C58.2504 14.8783 58.1983 14.7742 58.0928 14.5638L58.0727 14.5227C57.9388 14.2489 57.8106 13.987 57.6045 13.7587C57.5392 13.745 57.5059 13.738 57.4724 13.7377C57.4374 13.7373 57.4023 13.7443 57.3305 13.7587C57.1692 13.8706 57.0701 13.925 56.8739 13.9483C54.9824 13.9536 53.1665 13.7218 51.3235 13.2847L51.2076 13.2864C50.9156 13.2896 50.662 13.3022 50.4095 13.4631L50.3172 13.5348C50.1819 13.6392 50.0484 13.7424 49.9337 13.8706V13.9825H49.8241C49.584 14.1853 49.3839 14.4193 49.2146 14.6857C48.8856 15.2182 48.457 15.4745 48.0059 15.7443C47.7248 15.9125 47.4348 16.0859 47.1549 16.3346C46.7104 16.7295 45.2993 16.5811 46.0354 15.9227C46.1114 15.8547 46.1873 15.7864 46.2627 15.7176C46.3519 15.6223 46.4427 15.5283 46.5366 15.4378L46.5495 15.4316C46.7075 15.3564 46.8434 15.2916 46.9702 15.166L46.9914 15.143L47.0181 15.1139C47.1661 14.952 47.2987 14.807 47.5092 14.7241C47.6077 14.6854 47.6517 14.6681 47.69 14.642C47.7208 14.621 47.7479 14.5942 47.7968 14.5457C47.8474 14.4876 47.8749 14.4561 47.9067 14.43C47.9445 14.3991 47.9884 14.376 48.0845 14.3254C48.1949 14.2643 48.2957 14.202 48.3967 14.1255C48.5832 13.9766 48.7624 13.8456 48.9748 13.7377L49.1666 13.6467L49.1667 13.5348C49.2557 13.5044 49.2965 13.4905 49.3352 13.472C49.3679 13.4564 49.3991 13.4375 49.4566 13.4025C49.5607 13.3382 49.6674 13.278 49.7755 13.221L49.9508 13.1325L50.1282 13.0426L50.2624 12.9751V12.8072C50.0578 12.4936 49.6937 12.3236 49.3481 12.209C49.2689 12.1859 49.1902 12.1612 49.1118 12.1355C48.8375 11.9965 48.6285 11.9455 48.3218 11.9414L48.1701 11.9431C47.6684 11.9471 47.1986 12.0066 46.7104 12.122C46.5684 12.1569 46.4265 12.1916 46.284 12.2242C45.5229 12.3964 44.7713 12.6033 44.0203 12.8158L43.8655 12.8596C43.2692 13.0274 42.6779 13.2031 42.0919 13.4058C41.7539 13.5229 41.4181 13.6355 41.0711 13.7218C40.9707 13.7457 40.8704 13.77 40.7703 13.7947L40.5995 13.8369C40.3718 13.8926 40.1445 13.9497 39.9176 14.0084C38.6517 14.337 37.395 14.6421 36.0999 14.8273C35.9275 14.8517 35.7551 14.8762 35.5829 14.9021C35.3759 14.9338 35.1843 14.9567 34.9869 14.9802C34.7475 15.0088 34.4998 15.0383 34.2062 15.0859C33.2152 15.2466 32.4961 15.4655 31.7416 15.6952C31.1615 15.8718 30.5606 16.0548 29.7993 16.2225C28.1312 16.5912 23.9077 17.1193 21.6127 17.1193C21.7028 16.5588 21.749 16.1765 21.5035 15.662C21.3877 15.4192 21.2678 15.2841 21.1138 15.1105C21.0801 15.0725 21.0447 15.0326 21.0073 14.9894L23.425 15.336L23.5408 15.3362C23.736 15.3362 23.9312 15.3364 24.1266 15.3373C24.065 15.3371 25.1283 15.2136 25.1283 15.2136L30.2568 12.5793L31.5829 11.4614C31.7217 11.3444 31.8718 11.2424 32.0309 11.1569L35.5829 9.249L32.5199 11.6313C32.3802 11.74 32.2303 11.834 32.0723 11.9119L30.2568 12.8072L27.1796 14.8773L26.6338 15.2801C26.7664 15.2434 26.9697 15.2351 27.1517 15.2276C27.243 15.2239 27.3289 15.2203 27.3979 15.2136C27.7425 15.1937 27.9315 15.164 28.2711 15.1015C28.363 15.0842 28.5105 15.0595 28.6502 15.0362L28.6515 15.036C28.7564 15.0185 28.8569 15.0017 28.9261 14.9894L29.4718 14.8773C30.2483 14.7384 30.9282 14.5968 31.5866 14.4596C32.6412 14.24 33.6405 14.0318 34.8925 13.8651C35.5711 13.7749 36.249 13.6808 36.9266 13.5835L39.859 13.1605C40.4563 13.0747 41.0533 12.9866 41.6489 12.8879L41.8242 12.8585C42.2225 12.7928 42.5983 12.7144 42.9802 12.5793L43.4136 12.4154V12.2475C43.1591 12.1353 42.9245 12.0651 42.6499 12.0236C42.407 11.9892 42.166 11.9508 41.925 11.9057C41.7069 11.8648 41.4892 11.8275 41.2709 11.7947C41.1284 11.7734 40.9854 11.754 40.8418 11.7367C40.8121 11.7333 40.783 11.7304 40.7543 11.7275C40.611 11.7132 40.479 11.7001 40.3453 11.6318C40.3378 11.5089 40.3346 11.4576 40.3449 11.4094C40.3521 11.3749 40.3662 11.342 40.3903 11.2857L40.4536 11.1521L40.5233 11.0016C40.732 10.557 40.9259 10.1153 41.0713 9.64485C41.1862 9.27234 41.3193 8.91681 41.4743 8.55977C41.5314 8.42941 41.5875 8.29883 41.6425 8.16754L41.715 7.99373L42.1187 7.97657C42.3044 7.96831 42.3323 7.95118 42.4186 7.8983C42.4535 7.87687 42.498 7.84959 42.5665 7.81465V7.70271C42.5194 7.64027 42.4768 7.59739 42.4273 7.56232C42.3468 7.50498 42.3242 7.47479 42.3088 7.45422C42.2877 7.42588 42.2801 7.41578 42.1534 7.37806L42.1337 7.37374L42.1284 7.37256C41.9758 7.33886 41.8237 7.30526 41.6725 7.2648C41.5314 7.20151 41.4955 7.15993 41.4342 7.01775L41.3863 6.81835C41.3658 6.74432 41.3463 6.6699 41.3315 6.59447L41.3323 6.59387C41.4169 6.52974 41.4541 6.5016 41.4952 6.48274C41.5276 6.46799 41.5622 6.45891 41.6241 6.44274L41.6543 6.43488C41.8488 6.38434 42.0102 6.34233 42.1705 6.20968L42.263 6.09074L42.4042 5.9788C42.5684 5.77109 42.5684 5.65604 42.5665 5.39658L42.5609 5.24419L42.5608 5.22566L42.5606 5.17638L42.5606 5.17141C42.5602 5.0108 42.5598 4.85075 42.5369 4.69149L42.4273 4.52358L42.4146 4.49499C42.3507 4.35079 42.2916 4.21773 42.1812 4.10249C41.9702 3.89106 41.9115 3.74739 41.8897 3.44265L41.8886 3.36926C41.8869 3.24079 41.8855 3.13675 41.8246 3.01238C41.7009 2.87805 41.611 2.79349 41.4268 2.77825L41.2938 2.78194L41.1596 2.78481L41.0575 2.7885C41.0533 2.66429 41.0486 2.54012 41.0434 2.41595L41.037 2.26378L41.0319 2.11292L41.0254 1.96863C41.0227 1.89618 41.0214 1.86312 41.018 1.8303C41.0155 1.80578 41.0116 1.78138 41.0052 1.74079L41.0051 1.74006L41.0028 1.72507L40.8932 1.61313L40.8671 1.55093C40.8016 1.39348 40.7592 1.29161 40.5884 1.21084L40.4548 1.16537C40.3986 1.07912 40.3712 1.03716 40.3446 1.01396C40.3194 0.992033 40.2947 0.986828 40.2471 0.97681L40.1261 0.977259L39.9874 0.976562L39.8348 0.978394C39.6664 0.978312 39.4977 0.978489 39.3291 0.979705L38.9669 0.981523C38.651 0.98196 38.3353 0.982971 38.0194 0.984789C37.6919 0.986688 37.3645 0.987877 37.037 0.988751C36.6209 0.989831 36.2049 0.99132 35.7888 0.993151ZM42.2571 26.3399C42.2559 26.3353 42.256 26.3358 42.2571 26.3399V26.3399ZM18.5917 18.7478C19.6972 18.9081 20.4125 19.5359 20.4125 20.2037C20.4125 22.5011 16.953 24.6115 15.0541 24.7184C15.069 24.8252 15.1008 24.8797 15.1254 24.9218C15.1438 24.9533 15.1582 24.9779 15.1582 25.0122C15.1582 25.2526 14.846 25.0256 14.625 24.6382C14.0787 24.331 13.5325 23.3292 13.8446 23.3292C14.0008 23.3292 14.0266 23.4233 14.0565 23.5323C14.0914 23.6595 14.1319 23.807 14.3908 23.8502C14.3908 22.9419 14.9111 21.5394 15.5223 20.2171C15.4313 20.0568 15.3533 19.8564 15.4183 19.7897C15.4356 19.7719 15.5108 19.7303 15.6359 19.6611C15.6986 19.6265 15.7738 19.5849 15.8605 19.5359C16.6409 17.9865 17.4862 16.6775 17.6943 16.6775C18.2536 16.6775 18.5787 17.1851 18.5787 17.332C18.5787 17.3506 18.4592 17.5306 18.2683 17.8183C18.1847 17.9442 18.0874 18.0909 17.9805 18.2536C18.9039 17.6125 19.7102 16.8378 19.7102 16.1299C19.7102 15.836 19.5802 15.7025 19.3461 15.7025C17.4862 15.7025 15.6004 17.8663 15.6004 17.9998C15.6004 18.0219 15.6044 18.0318 15.6079 18.0407C15.6108 18.048 15.6134 18.0546 15.6134 18.0666C15.6134 18.2002 15.1322 17.8796 15.1322 17.4389C15.1322 17.0381 17.2261 15.1014 18.7868 15.1014C19.346 15.1014 20.2694 15.8627 20.2694 16.5306C20.2694 17.1984 19.5021 18.0266 18.5917 18.7478ZM24.5873 19.616C25.0035 19.616 25.3807 20.177 25.3807 20.3507C25.3807 20.3898 25.2962 20.5245 25.1684 20.7281C24.7729 21.3584 23.9631 22.6491 23.9631 23.8101C23.9631 23.879 23.9801 23.9128 23.9947 23.9417C24.0056 23.9632 24.0151 23.982 24.0151 24.0105C24.0151 24.291 23.3128 23.9704 23.3128 23.3159C23.3128 22.7015 23.6639 21.6463 24.0021 20.8182C23.1437 22.0203 21.466 24.291 21.1668 24.291C20.6856 24.291 20.1654 23.5163 20.1654 23.0888C20.1654 21.5127 22.0772 18.5742 22.2073 18.5742C22.4804 18.5742 23.0266 18.9348 23.0266 19.2287C23.0266 19.3249 22.8108 19.7071 22.5204 20.2213C21.9232 21.2786 21.0108 22.8942 21.0108 23.73C21.0108 23.7967 21.0238 23.8368 21.0498 23.8368C21.2547 23.8368 22.068 22.7461 22.8677 21.6736C23.6411 20.6363 24.4019 19.616 24.5873 19.616ZM29.2824 18.1735C29.4514 18.1735 29.8806 18.4941 29.8806 18.8146C29.8806 18.8322 29.8193 18.9365 29.7236 19.0994C29.3828 19.6792 28.6061 21.0007 28.6061 21.7932C28.6061 21.9465 28.6404 21.981 28.6696 22.0104C28.6913 22.0322 28.7101 22.0511 28.7101 22.1137C28.7101 22.2473 27.9168 22.0202 27.9168 21.3257C27.9168 20.8448 28.1899 20.0568 28.489 19.3889C27.7737 20.0969 26.5382 21.5928 25.6928 24.0371V24.0638C25.6928 24.3443 24.8214 23.8234 24.8214 23.1823C24.8214 23.0861 24.9858 22.6311 25.19 22.066C25.5246 21.1401 25.9659 19.9188 25.9659 19.4958C25.9659 19.3026 25.935 19.2362 25.9121 19.1869C25.8986 19.1578 25.8879 19.1347 25.8879 19.0951C25.8879 18.9081 26.8763 19.2554 26.8763 20.0835C26.8763 20.3373 26.7073 20.9117 26.4992 21.5528C27.1104 20.4308 28.0468 19.0016 29.2304 18.1735V18.1868C29.2434 18.1735 29.2694 18.1735 29.2824 18.1735ZM33.4974 21.1033C33.1737 21.6089 32.6899 22.3646 32.6899 23.209C32.6899 23.5373 32.8326 23.6143 32.9117 23.657C32.942 23.6734 32.963 23.6847 32.963 23.7032C32.963 24.0372 32.0396 23.6231 32.0396 22.8217C32.0396 22.1806 32.3127 21.3925 32.4688 21.0052C31.8703 21.5463 31.3206 22.2612 30.8751 22.8407C30.4299 23.4198 30.0887 23.8635 29.9067 23.8635C29.5295 23.8635 29.0223 23.2625 29.0223 22.7015C29.0223 21.7131 30.8821 18.5609 31.8315 18.5609C32.5078 18.5609 32.937 19.1753 33.1581 19.5626C33.2231 19.6561 33.106 19.8164 33.002 19.6962L32.9881 19.6801C32.8 19.461 32.658 19.2955 32.4167 19.2955C31.9095 19.2955 30.0497 22.1539 30.0497 23.0621C30.0497 23.1022 30.0627 23.1556 30.1147 23.1556C30.1804 23.1556 30.5184 22.7421 30.9507 22.2134C31.7169 21.2761 32.7792 19.9767 33.1451 19.9767C33.3271 19.9767 33.7823 20.2171 33.7823 20.551C33.7823 20.6583 33.6601 20.8492 33.4974 21.1033ZM35.0049 22.3141C35.0049 22.3141 36.8647 19.1485 38.7115 19.1485C39.1667 19.1485 39.6349 20.0435 39.6349 20.4308C39.6349 21.4326 37.671 24.1173 35.8893 24.1173C34.9138 24.1173 34.4456 23.1823 34.4456 22.7015C34.4456 22.6213 34.6667 22.5679 34.6667 22.7015C34.6667 22.9152 34.8358 23.0621 35.343 23.0621C36.9947 23.0621 38.6725 20.5777 38.6725 19.6561C38.6725 19.616 38.6465 19.5893 38.5814 19.5893C37.6683 19.5893 36.2091 21.5656 35.5767 22.4222C35.4344 22.6148 35.334 22.7508 35.291 22.795C35.0569 23.0354 34.2375 22.3676 34.2375 21.6062C34.2375 19.7897 36.6436 16.1833 36.7867 16.1833C37.2679 16.1833 37.7881 16.7844 37.645 16.9313C37.2679 17.3186 35.0049 20.6712 35.0049 22.3141ZM43.889 21.1033C43.5653 21.6089 43.0814 22.3646 43.0814 23.209C43.0814 23.5373 43.2241 23.6143 43.3032 23.657C43.3336 23.6734 43.3546 23.6847 43.3546 23.7032C43.3546 24.0372 42.4311 23.6231 42.4311 22.8217C42.4311 22.1806 42.7043 21.3925 42.8603 21.0052C42.2618 21.5463 41.7122 22.2612 41.2666 22.8407C40.8214 23.4198 40.4802 23.8635 40.2982 23.8635C39.921 23.8635 39.4138 23.2625 39.4138 22.7015C39.4138 21.7131 41.2736 18.5609 42.223 18.5609C42.8993 18.5609 43.3285 19.1753 43.5496 19.5626C43.6146 19.6561 43.4976 19.8164 43.3935 19.6962L43.3797 19.6801C43.1916 19.461 43.0495 19.2955 42.8083 19.2955C42.3011 19.2955 40.4413 22.1539 40.4413 23.0621C40.4413 23.1022 40.4543 23.1556 40.5063 23.1556C40.572 23.1556 40.91 22.7421 41.3423 22.2134C42.1085 21.2761 43.1708 19.9767 43.5366 19.9767C43.7187 19.9767 44.1739 20.2171 44.1739 20.551C44.1739 20.6583 44.0517 20.8492 43.889 21.1033ZM47.8935 19.803C47.9065 19.7496 47.9065 19.6962 47.9065 19.6428C47.9065 19.3623 48.7649 19.7897 48.7649 20.4709C48.7649 21.9134 47.2042 26.8822 44.0698 26.8822C43.3025 26.8822 43.3415 25.9338 43.4586 25.9338C43.5072 25.9338 43.514 25.96 43.5225 25.9928C43.5367 26.0476 43.5558 26.1208 43.7837 26.1208C44.6551 26.1208 45.5785 25.3461 46.3198 24.2642C45.2403 24.7317 44.2909 25.3862 43.8487 25.7201C43.6797 25.827 43.6927 25.7201 43.7577 25.64C43.8617 25.5064 44.0178 25.3461 44.1609 25.2393C45.0583 24.4913 46.0987 23.8903 46.671 23.7166C47.2432 22.7416 47.6724 21.5929 47.8285 20.5243C47.1782 21.4727 45.3574 23.6498 44.9933 23.6498C44.5771 23.6498 43.9398 22.9686 43.9398 22.7416C43.9398 22.68 44.063 22.4468 44.2427 22.1068C44.7259 21.1922 45.6175 19.5047 45.6175 18.3071C45.6175 18.2061 45.5785 18.1145 45.5477 18.0422C45.5052 17.9425 45.4784 17.8797 45.5915 17.8797C45.9687 17.8797 46.4889 18.3605 46.4889 18.9348C46.4889 20.324 44.7462 23.3426 44.7462 23.3426C45.2014 23.3426 47.3603 20.5243 47.8935 19.803Z" fill="white"/>
<path d="M2.54095 22.2102C2.32916 22.0411 2.21113 22.0227 1.94488 22.0199C1.85427 22.0373 1.79734 22.0797 1.7397 22.1225C1.67621 22.1698 1.61185 22.2176 1.50064 22.2335L1.30258 22.2368C1.19374 22.2395 1.08489 22.2421 0.976024 22.2437C0.862986 22.2451 0.749974 22.2472 0.636949 22.2495L0.422493 22.2543C0.306723 22.2561 0.190927 22.2593 0.0753381 22.2661C0.0534892 22.2884 0.0403529 22.3019 0.031152 22.3177C0.0172795 22.3416 0.0123534 22.3709 0 22.4445C0.0236659 22.6258 0.0912823 22.7158 0.207822 22.8523L0.294503 22.9378C0.489598 23.1366 0.628743 23.1874 0.904373 23.1912L1.0329 23.1898C1.1707 23.1915 1.30844 23.193 1.44625 23.1932C1.58885 23.1931 1.73144 23.1933 1.87404 23.1939L2.14585 23.1968C2.17494 23.1966 2.20373 23.1958 2.2322 23.195C2.40062 23.1903 2.55765 23.1859 2.69706 23.302L2.76011 23.3855C2.8355 23.3929 2.87143 23.3964 2.90726 23.396C2.93974 23.3957 2.97219 23.3922 3.03405 23.3855C3.08881 23.3296 3.08886 23.3295 3.09595 23.2316L3.09635 22.9692L3.09571 22.8258L3.09635 22.6824L3.09614 22.546C3.09603 22.4713 3.09425 22.3966 3.08886 22.3221C3.03407 22.2661 3.03407 22.2661 2.92855 22.2543C2.79757 22.2451 2.6703 22.2334 2.54095 22.2102Z" fill="white"/>
<path d="M8.62793 22.4865L8.80985 22.488L8.94983 22.49C8.94983 22.7315 8.91577 22.8008 8.79572 23.0007L8.70904 23.1481C8.62108 23.2736 8.62108 23.2736 8.4567 23.3855C8.29771 23.3952 8.14409 23.3985 7.9852 23.3965L7.84586 23.396C7.69903 23.3954 7.55222 23.394 7.40539 23.3925C7.30584 23.392 7.20628 23.3915 7.10672 23.391C6.86268 23.3898 6.61866 23.3878 6.37463 23.3855L6.42942 23.2176C6.48067 23.1994 6.50954 23.1891 6.53858 23.1806C6.57511 23.17 6.61238 23.1621 6.69641 23.1442C6.99224 23.0703 7.22373 22.9487 7.48587 22.7937C7.6759 22.6919 7.86656 22.6321 8.07338 22.5764C8.27776 22.5196 8.40744 22.4841 8.62793 22.4865Z" fill="white"/>
</svg>
