<svg width="26" height="26" viewBox="0 0 26 26" fill="none" xmlns="http://www.w3.org/2000/svg">
<path d="M0.5 4.25C0.5 2.17893 2.17893 0.5 4.25 0.5H9.25C9.94036 0.5 10.5 1.05964 10.5 1.75C10.5 2.44036 9.94036 3 9.25 3H4.25C3.55964 3 3 3.55964 3 4.25V21.75C3 22.4404 3.55964 23 4.25 23H9.25C9.94036 23 10.5 23.5596 10.5 24.25C10.5 24.9404 9.94036 25.5 9.25 25.5H4.25C2.17893 25.5 0.5 23.8211 0.5 21.75V4.25Z" fill="#0A7D9E"/>
<path d="M25.0581 11.9331C25.341 12.216 25.5 12.5998 25.5 13C25.5 13.4002 25.341 13.784 25.0581 14.0669L18.9375 20.1875C18.4197 20.7053 17.5803 20.7053 17.0625 20.1875C16.5447 19.6697 16.5447 18.8303 17.0625 18.3125L21.125 14.25H9.25C8.55964 14.25 8 13.6904 8 13C8 12.3096 8.55964 11.75 9.25 11.75H21.125L17.0625 7.6875C16.5447 7.16973 16.5447 6.33027 17.0625 5.8125C17.5803 5.29473 18.4197 5.29473 18.9375 5.8125L25.0581 11.9331Z" fill="#0A7D9E"/>
</svg>
