<svg width="22" height="22" viewBox="0 0 22 22" fill="none" xmlns="http://www.w3.org/2000/svg">
<path fill-rule="evenodd" clip-rule="evenodd" d="M19.9594 1.80115L4.26577 7.06601L2.27269 7.72447C2.20167 7.74738 2.13255 7.77875 2.06454 7.81683L2.0581 7.82043L2.05161 7.82393C2.01105 7.84577 1.97592 7.87155 1.94893 7.89609L1.846 7.99902C1.83803 8.00895 1.83478 8.01426 1.83478 8.01426L1.82865 8.02498L1.82224 8.03551C1.80153 8.06953 1.79724 8.08535 1.79547 8.09274L1.79157 8.10899L1.7871 8.12496C1.7871 8.12496 1.7835 8.14105 1.78381 8.17681C1.80141 8.33704 1.89732 8.54701 2.09199 8.77586L2.13025 8.80987C2.19965 8.87184 2.21038 8.88057 2.21961 8.88744C2.22263 8.8897 2.23826 8.90139 2.30249 8.93688L2.30674 8.93923L7.32332 11.7473C7.36438 11.7691 7.39223 11.7793 7.41117 11.7841C7.41428 11.7836 7.41828 11.7826 7.42374 11.7808C7.43854 11.7759 7.4889 11.7562 7.57103 11.683L7.58639 11.6694L14.0029 6.46613C14.3766 6.16303 14.9179 6.18677 15.2637 6.52141L15.4599 6.71134C15.8137 7.05371 15.8478 7.60945 15.5386 7.99255L10.3449 14.4264L10.3305 14.4425C10.2574 14.5247 10.2377 14.575 10.2327 14.5898C10.2309 14.5954 10.2299 14.5995 10.2295 14.6026C10.2345 14.623 10.2453 14.6539 10.2691 14.7033L13.0631 19.6975C13.0996 19.7635 13.1107 19.7779 13.1126 19.7804C13.1194 19.7896 13.1282 19.8003 13.1901 19.8697L13.1914 19.8712L13.2244 19.9084C13.4756 20.123 13.6815 20.2106 13.805 20.2158C13.854 20.2176 13.875 20.2129 13.875 20.2129L13.891 20.2084L13.9073 20.2045C13.9147 20.2028 13.9305 20.1985 13.9645 20.1778L13.975 20.1713L13.9857 20.1652C13.9857 20.1652 14.0073 20.152 14.0526 20.1068L14.0929 20.0628L14.098 20.0575C14.1243 20.0297 14.1525 19.9922 14.1761 19.9484L14.1796 19.9419L14.1832 19.9355C14.2213 19.8675 14.2526 19.7983 14.2756 19.7273L14.2775 19.7213L14.9353 17.7303L20.1993 2.03941C20.2217 1.91139 20.2176 1.83053 20.2109 1.79139L20.2106 1.78939L20.2086 1.78906C20.1704 1.78252 20.0927 1.77802 19.9594 1.80115ZM20.5072 0.0304432C20.1891 -0.0236113 19.8671 -0.00118652 19.555 0.062378L19.5013 0.0733159L3.70619 5.37226L1.72176 6.02787C1.52369 6.09204 1.34924 6.1734 1.19916 6.25701C1.11259 6.304 1.03045 6.35575 0.953285 6.41112H0.906815L0.632443 6.68552C0.523165 6.7948 0.397231 6.93783 0.292494 7.11802C0.195138 7.27982 0.115215 7.45836 0.0648452 7.6605C0.00634932 7.8774 -0.0049259 8.08301 0.00167654 8.26128L0.00233276 8.279L0.00369254 8.29668C0.0583494 9.00721 0.431341 9.59337 0.790318 9.99722L0.825173 10.0364L0.942221 10.1405L0.942968 10.1411C1.09266 10.2748 1.19218 10.3611 1.43746 10.4969L1.4397 10.4981L6.46593 13.3116L6.47236 13.3151C6.64307 13.407 6.88353 13.5127 7.18227 13.5542L7.19523 13.556L7.20824 13.5574C7.7099 13.6121 8.24594 13.463 8.74029 13.0302L10.0119 11.999L8.98263 13.2741C8.55037 13.7682 8.40145 14.3039 8.45615 14.8053L8.45757 14.8183L8.45937 14.8313C8.50059 15.1281 8.60525 15.3645 8.68164 15.5172L8.6909 15.5358L11.5019 20.5603L11.5031 20.5625C11.6389 20.8079 11.7252 20.9074 11.8589 21.0571L11.9636 21.1748L12.0028 21.2097C12.3737 21.5393 12.9847 21.9693 13.7374 21.9983L13.7387 21.9983C13.917 22.0049 14.1226 21.9936 14.3396 21.9351C14.5417 21.8848 14.7202 21.8048 14.8821 21.7075C15.0622 21.6027 15.2052 21.4769 15.3144 21.3676L15.3413 21.3408L15.3987 21.2781C15.5272 21.1415 15.6454 20.9807 15.743 20.8008C15.8266 20.6508 15.908 20.4763 15.9721 20.2783L15.9732 20.2749L16.6264 18.2977L16.6277 18.2938L21.9262 2.50022L21.937 2.44818C22.0016 2.13678 22.0234 1.81 21.9696 1.49292C21.8436 0.741706 21.2542 0.155753 20.5072 0.0304432Z" fill="#0A7D9E"/>
</svg>
