<svg width="25" height="21" viewBox="0 0 25 21" fill="none" xmlns="http://www.w3.org/2000/svg">
<path fill-rule="evenodd" clip-rule="evenodd" d="M9.78125 10.7812C12.5427 10.7812 14.7812 8.54267 14.7812 5.78125C14.7812 3.01983 12.5427 0.78125 9.78125 0.78125C7.01983 0.78125 4.78125 3.01983 4.78125 5.78125C4.78125 8.54267 7.01983 10.7812 9.78125 10.7812ZM9.78125 8.78125C11.4381 8.78125 12.7812 7.4381 12.7812 5.78125C12.7812 4.1244 11.4381 2.78125 9.78125 2.78125C8.1244 2.78125 6.78125 4.1244 6.78125 5.78125C6.78125 7.4381 8.1244 8.78125 9.78125 8.78125Z" fill="#0A7D9E"/>
<path d="M17.1213 0.965562C19.2328 1.55081 20.7828 3.48658 20.7828 5.78437C20.7828 8.10075 19.2076 10.0492 17.07 10.6171L17.0692 10.6142C16.978 10.6415 16.8813 10.6562 16.7812 10.6562C16.229 10.6562 15.7812 10.2085 15.7812 9.65625C15.7812 9.16937 16.1292 8.76376 16.59 8.67452C17.8548 8.322 18.7828 7.16156 18.7828 5.78437C18.7828 4.38454 17.824 3.20864 16.5273 2.8775L16.5283 2.87398C16.0985 2.76194 15.7812 2.37114 15.7812 1.90625C15.7812 1.35397 16.229 0.90625 16.7812 0.90625C16.9007 0.90625 17.0152 0.927177 17.1213 0.965562Z" fill="#0A7D9E"/>
<path d="M24.7828 17.6594C24.7828 15.3616 23.2328 13.4258 21.1213 12.8406C21.0152 12.8022 20.9007 12.7812 20.7812 12.7812C20.229 12.7812 19.7812 13.229 19.7812 13.7812C19.7812 14.2461 20.0985 14.6369 20.5283 14.749L20.5273 14.7525C21.824 15.0836 22.7828 16.2595 22.7828 17.6594V19.7812C22.7828 20.3335 23.2305 20.7812 23.7828 20.7812C24.335 20.7812 24.7828 20.3335 24.7828 19.7812V17.6594Z" fill="#0A7D9E"/>
<path d="M0.78125 16.7812C0.78125 14.5721 2.57211 12.7812 4.78125 12.7812H14.7812C16.9904 12.7812 18.7812 14.5721 18.7812 16.7812V19.7812C18.7812 20.3335 18.3335 20.7812 17.7812 20.7812C17.229 20.7812 16.7812 20.3335 16.7812 19.7812V17.1812C16.7812 15.8558 15.7067 14.7812 14.3813 14.7812H5.18125C3.85577 14.7812 2.78125 15.8558 2.78125 17.1812V19.7812C2.78125 20.3335 2.33353 20.7812 1.78125 20.7812C1.22897 20.7812 0.78125 20.3335 0.78125 19.7812V16.7812Z" fill="#0A7D9E"/>
</svg>
